<?xml version="1.0" encoding="UTF-8"?>
<svg width="536px" height="300px" viewBox="0 0 536 300" version="1.1" xmlns="http://www.w3.org/2000/svg" xmlns:xlink="http://www.w3.org/1999/xlink">
    <!-- Generator: Sketch 51.3 (57544) - http://www.bohemiancoding.com/sketch -->
    <title>BbmajorScale</title>
    <desc>Created with Sketch.</desc>
    <defs></defs>
    <g id="BbmajorScale" stroke="none" stroke-width="1" fill="none" fill-rule="evenodd">
        <g id="Group" transform="translate(-522.000000, 0.000000)">
            <g id="Oct-2" transform="translate(350.000000, 0.000000)">
                <path d="M323.210795,-2.84217094e-14 L349,-2.84217094e-14 L349,203.439377 L349,289 C349,294.522847 344.522847,299 339,299 L311.752708,299 C306.22986,299 301.752708,294.522847 301.752708,289 L301.752708,203.439377 L323.210795,203.439377 L323.210795,-2.84217094e-14 Z" id="B" stroke="#000000" fill="#FFFFFF"></path>
                <path d="M175.681777,0 L151.191336,0 L151.191336,203.439377 L151.191336,289 C151.191336,294.522847 155.668488,299 161.191336,299 L188.438628,299 C193.961476,299 198.438628,294.522847 198.438628,289 L198.438628,203.439377 L175.681777,203.439377 L175.681777,0 Z" id="F" stroke="#000000" fill="#FFFFFF" opacity="0"></path>
                <path d="M208.265418,-2.84217094e-14 L232.334894,-2.84217094e-14 L232.334894,203.439377 L248.205776,203.439377 L248.205776,289 C248.205776,294.522847 243.728624,299 238.205776,299 L210.958484,299 C205.435636,299 200.958484,294.522847 200.958484,289 L200.958484,203.439377 L208.265418,203.439377 L208.265418,-2.84217094e-14 Z" id="G" stroke="#000000" fill="#FFFFFF"></path>
                <path d="M265.874584,-2.84217094e-14 L288.742051,-2.84217094e-14 L288.742051,203.439377 L298.602888,203.439377 L298.602888,289 C298.602888,294.522847 294.125736,299 288.602888,299 L261.355596,299 C255.832748,299 251.355596,294.522847 251.355596,289 L251.355596,203.439377 L265.874584,203.439377 L265.874584,-2.84217094e-14 Z" id="A" stroke="#000000" fill="#FFFFFF"></path>
                <path d="M177.649819,0 L206.628159,0 L206.628159,192.124 C206.628159,197.646847 202.151006,202.124 196.628159,202.124 L187.649819,202.124 C182.126972,202.124 177.649819,197.646847 177.649819,192.124 L177.649819,0 Z" id="Gb" fill-opacity="0.9" fill="#000000"></path>
                <path d="M234.34657,0 L263.32491,0 L263.32491,192.124 C263.32491,197.646847 258.847757,202.124 253.32491,202.124 L244.34657,202.124 C238.823723,202.124 234.34657,197.646847 234.34657,192.124 L234.34657,0 Z" id="Ab" fill-opacity="0.9" fill="#000000"></path>
                <path d="M291.673285,0 L320.651625,0 L320.651625,192.124 C320.651625,197.646847 316.174472,202.124 310.651625,202.124 L301.673285,202.124 C296.150438,202.124 291.673285,197.646847 291.673285,192.124 L291.673285,0 Z" id="Bb" fill-opacity="0.9" fill="#000000"></path>
            </g>
            <g id="Oct-3" transform="translate(703.000000, 0.000000)">
                <path d="M0,0 L26.0285525,0 L26.0285525,203.439377 L47.2472924,203.439377 L47.2472924,289 C47.2472924,294.522847 42.7701399,299 37.2472924,299 L10,299 C4.4771525,299 2.45271059e-15,294.522847 1.77635684e-15,289 L0,0 Z" id="C" stroke="#000000" fill="#FFFFFF"></path>
                <path d="M60.2331831,-2.84217094e-14 L88.8740133,-2.84217094e-14 L88.8740133,203.439377 L97.6444043,203.439377 L97.6444043,289 C97.6444043,294.522847 93.1672518,299 87.6444043,299 L60.3971119,299 C54.8742644,299 50.3971119,294.522847 50.3971119,289 L50.3971119,203.439377 L60.2331831,203.439377 L60.2331831,-2.84217094e-14 Z" id="D" stroke="#000000" fill="#FFFFFF"></path>
                <path d="M122.252311,-2.84217094e-14 L148.041516,-2.84217094e-14 L148.041516,203.439377 L148.041516,289 C148.041516,294.522847 143.564364,299 138.041516,299 L110.794224,299 C105.271376,299 100.794224,294.522847 100.794224,289 L100.794224,203.439377 L122.252311,203.439377 L122.252311,-2.84217094e-14 Z" id="E" stroke="#000000" fill="#FFFFFF"></path>
                <path d="M323.210795,-2.84217094e-14 L349,-2.84217094e-14 L349,203.439377 L349,289 C349,294.522847 344.522847,299 339,299 L311.752708,299 C306.22986,299 301.752708,294.522847 301.752708,289 L301.752708,203.439377 L323.210795,203.439377 L323.210795,-2.84217094e-14 Z" id="B" stroke="#000000" fill="#FFFFFF"></path>
                <path d="M175.681777,0 L151.191336,0 L151.191336,203.439377 L151.191336,289 C151.191336,294.522847 155.668488,299 161.191336,299 L188.438628,299 C193.961476,299 198.438628,294.522847 198.438628,289 L198.438628,203.439377 L175.681777,203.439377 L175.681777,0 Z" id="F" stroke="#000000" fill="#FFFFFF"></path>
                <path d="M208.265418,-2.84217094e-14 L232.334894,-2.84217094e-14 L232.334894,203.439377 L248.205776,203.439377 L248.205776,289 C248.205776,294.522847 243.728624,299 238.205776,299 L210.958484,299 C205.435636,299 200.958484,294.522847 200.958484,289 L200.958484,203.439377 L208.265418,203.439377 L208.265418,-2.84217094e-14 Z" id="G" stroke="#000000" fill="#FFFFFF"></path>
                <path d="M265.874584,-2.84217094e-14 L288.742051,-2.84217094e-14 L288.742051,203.439377 L298.602888,203.439377 L298.602888,289 C298.602888,294.522847 294.125736,299 288.602888,299 L261.355596,299 C255.832748,299 251.355596,294.522847 251.355596,289 L251.355596,203.439377 L265.874584,203.439377 L265.874584,-2.84217094e-14 Z" id="A" stroke="#000000" fill="#FFFFFF"></path>
                <path d="M28.3483755,0 L57.3267148,0 L57.3267148,192.124 C57.3267148,197.646847 52.8495623,202.124 47.3267148,202.124 L38.3483755,202.124 C32.825528,202.124 28.3483755,197.646847 28.3483755,192.124 L28.3483755,0 Z" id="Db" fill-opacity="0.9" fill="#000000"></path>
                <path d="M91.3447653,0 L120.323105,0 L120.323105,192.124 C120.323105,197.646847 115.845952,202.124 110.323105,202.124 L101.344765,202.124 C95.8219178,202.124 91.3447653,197.646847 91.3447653,192.124 L91.3447653,0 Z" id="Eb" fill-opacity="0.9" fill="#000000"></path>
                <path d="M177.649819,0 L206.628159,0 L206.628159,192.124 C206.628159,197.646847 202.151006,202.124 196.628159,202.124 L187.649819,202.124 C182.126972,202.124 177.649819,197.646847 177.649819,192.124 L177.649819,0 Z" id="Gb" fill-opacity="0.9" fill="#000000"></path>
                <path d="M234.34657,0 L263.32491,0 L263.32491,192.124 C263.32491,197.646847 258.847757,202.124 253.32491,202.124 L244.34657,202.124 C238.823723,202.124 234.34657,197.646847 234.34657,192.124 L234.34657,0 Z" id="Ab" fill-opacity="0.9" fill="#000000"></path>
                <path d="M291.673285,0 L320.651625,0 L320.651625,192.124 C320.651625,197.646847 316.174472,202.124 310.651625,202.124 L301.673285,202.124 C296.150438,202.124 291.673285,197.646847 291.673285,192.124 L291.673285,0 Z" id="Bb" fill-opacity="0.9" fill="#000000"></path>
            </g>
        </g>
        <g id="numberCircle" transform="translate(114.000000, 131.000000)">
            <circle id="Oval" stroke="#F5A623" stroke-width="3" fill="#F8E71C" fill-rule="nonzero" cx="19.5" cy="20.5" r="21"></circle>
            <text id="1" font-family="ArchivoBlack-Regular, Archivo Black" font-size="37" font-weight="700" fill="#000000">
                <tspan x="7" y="33">1</tspan>
            </text>
        </g>
        <g id="numberCircle" transform="translate(185.000000, 234.000000)">
            <circle id="Oval" stroke="#F5A623" stroke-width="3" fill="#F8E71C" fill-rule="nonzero" cx="19.5" cy="20.5" r="21"></circle>
            <text id="1" font-family="ArchivoBlack-Regular, Archivo Black" font-size="37" font-weight="700" fill="#000000">
                <tspan x="7" y="33">2</tspan>
            </text>
        </g>
        <g id="numberCircle" transform="translate(236.000000, 234.000000)">
            <circle id="Oval" stroke="#F5A623" stroke-width="3" fill="#F8E71C" fill-rule="nonzero" cx="19.5" cy="20.5" r="21"></circle>
            <text id="1" font-family="ArchivoBlack-Regular, Archivo Black" font-size="37" font-weight="700" fill="#000000">
                <tspan x="7" y="33">3</tspan>
            </text>
        </g>
        <g id="numberCircle" transform="translate(268.000000, 130.000000)">
            <circle id="Oval" stroke="#F5A623" stroke-width="3" fill="#F8E71C" fill-rule="nonzero" cx="19.5" cy="20.5" r="21"></circle>
            <text id="1" font-family="ArchivoBlack-Regular, Archivo Black" font-size="37" font-weight="700" fill="#000000">
                <tspan x="7" y="33">4</tspan>
            </text>
        </g>
        <g id="numberCircle" transform="translate(336.000000, 234.000000)">
            <circle id="Oval" stroke="#F5A623" stroke-width="3" fill="#F8E71C" fill-rule="nonzero" cx="19.5" cy="20.5" r="21"></circle>
            <text id="1" font-family="ArchivoBlack-Regular, Archivo Black" font-size="37" font-weight="700" fill="#000000">
                <tspan x="7" y="33">5</tspan>
            </text>
        </g>
        <g id="numberCircle" transform="translate(386.000000, 234.000000)">
            <circle id="Oval" stroke="#F5A623" stroke-width="3" fill="#F8E71C" fill-rule="nonzero" cx="19.5" cy="20.5" r="21"></circle>
            <text id="1" font-family="ArchivoBlack-Regular, Archivo Black" font-size="37" font-weight="700" fill="#000000">
                <tspan x="7" y="33">6</tspan>
            </text>
        </g>
        <g id="numberCircle" transform="translate(436.000000, 234.000000)">
            <circle id="Oval" stroke="#F5A623" stroke-width="3" fill="#F8E71C" fill-rule="nonzero" cx="19.5" cy="20.5" r="21"></circle>
            <text id="1" font-family="ArchivoBlack-Regular, Archivo Black" font-size="37" font-weight="700" fill="#000000">
                <tspan x="7" y="33">7</tspan>
            </text>
        </g>
        <g id="numberCircle" transform="translate(467.000000, 130.000000)">
            <circle id="Oval" stroke="#F5A623" stroke-width="3" fill="#F8E71C" fill-rule="nonzero" cx="19.5" cy="20.5" r="21"></circle>
            <text id="1" font-family="ArchivoBlack-Regular, Archivo Black" font-size="37" font-weight="700" fill="#000000">
                <tspan x="7" y="33">8</tspan>
            </text>
        </g>
    </g>
</svg>