<?xml version="1.0" encoding="UTF-8"?>
<svg width="875px" height="502px" viewBox="0 0 875 502" version="1.1" xmlns="http://www.w3.org/2000/svg" xmlns:xlink="http://www.w3.org/1999/xlink">
    <!-- Generator: Sketch 51.3 (57544) - http://www.bohemiancoding.com/sketch -->
    <title>BuildAScale</title>
    <desc>Created with Sketch.</desc>
    <defs></defs>
    <g id="BuildAScale" stroke="none" stroke-width="1" fill="none" fill-rule="evenodd">
        <g id="Oct1" transform="translate(-238.000000, 1.000000)" stroke="#000000">
            <path d="M513.062407,-2.84217094e-14 L554,-2.84217094e-14 L554,340.199627 L554,490 C554,495.522847 549.522847,500 544,500 L489,500 C483.477153,500 479,495.522847 479,490 L479,340.199627 L513.062407,340.199627 L513.062407,-2.84217094e-14 Z" id="B"></path>
            <path d="M278.875944,0 L240,0 L240,340.199627 L240,490 C240,495.522847 244.477153,500 250,500 L305,500 C310.522847,500 315,495.522847 315,490 L315,340.199627 L278.875944,340.199627 L278.875944,0 Z" id="F"></path>
            <path d="M330.598973,-2.84217094e-14 L368.80668,-2.84217094e-14 L368.80668,340.199627 L394,340.199627 L394,490 C394,495.522847 389.522847,500 384,500 L329,500 C323.477153,500 319,495.522847 319,490 L319,340.199627 L330.598973,340.199627 L330.598973,-2.84217094e-14 Z" id="G"></path>
            <path d="M422.047334,-2.84217094e-14 L458.346981,-2.84217094e-14 L458.346981,340.199627 L474,340.199627 L474,490 C474,495.522847 469.522847,500 464,500 L409,500 C403.477153,500 399,495.522847 399,490 L399,340.199627 L422.047334,340.199627 L422.047334,-2.84217094e-14 Z" id="A"></path>
            <path d="M282.5,0.5 L282.5,328 C282.5,333.246705 286.753295,337.5 292,337.5 L318,337.5 C323.246705,337.5 327.5,333.246705 327.5,328 L327.5,0.5 L282.5,0.5 Z" id="Gb" fill="#000000"></path>
            <path d="M372.5,0.5 L372.5,328 C372.5,333.246705 376.753295,337.5 382,337.5 L408,337.5 C413.246705,337.5 417.5,333.246705 417.5,328 L417.5,0.5 L372.5,0.5 Z" id="Ab" fill="#000000"></path>
            <path d="M463.5,0.5 L463.5,328 C463.5,333.246705 467.753295,337.5 473,337.5 L499,337.5 C504.246705,337.5 508.5,333.246705 508.5,328 L508.5,0.5 L463.5,0.5 Z" id="Bb" fill="#000000"></path>
        </g>
        <g id="Oct2" transform="translate(320.000000, 1.000000)" stroke="#000000">
            <path d="M0,0 L41.3175303,0 L41.3175303,340.199627 L75,340.199627 L75,490 C75,495.522847 70.5228475,500 65,500 L10,500 C4.4771525,500 -1.10000309e-15,495.522847 -1.77635684e-15,490 L0,0 Z" id="C"></path>
            <path d="M95.6137061,-2.84217094e-14 L141.077947,-2.84217094e-14 L141.077947,340.199627 L155,340.199627 L155,490 C155,495.522847 150.522847,500 145,500 L90,500 C84.4771525,500 80,495.522847 80,490 L80,340.199627 L95.6137061,340.199627 L95.6137061,-2.84217094e-14 Z" id="D"></path>
            <path d="M194.062407,-2.84217094e-14 L235,-2.84217094e-14 L235,340.199627 L235,490 C235,495.522847 230.522847,500 225,500 L170,500 C164.477153,500 160,495.522847 160,490 L160,340.199627 L194.062407,340.199627 L194.062407,-2.84217094e-14 Z" id="E"></path>
            <path d="M513.062407,-2.84217094e-14 L554,-2.84217094e-14 L554,340.199627 L554,490 C554,495.522847 549.522847,500 544,500 L489,500 C483.477153,500 479,495.522847 479,490 L479,340.199627 L513.062407,340.199627 L513.062407,-2.84217094e-14 Z" id="B"></path>
            <path d="M278.875944,0 L240,0 L240,340.199627 L240,490 C240,495.522847 244.477153,500 250,500 L305,500 C310.522847,500 315,495.522847 315,490 L315,340.199627 L278.875944,340.199627 L278.875944,0 Z" id="F"></path>
            <path d="M330.598973,-2.84217094e-14 L368.80668,-2.84217094e-14 L368.80668,340.199627 L394,340.199627 L394,490 C394,495.522847 389.522847,500 384,500 L329,500 C323.477153,500 319,495.522847 319,490 L319,340.199627 L330.598973,340.199627 L330.598973,-2.84217094e-14 Z" id="G"></path>
            <path d="M422.047334,-2.84217094e-14 L458.346981,-2.84217094e-14 L458.346981,340.199627 L474,340.199627 L474,490 C474,495.522847 469.522847,500 464,500 L409,500 C403.477153,500 399,495.522847 399,490 L399,340.199627 L422.047334,340.199627 L422.047334,-2.84217094e-14 Z" id="A"></path>
            <path d="M45.5,0.5 L45.5,328 C45.5,333.246705 49.7532949,337.5 55,337.5 L81,337.5 C86.2467051,337.5 90.5,333.246705 90.5,328 L90.5,0.5 L45.5,0.5 Z" id="Db" fill="#000000"></path>
            <path d="M145.5,0.5 L145.5,328 C145.5,333.246705 149.753295,337.5 155,337.5 L181,337.5 C186.246705,337.5 190.5,333.246705 190.5,328 L190.5,0.5 L145.5,0.5 Z" id="Eb" fill-opacity="0.217589447" fill="#F5A623"></path>
            <path d="M282.5,0.5 L282.5,328 C282.5,333.246705 286.753295,337.5 292,337.5 L318,337.5 C323.246705,337.5 327.5,333.246705 327.5,328 L327.5,0.5 L282.5,0.5 Z" id="Gb" fill="#000000"></path>
            <path d="M372.5,0.5 L372.5,328 C372.5,333.246705 376.753295,337.5 382,337.5 L408,337.5 C413.246705,337.5 417.5,333.246705 417.5,328 L417.5,0.5 L372.5,0.5 Z" id="Ab" fill="#000000"></path>
            <path d="M463.5,0.5 L463.5,328 C463.5,333.246705 467.753295,337.5 473,337.5 L499,337.5 C504.246705,337.5 508.5,333.246705 508.5,328 L508.5,0.5 L463.5,0.5 Z" id="Bb" fill="#000000"></path>
        </g>
        <g id="CAR" opacity="0.1109375" transform="translate(504.000000, 319.000000)">
            <path d="M273.988736,86.7969803 C273.988736,83.2819782 274.368881,76.4322305 268.449884,70.7853484 C260.717455,63.4121635 244.357145,49.1857644 206.824171,38.2663791 C175.745214,17.6686053 148.777452,0 116.270839,0 C71.4306356,0 47.825045,16.5662674 30.5861775,28.65732 C28.1222753,30.3905558 25.7710087,32.0440627 23.4788757,33.5519778 C23.4000308,33.6074414 23.3380813,33.6837037 23.2620523,33.7357008 L20.7362006,33.7357008 C14.4088999,33.7357008 11.7535173,38.4501021 13.2656492,44.2772407 C7.31004573,51.8202827 3.74794718,62.673805 3.49170135,74.0403651 L3.48325369,74.5152717 C0.895452443,76.3490352 0.0732130929,80.1482879 0,84.5333744 L0.0281588819,90 L23.9294178,90 C29.3218437,80.5399992 38.2341298,74.3384817 48.3319048,74.3384817 C49.0049021,74.3384817 49.6581882,74.4147441 50.317106,74.4598082 C48.9598479,70.3520394 48.227717,65.6723029 48.227717,60.4933944 L48.227717,48.8148519 L38.808571,37.6008165 C54.2677971,26.8443554 73.6861621,14.6631745 108.107579,12.9854023 L108.124475,49.4422832 L56.2079441,49.4561491 L56.2079441,60.4933944 C56.2079441,66.9860956 57.6384153,75.6314756 64.4500488,79.9922967 L64.3824675,80.1482879 C67.6629772,82.7342757 70.4985766,86.0863537 72.7343919,90 L118.410914,90 L118.410914,52.1738628 L118.501023,52.1738628 L118.484127,12.8571429 C144.04676,13.5747025 166.782241,26.532373 191.75917,42.8282556 L191.776065,42.8837191 C191.776065,45.4697069 192.074549,49.4180179 185.59519,49.4180179 L126.396773,49.4353503 L126.396773,90 L186.158368,90 C191.55361,80.5399992 200.46308,74.3384817 210.560855,74.3384817 C220.65863,74.3384817 229.5681,80.5399992 234.963342,90 L274,90 L273.988736,86.7969803" id="Fill-418" fill="#2BA046"></path>
            <path d="M264,74 C264,74 260.316402,74 253.760942,74 C245.075377,74 242.379857,72.9824233 237.918113,69.7571627 C230.618096,64.4826645 228.518781,63.0390435 221.090005,56.9652723 C216.225193,52.9759489 217.392412,48.127495 222.579119,49.1345086 C237.005611,51.9055567 259.409498,68.6233921 264,74" id="Fill-419" fill="#414141"></path>
            <path d="M49.0042218,137 C36.8706582,137 27,124.88601 27,110.001727 C27,95.1105354 36.8706582,83 49.0042218,83 C61.1321563,83 71,95.1105354 71,110.001727 C71,124.88601 61.1321563,137 49.0042218,137 Z M49.0042218,95.7322971 C42.589842,95.7322971 37.3744643,102.132988 37.3744643,110.001727 C37.3744643,117.867012 42.589842,124.264249 49.0042218,124.264249 C55.4129726,124.264249 60.6283503,117.867012 60.6283503,110.001727 C60.6283503,102.132988 55.4129726,95.7322971 49.0042218,95.7322971 Z" id="Fill-420" fill="#414141"></path>
            <path d="M77,100 C77.9310906,103.452367 78.443332,107.131285 78.443332,110.948839 L78.443332,122.87489 L181.559498,123 L181.559498,110.948839 C181.559498,107.131285 182.071739,103.452367 183,100 L77,100" id="Fill-421" fill="#414141"></path>
            <path d="M18.5600907,111.55397 C18.5600907,107.525424 19.0731293,103.643176 20,100 L0,100 L0.0141723356,103.043711 C0.306122449,107.803747 3.01020408,109.90901 5.33446712,110.897413 C7.0521542,111.628903 12.4829932,113.70562 18.5600907,116 L18.5600907,111.55397" id="Fill-422" fill="#414141"></path>
            <path d="M239,100 C239.930844,103.456941 240.448928,107.140733 240.448928,110.963345 L240.448928,123 C242.748995,122.729133 249.304756,121.862358 260.24146,119.746209 C267.639819,118.310614 269.791862,110.777124 273,100 L239,100" id="Fill-423" fill="#414141"></path>
            <path d="M209.004222,137 C196.869106,137 187,124.88601 187,110.001727 C187,95.1105354 196.869106,83 209.004222,83 C221.133709,83 231,95.1105354 231,110.001727 C231,124.88601 221.133709,137 209.004222,137 Z M209.004222,95.7322971 C202.589022,95.7322971 197.370162,102.132988 197.370162,110.001727 C197.370162,117.867012 202.589022,124.264249 209.004222,124.264249 C215.413793,124.264249 220.629838,117.867012 220.629838,110.001727 C220.629838,102.132988 215.413793,95.7322971 209.004222,95.7322971 Z" id="Fill-424" fill="#414141"></path>
            <path d="M16.6652299,48 L20,51.24814 L13.1961207,72.9793331 L9,73 C9.20809387,63.2245798 12.1056034,54.1346101 16.6652299,48" id="Fill-425" fill="#414141"></path>
        </g>
        <g id="TRUCK" opacity="0.133928571" transform="translate(202.000000, 313.000000)">
            <path d="M167.931107,0 C167.931107,0 181.286357,0.0215875309 190.230552,0.0215875309 C199.170139,0.0215875309 202.33274,9.51393326 202.33274,9.51393326 L210.475343,35.8353013 C247.744739,40.266913 253.489478,56.5901703 253.489478,56.5901703 L253.530939,77.8908955 C259.549785,86.6646848 263.410324,98.2109299 264,111 L249.679615,111 C248.45189,94.3035868 237.899906,81.2092073 225.111297,81.2092073 C212.320385,81.2092073 201.770705,94.3035868 200.54298,111 L185.570726,111 C186.095906,99.5277693 189.375982,89.0609007 194.496493,80.6849387 L167.931107,80.6849387 L167.931107,0 Z M176,36.3287306 L201.892786,36.3287306 L195.003246,14.0658184 C194.600147,13.1375545 193.284892,10.8276887 190.230552,10.8276887 C185.84944,10.8276887 180.41336,10.8246048 176,10.8184369 L176,36.3287306 Z M0,71.8433029 L0,101.137582 L5.56967857,101.205429 C8.13108575,93.282805 12.9337242,86.9638263 18.9088054,83.6856055 C20.9012669,82.5938933 25.8282902,80.6756869 30.4765993,80.6756869 L161.375563,80.6756869 L161.375563,71.8433029 L0,71.8433029 Z" id="Fill-347" fill="#7785FF"></path>
            <path d="M226.505994,136 C216.308128,136 208.009683,124.561787 208.009683,110.498411 C208.009683,96.4413909 216.308128,85 226.505994,85 C236.703861,85 245,96.4413909 245,110.498411 C245,124.561787 236.703861,136 226.505994,136 Z M226.505994,124.866891 C232.250362,124.866891 236.922847,118.421574 236.922847,110.498411 C236.922847,102.581604 232.250362,96.1362872 226.505994,96.1362872 C220.761627,96.1362872 216.086836,102.581604 216.086836,110.498411 C216.086836,118.421574 220.761627,124.866891 226.505994,124.866891 Z M29.4940057,136 C19.2961394,136 11,124.561787 11,110.498411 C11,96.4413909 19.2961394,85 29.4940057,85 C39.6964822,85 47.9926216,96.4413909 47.9926216,110.498411 C47.9926216,124.561787 39.6964822,136 29.4940057,136 Z M29.4940057,124.866891 C35.2383734,124.866891 39.9108587,118.421574 39.9108587,110.498411 C39.9108587,102.581604 35.2383734,96.1362872 29.4940057,96.1362872 C23.749638,96.1362872 19.0748476,102.581604 19.0748476,110.498411 C19.0748476,118.421574 23.749638,124.866891 29.4940057,124.866891 Z M84.8308,136 C74.6329337,136 66.3344892,124.561787 66.3344892,110.498411 C66.3344892,96.4413909 74.6329337,85 84.8308,85 C95.0286663,85 103.324806,96.4413909 103.324806,110.498411 C103.324806,124.561787 95.0286663,136 84.8308,136 Z M84.8308,124.866891 C90.5751677,124.866891 95.247653,118.421574 95.247653,110.498411 C95.247653,102.581604 90.5751677,96.1362872 84.8308,96.1362872 C79.0864323,96.1362872 74.4116419,102.581604 74.4116419,110.498411 C74.4116419,118.421574 79.0864323,124.866891 84.8308,124.866891 Z M184.225419,85 L101.637455,85 C106.10709,90.6094597 109.119886,98.3832492 109.735354,107.135913 L180.456543,107.135913 C180.753903,99.3017386 182.047078,91.8362311 184.225419,85 Z M46.300661,85 C50.7702954,90.6094597 53.7830918,98.3832492 54.4008649,107.135913 L59.9239408,107.135913 C60.5417139,98.3832492 63.5522051,90.6094597 68.0287549,85 L46.300661,85 Z" id="Fill-348" fill="#414141"></path>
        </g>
        <text id="❶" font-family="Lato-BlackItalic, Lato" font-size="36" font-style="italic" font-weight="700" fill="#57A5FF">
            <tspan x="180" y="453">❶</tspan>
        </text>
        <text id="❷" font-family="Lato-BlackItalic, Lato" font-size="36" font-style="italic" font-weight="700" fill="#57A5FF">
            <tspan x="260" y="453">❷</tspan>
        </text>
        <text id="❸" font-family="Lato-BlackItalic, Lato" font-size="36" font-style="italic" font-weight="700" fill="#57A5FF">
            <tspan x="367" y="307">❸</tspan>
        </text>
        <text id="❹" font-family="Lato-BlackItalic, Lato" font-size="36" font-style="italic" font-weight="700" fill="#57A5FF">
            <tspan x="416" y="453">❹</tspan>
        </text>
        <text id="❺" font-family="Lato-BlackItalic, Lato" font-size="36" font-style="italic" font-weight="700" fill="#57A5FF">
            <tspan x="498" y="453">❺</tspan>
        </text>
        <text id="❻" font-family="Lato-BlackItalic, Lato" font-size="36" font-style="italic" font-weight="700" fill="#57A5FF">
            <tspan x="607" y="307">❻</tspan>
        </text>
        <text id="❼" font-family="Lato-BlackItalic, Lato" font-size="36" font-style="italic" font-weight="700" fill="#57A5FF">
            <tspan x="695" y="307">❼</tspan>
        </text>
        <text id="❽" font-family="Lato-BlackItalic, Lato" font-size="36" font-style="italic" font-weight="700" fill="#57A5FF">
            <tspan x="737" y="453">❽</tspan>
        </text>
        <path id="arrow-after-skip" d="M517.604765,411.988901 L522.912835,391.420129 L504.334589,395.401182 L517.604765,411.988901 Z M495.033296,313.814294 L512.490389,395.280726 L512.804683,396.74743 L515.73809,396.118843 L515.423796,394.652139 L497.966704,313.185706 L497.65241,311.719003 L494.719003,312.34759 L495.033296,313.814294 Z" fill="#F5A623" fill-rule="nonzero"></path>
        <text id="skip" font-family="Lato-BlackItalic, Lato" font-size="22" font-style="italic" font-weight="700" fill="#F5A623">
            <tspan x="469" y="302">skip</tspan>
        </text>
        <path id="arrow-before-skip" d="M477.665622,313.028228 L462.4083,327.808759 L480.335654,334.102404 L477.665622,313.028228 Z M445.915317,407.996867 L473.323858,329.924055 L473.820724,328.508738 L470.990089,327.515004 L470.493223,328.930322 L443.084683,407.003133 L442.587816,408.418451 L445.418451,409.412184 L445.915317,407.996867 Z" fill="#F5A623" fill-rule="nonzero"></path>
        <g id="Group" transform="translate(11.000000, 12.000000)" font-family="HiraginoSans-W4, Hiragino Sans" font-size="20" font-weight="normal">
            <g id="whiteKeyLabel" transform="translate(181.000000, 0.000000)" fill="#9B9B9B">
                <text id="truck" transform="translate(9.500000, 39.000000) rotate(-90.000000) translate(-9.500000, -39.000000) ">
                    <tspan x="-5.46" y="47">truck</tspan>
                </text>
            </g>
            <g id="whiteKeyLabel" fill="#9B9B9B">
                <text id="truck" transform="translate(9.500000, 39.000000) rotate(-90.000000) translate(-9.500000, -39.000000) ">
                    <tspan x="-20.08" y="47">wagon</tspan>
                </text>
            </g>
            <g id="whiteKeyLabel" transform="translate(91.000000, 0.000000)" fill="#9B9B9B">
                <text id="truck" transform="translate(9.500000, 39.000000) rotate(-90.000000) translate(-9.500000, -39.000000) ">
                    <tspan x="13.46" y="47">line</tspan>
                </text>
            </g>
            <g id="whiteKeyLabel" transform="translate(273.000000, 0.000000)" fill="#9B9B9B">
                <text id="truck" transform="translate(9.500000, 39.000000) rotate(-90.000000) translate(-9.500000, -39.000000) ">
                    <tspan x="15.4" y="47">car</tspan>
                </text>
            </g>
            <g id="whiteKeyLabel" transform="translate(319.000000, 0.000000)" fill="#9B9B9B">
                <text id="truck" transform="translate(9.500000, 39.000000) rotate(-90.000000) translate(-9.500000, -39.000000) ">
                    <tspan x="13.46" y="47">line</tspan>
                </text>
            </g>
            <g id="whiteKeyLabel" transform="translate(420.000000, 0.000000)" fill="#9B9B9B">
                <text id="truck" transform="translate(9.500000, 39.000000) rotate(-90.000000) translate(-9.500000, -39.000000) ">
                    <tspan x="-5.46" y="47">truck</tspan>
                </text>
            </g>
            <g id="whiteKeyLabel" transform="translate(511.000000, 0.000000)" fill="#9B9B9B">
                <text id="truck" transform="translate(9.500000, 39.000000) rotate(-90.000000) translate(-9.500000, -39.000000) ">
                    <tspan x="15.4" y="47">car</tspan>
                </text>
            </g>
            <g id="whiteKeyLabel" transform="translate(558.000000, 0.000000)" fill="#9B9B9B">
                <text id="truck" transform="translate(9.500000, 39.000000) rotate(-90.000000) translate(-9.500000, -39.000000) ">
                    <tspan x="-20.08" y="47">wagon</tspan>
                </text>
            </g>
            <g id="whiteKeyLabel" transform="translate(647.000000, 0.000000)" fill="#9B9B9B">
                <text id="truck" transform="translate(9.500000, 39.000000) rotate(-90.000000) translate(-9.500000, -39.000000) ">
                    <tspan x="13.46" y="47">line</tspan>
                </text>
            </g>
            <g id="whiteKeyLabel" transform="translate(739.000000, 0.000000)" fill="#9B9B9B">
                <text id="truck" transform="translate(9.500000, 39.000000) rotate(-90.000000) translate(-9.500000, -39.000000) ">
                    <tspan x="-5.46" y="47">truck</tspan>
                </text>
            </g>
            <g id="whiteKeyLabel" transform="translate(832.000000, 0.000000)" fill="#9B9B9B">
                <text id="truck" transform="translate(9.500000, 39.000000) rotate(-90.000000) translate(-9.500000, -39.000000) ">
                    <tspan x="15.4" y="47">car</tspan>
                </text>
            </g>
            <g id="blackKeyLabel" transform="translate(229.000000, 0.000000)" fill="#C0C0C0">
                <text id="truck-copy" transform="translate(10.000000, 40.000000) rotate(-90.000000) translate(-10.000000, -40.000000) ">
                    <tspan x="17.4" y="48">car</tspan>
                </text>
            </g>
            <g id="blackKeyLabel" transform="translate(43.000000, 0.000000)" fill="#C0C0C0">
                <text id="truck-copy" transform="translate(10.000000, 40.000000) rotate(-90.000000) translate(-10.000000, -40.000000) ">
                    <tspan x="-18.08" y="48">wagon</tspan>
                </text>
            </g>
            <g id="blackKeyLabel" transform="translate(135.000000, 0.000000)" fill="#C0C0C0">
                <text id="truck-copy" transform="translate(10.000000, 40.000000) rotate(-90.000000) translate(-10.000000, -40.000000) ">
                    <tspan x="-3.46" y="48">truck</tspan>
                </text>
            </g>
            <g id="blackKeyLabel" transform="translate(366.000000, 0.000000)" fill="#C0C0C0">
                <text id="truck-copy" transform="translate(10.000000, 40.000000) rotate(-90.000000) translate(-10.000000, -40.000000) ">
                    <tspan x="-3.46" y="48">truck</tspan>
                </text>
            </g>
            <g id="blackKeyLabel" transform="translate(465.000000, 0.000000)" fill="#C0C0C0">
                <text id="truck-copy" transform="translate(10.000000, 40.000000) rotate(-90.000000) translate(-10.000000, -40.000000) ">
                    <tspan x="17.4" y="48">car</tspan>
                </text>
            </g>
            <g id="blackKeyLabel" transform="translate(603.000000, 0.000000)" fill="#C0C0C0">
                <text id="truck-copy" transform="translate(10.000000, 40.000000) rotate(-90.000000) translate(-10.000000, -40.000000) ">
                    <tspan x="-18.08" y="48">wagon</tspan>
                </text>
            </g>
            <g id="blackKeyLabel" transform="translate(692.000000, 0.000000)" fill="#C0C0C0">
                <text id="truck-copy" transform="translate(10.000000, 40.000000) rotate(-90.000000) translate(-10.000000, -40.000000) ">
                    <tspan x="-3.46" y="48">truck</tspan>
                </text>
            </g>
            <g id="blackKeyLabel" transform="translate(785.000000, 0.000000)" fill="#C0C0C0">
                <text id="truck-copy" transform="translate(10.000000, 40.000000) rotate(-90.000000) translate(-10.000000, -40.000000) ">
                    <tspan x="17.4" y="48">car</tspan>
                </text>
            </g>
        </g>
        <ellipse id="Oval-3" stroke="#7ED321" stroke-width="3" fill-rule="nonzero" cx="202.5" cy="43" rx="24.5" ry="43"></ellipse>
        <ellipse id="Oval-3-Copy" stroke="#7ED321" stroke-width="3" fill-rule="nonzero" cx="532.5" cy="32" rx="24.5" ry="32"></ellipse>
    </g>
</svg>