<?xml version="1.0" encoding="UTF-8"?>
<svg width="305px" height="150px" viewBox="0 0 305 150" version="1.1" xmlns="http://www.w3.org/2000/svg" xmlns:xlink="http://www.w3.org/1999/xlink">
    <!-- Generator: Sketch 51.2 (57519) - http://www.bohemiancoding.com/sketch -->
    <title>Car</title>
    <desc>Created with Sketch.</desc>
    <defs></defs>
    <g id="Car" stroke="none" stroke-width="1" fill="none" fill-rule="evenodd">
        <g id="CAR" opacity="0.3" transform="translate(21.000000, 34.000000)">
            <path d="M262.989189,64.6155298 C262.989189,61.998806 263.354072,56.8995494 257.672699,52.6957593 C250.250696,47.2068328 234.547187,36.616069 198.521011,28.4871933 C168.689749,13.1532951 142.804635,0 111.603032,0 C68.5629824,0 45.9050614,12.3326657 29.3582652,21.3337827 C26.9932789,22.6240804 24.7364061,23.8550245 22.5362931,24.9775835 C22.4606135,25.018873 22.401151,25.0756461 22.3281743,25.114355 L19.9037254,25.114355 C13.8304404,25.114355 11.2816608,28.6239649 12.7330867,32.9619458 C7.01657674,38.5773216 3.59748214,46.657166 3.35152356,55.1189385 L3.34341504,55.4724801 C0.859503623,56.8376151 0.0702738811,59.6659477 0,62.930401 L0.0270284158,67 L22.9687478,67 C28.1446894,59.957555 36.699183,55.3408697 46.3915729,55.3408697 C47.037552,55.3408697 47.6646113,55.3976428 48.2970762,55.4311905 C46.9943066,52.3731849 46.2915678,48.889381 46.2915678,45.0339714 L46.2915678,36.3399453 L37.2505627,27.991719 C52.0891629,19.9841313 70.7279585,10.9159188 103.767494,9.6669106 L103.783711,36.8070331 L53.9514208,36.8173555 L53.9514208,45.0339714 C53.9514208,49.8674267 55.3244643,56.3034318 61.8626381,59.5498209 L61.7977699,59.6659477 C64.9465803,61.5910719 67.6683418,64.0865077 69.814398,67 L113.657191,67 L113.657191,38.8405423 L113.743682,38.8405423 L113.727465,9.57142857 C138.263861,10.1056118 160.086604,19.7518777 184.060809,31.8832569 L184.077026,31.9245465 C184.077026,33.8496707 184.363527,36.7889689 178.144289,36.7889689 L121.32245,36.8018719 L121.32245,67 L178.684857,67 C183.863501,59.957555 192.415292,55.3408697 202.107682,55.3408697 C211.800072,55.3408697 220.351863,59.957555 225.530507,67 L263,67 L262.989189,64.6155298" id="Fill-418" fill="#2BA046"></path>
            <path d="M253,56 C253,56 249.476559,56 243.206118,56 C234.898187,56 232.319863,55.2266417 228.052108,52.7754436 C221.069483,48.766825 219.061443,47.6696731 211.955657,43.0536069 C207.302359,40.0217212 208.418829,36.3368962 213.380027,37.1022266 C227.17928,39.2082231 248.609085,51.913778 253,56" id="Fill-419" fill="#414141"></path>
            <path d="M47.0040299,102 C35.4219919,102 26,93.0266743 26,82.0012793 C26,70.970767 35.4219919,62 47.0040299,62 C58.5806947,62 68,70.970767 68,82.0012793 C68,93.0266743 58.5806947,102 47.0040299,102 Z M47.0040299,71.4313312 C40.8812128,71.4313312 35.9028977,76.1725836 35.9028977,82.0012793 C35.9028977,87.8274164 40.8812128,92.5661102 47.0040299,92.5661102 C53.1214738,92.5661102 58.0997889,87.8274164 58.0997889,82.0012793 C58.0997889,76.1725836 53.1214738,71.4313312 47.0040299,71.4313312 Z" id="Fill-420" fill="#414141"></path>
            <path d="M74,74 C74.8871713,76.5517495 75.3752503,79.2709497 75.3752503,82.0926198 L75.3752503,90.9075272 L173.627446,91 L173.627446,82.0926198 C173.627446,79.2709497 174.115525,76.5517495 175,74 L74,74" id="Fill-421" fill="#414141"></path>
            <path d="M17.6320862,82.6654773 C17.6320862,79.6440678 18.1194728,76.7323818 19,74 L0,74 L0.0134637188,76.2827832 C0.290816327,79.85281 2.85969388,81.4317574 5.06774376,82.1730598 C6.69954649,82.7216771 11.8588435,84.279215 17.6320862,86 L17.6320862,82.6654773" id="Fill-422" fill="#414141"></path>
            <path d="M229,74 C229.903466,76.5551303 230.406313,79.2779332 230.406313,82.1033417 L230.406313,91 C232.638731,90.7997939 239.001674,90.1591344 249.616711,88.5950243 C256.797472,87.533932 258.886219,81.9657 262,74 L229,74" id="Fill-423" fill="#414141"></path>
            <path d="M201.00403,102 C189.420511,102 180,93.0266743 180,82.0012793 C180,70.970767 189.420511,62 201.00403,62 C212.582176,62 222,70.970767 222,82.0012793 C222,93.0266743 212.582176,102 201.00403,102 Z M201.00403,71.4313312 C194.88043,71.4313312 189.898791,76.1725836 189.898791,82.0012793 C189.898791,87.8274164 194.88043,92.5661102 201.00403,92.5661102 C207.122257,92.5661102 212.101209,87.8274164 212.101209,82.0012793 C212.101209,76.1725836 207.122257,71.4313312 201.00403,71.4313312 Z" id="Fill-424" fill="#414141"></path>
            <path d="M15.6652299,36 L19,38.4685864 L12.1961207,54.9842932 L8,55 C8.20809387,47.5706806 11.1056034,40.6623037 15.6652299,36" id="Fill-425" fill="#414141"></path>
        </g>
        <circle id="Oval" stroke="#000000" stroke-width="5" fill="#F8E71C" cx="34.5" cy="115.5" r="12.5"></circle>
        <circle id="Oval-Copy" stroke="#000000" stroke-width="5" fill="#F8E71C" cx="119.5" cy="35.5" r="12.5"></circle>
        <circle id="Oval-Copy-2" stroke="#000000" stroke-width="5" fill="#F8E71C" cx="214.5" cy="35.5" r="12.5"></circle>
        <circle id="Oval-Copy-3" stroke="#000000" stroke-width="5" fill="#F8E71C" cx="261.5" cy="115.5" r="12.5"></circle>
    </g>
</svg>