<?xml version="1.0" encoding="UTF-8"?>
<svg width="305px" height="150px" viewBox="0 0 305 150" version="1.1" xmlns="http://www.w3.org/2000/svg" xmlns:xlink="http://www.w3.org/1999/xlink">
    <!-- Generator: Sketch 51.2 (57519) - http://www.bohemiancoding.com/sketch -->
    <title>carNoDots</title>
    <desc>Created with Sketch.</desc>
    <defs></defs>
    <g id="carNoDots" stroke="none" stroke-width="1" fill="none" fill-rule="evenodd">
        <g id="CAR" transform="translate(11.000000, 23.000000)">
            <path d="M287.988161,72.3308169 C287.988161,69.4016485 288.387729,63.6935254 282.166302,58.9877903 C274.038785,52.8434696 256.842547,40.988137 217.39183,31.8886492 C184.724896,14.7238378 156.37922,0 122.211685,0 C75.0803761,0 50.2686604,13.8052228 32.1489749,23.8811 C29.5591799,25.3254632 27.0877756,26.7033856 24.6785263,27.9599815 C24.5956528,28.0062011 24.530538,28.0697531 24.4506243,28.113084 L21.7957145,28.113084 C15.145121,28.113084 12.354062,32.0417517 13.9434561,36.8977006 C7.68355172,43.1835689 3.93944813,52.2281709 3.67010945,61.7003043 L3.66123015,62.0960598 C0.941205488,63.624196 0.0769539078,66.79024 0,70.4444787 L0.0295976569,75 L25.1520888,75 C30.8200401,67.116666 40.1876985,61.9487347 50.8014182,61.9487347 C51.5088022,61.9487347 52.1954679,62.0122867 52.888053,62.0498402 C51.461446,58.6266995 50.6919069,54.7269191 50.6919069,50.411162 L50.6919069,40.6790433 L40.7914907,31.3340138 C57.0406043,22.3702962 77.4511485,12.2193121 113.631324,10.8211686 L113.649083,41.2019027 L59.0798828,41.2134576 L59.0798828,50.411162 C59.0798828,55.8217463 60.5834438,63.0262296 67.743117,66.6602473 L67.6720826,66.79024 C71.1202097,68.9452298 74.1006937,71.738628 76.4507476,75 L124.461107,75 L124.461107,43.478219 L124.555819,43.478219 L124.538061,10.7142857 C151.406814,11.3122521 175.303962,22.1103108 201.557083,35.690213 L201.574842,35.7364326 C201.574842,37.8914224 201.888577,41.1816816 195.078156,41.1816816 L132.855002,41.1961253 L132.855002,75 L195.670109,75 C201.341021,67.116666 210.705719,61.9487347 221.319439,61.9487347 C231.933159,61.9487347 241.297857,67.116666 246.968768,75 L288,75 L287.988161,72.3308169" id="Fill-418" fill="#2BA046"></path>
            <path d="M277,62 C277,62 273.156246,62 266.315766,62 C257.252567,62 254.43985,61.1452355 249.784118,58.4360167 C242.166708,54.0054382 239.976119,52.7927966 232.224354,47.6908287 C227.148028,44.3397971 228.365996,40.2670958 233.778212,41.1129873 C248.831942,43.4406677 272.209911,57.4836493 277,62" id="Fill-419" fill="#414141"></path>
            <path d="M51.0044137,114 C38.3193245,114 28,103.905009 28,91.5014393 C28,79.0921128 38.3193245,69 51.0044137,69 C63.683618,69 74,79.0921128 74,91.5014393 C74,103.905009 63.683618,114 51.0044137,114 Z M51.0044137,79.6102476 C44.2984712,79.6102476 38.8460308,84.9441566 38.8460308,91.5014393 C38.8460308,98.0558434 44.2984712,103.386874 51.0044137,103.386874 C57.7044713,103.386874 63.1569117,98.0558434 63.1569117,91.5014393 C63.1569117,84.9441566 57.7044713,79.6102476 51.0044137,79.6102476 Z" id="Fill-420" fill="#414141"></path>
            <path d="M81,83 C81.97501,85.8519553 82.5114137,88.8910615 82.5114137,92.0446927 L82.5114137,101.896648 L190.49155,102 L190.49155,92.0446927 C190.49155,88.8910615 191.027954,85.8519553 192,83 L81,83" id="Fill-421" fill="#414141"></path>
            <path d="M19.4880952,92.3876004 C19.4880952,89.1144068 20.0267857,85.9600803 21,83 L0,83 L0.0148809524,85.4730152 C0.321428571,89.3405442 3.16071429,91.0510705 5.60119048,91.8541481 C7.4047619,92.4484835 13.1071429,94.1358162 19.4880952,96 L19.4880952,92.3876004" id="Fill-422" fill="#414141"></path>
            <path d="M251,83 C251.985599,85.8557338 252.534159,88.8988665 252.534159,92.056676 L252.534159,102 C254.969524,101.77624 261.910918,101.060209 273.490958,99.312086 C281.324514,98.1261593 283.603148,91.9028412 287,83 L251,83" id="Fill-423" fill="#414141"></path>
            <path d="M220.004414,114 C207.317702,114 197,103.905009 197,91.5014393 C197,79.0921128 207.317702,69 220.004414,69 C232.685241,69 243,79.0921128 243,91.5014393 C243,103.905009 232.685241,114 220.004414,114 Z M220.004414,79.6102476 C213.297614,79.6102476 207.841533,84.9441566 207.841533,91.5014393 C207.841533,98.0558434 213.297614,103.386874 220.004414,103.386874 C226.705329,103.386874 232.158467,98.0558434 232.158467,91.5014393 C232.158467,84.9441566 226.705329,79.6102476 220.004414,79.6102476 Z" id="Fill-424" fill="#414141"></path>
            <path d="M17.362069,40 L21,42.7284376 L13.5775862,60.9826398 L9,61 C9.22701149,52.788647 12.387931,45.1530725 17.362069,40" id="Fill-425" fill="#414141"></path>
        </g>
    </g>
</svg>