<?xml version="1.0" encoding="UTF-8"?>
<svg width="305px" height="227px" viewBox="0 0 305 227" version="1.1" xmlns="http://www.w3.org/2000/svg" xmlns:xlink="http://www.w3.org/1999/xlink">
    <!-- Generator: Sketch 51.3 (57544) - http://www.bohemiancoding.com/sketch -->
    <title>CarOnKeyboard</title>
    <desc>Created with Sketch.</desc>
    <defs></defs>
    <g id="CarOnKeyboard" stroke="none" stroke-width="1" fill="none" fill-rule="evenodd">
        <g id="Oct1-Copy" opacity="0.25" transform="translate(-153.000000, -193.000000)" stroke="#000000">
            <path d="M183.245746,-2.84217094e-14 L222,-2.84217094e-14 L222,306.860064 L222,441 C222,446.522847 217.522847,451 212,451 L161,451 C155.477153,451 151,446.522847 151,441 L151,306.860064 L183.245746,306.860064 L183.245746,-2.84217094e-14 Z" id="E" fill="#FFFFFF"></path>
            <path d="M486.245746,-2.84217094e-14 L525,-2.84217094e-14 L525,306.860064 L525,441 C525,446.522847 520.522847,451 515,451 L464,451 C458.477153,451 454,446.522847 454,441 L454,306.860064 L486.245746,306.860064 L486.245746,-2.84217094e-14 Z" id="B" fill="#FFFFFF"></path>
            <path d="M263.80256,0 L227,0 L227,306.860064 L227,441 C227,446.522847 231.477153,451 237,451 L288,451 C293.522847,451 298,446.522847 298,441 L298,306.860064 L263.80256,306.860064 L263.80256,0 Z" id="F" fill="#FFFFFF"></path>
            <path d="M313.980361,-2.84217094e-14 L350.150324,-2.84217094e-14 L350.150324,306.860064 L374,306.860064 L374,441 C374,446.522847 369.522847,451 364,451 L313,451 C307.477153,451 303,446.522847 303,441 L303,306.860064 L313.980361,306.860064 L313.980361,-2.84217094e-14 Z" id="G" fill="#FFFFFF"></path>
            <path d="M401.818143,-2.84217094e-14 L436.181808,-2.84217094e-14 L436.181808,306.860064 L451,306.860064 L451,441 C451,446.522847 446.522847,451 441,451 L390,451 C384.477153,451 380,446.522847 380,441 L380,306.860064 L401.818143,306.860064 L401.818143,-2.84217094e-14 Z" id="A" fill="#FFFFFF"></path>
            <path d="M137.5,0.5 L137.5,300 C137.5,302.485281 139.514719,304.5 142,304.5 L175,304.5 C177.485281,304.5 179.5,302.485281 179.5,300 L179.5,0.5 L137.5,0.5 Z" id="Eb" fill="#000000"></path>
            <path d="M267.5,0.5 L267.5,300 C267.5,302.485281 269.514719,304.5 272,304.5 L305,304.5 C307.485281,304.5 309.5,302.485281 309.5,300 L309.5,0.5 L267.5,0.5 Z" id="Gb" fill="#000000"></path>
            <path d="M353.5,0.5 L353.5,300 C353.5,302.485281 355.514719,304.5 358,304.5 L391,304.5 C393.485281,304.5 395.5,302.485281 395.5,300 L395.5,0.5 L353.5,0.5 Z" id="Ab" fill="#000000"></path>
            <path d="M440.5,0.5 L440.5,300 C440.5,302.485281 442.514719,304.5 445,304.5 L478,304.5 C480.485281,304.5 482.5,302.485281 482.5,300 L482.5,0.5 L440.5,0.5 Z" id="Bb" fill="#000000"></path>
        </g>
        <g id="CAR" opacity="0.1" transform="translate(30.000000, 83.000000)">
            <path d="M253.989559,72.3308169 C253.989559,69.4016485 254.341956,63.6935254 248.855002,58.9877903 C241.686984,52.8434696 226.520857,40.988137 191.727517,31.8886492 C162.917096,14.7238378 137.917784,0 107.783917,0 C66.2167206,0 44.3341658,13.8052228 28.3536098,23.8811 C26.0695545,25.3254632 23.8899132,26.7033856 21.7650892,27.9599815 C21.6919994,28.0062011 21.6345717,28.0697531 21.5640923,28.113084 L19.2226093,28.113084 C13.3571553,28.113084 10.8955963,32.0417517 12.2973537,36.8977006 C6.77646575,43.1835689 3.47437439,52.2281709 3.23683264,61.7003043 L3.22900159,62.0960598 C0.830090951,63.624196 0.0678690715,66.79024 0,70.4444787 L0.026103489,75 L22.182745,75 C27.1815631,67.116666 35.4433174,61.9487347 44.8040286,61.9487347 C45.427902,61.9487347 46.0335029,62.0122867 46.6443245,62.0498402 C45.3861364,58.6266995 44.7074457,54.7269191 44.7074457,50.411162 L44.7074457,40.6790433 L35.9758286,31.3340138 C50.3066441,22.3702962 68.3076101,12.2193121 100.216515,10.8211686 L100.232177,41.2019027 L52.1051745,41.2134576 L52.1051745,50.411162 C52.1051745,55.8217463 53.4312317,63.0262296 59.7456657,66.6602473 L59.6830173,66.79024 C62.7240738,68.9452298 65.3526951,71.738628 67.4253122,75 L109.767782,75 L109.767782,43.478219 L109.851313,43.478219 L109.835651,10.7142857 C133.532398,11.3122521 154.608355,22.1103108 177.76215,35.690213 L177.777812,35.7364326 C177.777812,37.8914224 178.054509,41.1816816 172.048096,41.1816816 L117.170731,41.1961253 L117.170731,75 L172.570166,75 C177.571594,67.116666 185.830738,61.9487347 195.19145,61.9487347 C204.552161,61.9487347 212.811305,67.116666 217.812733,75 L254,75 L253.989559,72.3308169" id="Fill-418" fill="#2BA046"></path>
            <path d="M244,62 C244,62 240.636715,62 234.651295,62 C226.720996,62 224.259869,61.1452355 220.186103,58.4360167 C213.52087,54.0054382 211.604104,52.7927966 204.821309,47.6908287 C200.379524,44.3397971 201.445246,40.2670958 206.180935,41.1129873 C219.352949,43.4406677 239.808672,57.4836493 244,62" id="Fill-419" fill="#414141"></path>
            <path d="M44.003838,114 C32.9733257,114 24,103.905009 24,91.5014393 C24,79.0921128 32.9733257,69 44.003838,69 C55.029233,69 64,79.0921128 64,91.5014393 C64,103.905009 55.029233,114 44.003838,114 Z M44.003838,79.6102476 C38.1725836,79.6102476 33.4313312,84.9441566 33.4313312,91.5014393 C33.4313312,98.0558434 38.1725836,103.386874 44.003838,103.386874 C49.8299751,103.386874 54.5712275,98.0558434 54.5712275,91.5014393 C54.5712275,84.9441566 49.8299751,79.6102476 44.003838,79.6102476 Z" id="Fill-420" fill="#414141"></path>
            <path d="M71,83 C71.8608197,85.8519553 72.3344013,88.8910615 72.3344013,92.0446927 L72.3344013,101.896648 L167.668215,102 L167.668215,92.0446927 C167.668215,88.8910615 168.141797,85.8519553 169,83 L71,83" id="Fill-421" fill="#414141"></path>
            <path d="M17.6320862,92.3876004 C17.6320862,89.1144068 18.1194728,85.9600803 19,83 L0,83 L0.0134637188,85.4730152 C0.290816327,89.3405442 2.85969388,91.0510705 5.06774376,91.8541481 C6.69954649,92.4484835 11.8588435,94.1358162 17.6320862,96 L17.6320862,92.3876004" id="Fill-422" fill="#414141"></path>
            <path d="M221,83 C221.876088,85.8557338 222.363697,88.8988665 222.363697,92.056676 L222.363697,102 C224.528466,101.77624 230.698593,101.060209 240.991962,99.312086 C247.955124,98.1261593 249.980576,91.9028412 253,83 L221,83" id="Fill-423" fill="#414141"></path>
            <path d="M194.003839,114 C182.971915,114 174,103.905009 174,91.5014393 C174,79.0921128 182.971915,69 194.003839,69 C205.030644,69 214,79.0921128 214,91.5014393 C214,103.905009 205.030644,114 194.003839,114 Z M194.003839,79.6102476 C188.171838,79.6102476 183.42742,84.9441566 183.42742,91.5014393 C183.42742,98.0558434 188.171838,103.386874 194.003839,103.386874 C199.830721,103.386874 204.57258,98.0558434 204.57258,91.5014393 C204.57258,84.9441566 199.830721,79.6102476 194.003839,79.6102476 Z" id="Fill-424" fill="#414141"></path>
            <path d="M14.9683908,40 L18,42.7284376 L11.8146552,60.9826398 L8,61 C8.18917625,52.788647 10.8232759,45.1530725 14.9683908,40" id="Fill-425" fill="#414141"></path>
        </g>
        <g id="Group-4" transform="translate(16.000000, 163.000000)" fill="#000000" font-family="Lato-Bold, Lato" font-size="24" font-weight="bold">
            <text id="❶">
                <tspan x="0" y="24">❶</tspan>
            </text>
        </g>
        <g id="Group" transform="translate(123.000000, 59.000000)" fill="#000000" font-family="Lato-Bold, Lato" font-size="24" font-weight="bold">
            <text id="❷">
                <tspan x="0" y="24">❷</tspan>
            </text>
        </g>
        <g id="Group-2" transform="translate(210.000000, 59.000000)" fill="#000000" font-family="Lato-Bold, Lato" font-size="24" font-weight="bold">
            <text id="❸">
                <tspan x="0" y="24">❸</tspan>
            </text>
        </g>
        <g id="Group-3" transform="translate(248.000000, 159.000000)" fill="#000000" font-family="Lato-Bold, Lato" font-size="24" font-weight="bold">
            <text id="❹">
                <tspan x="0" y="24">❹</tspan>
            </text>
        </g>
    </g>
</svg>