<?xml version="1.0" encoding="UTF-8"?>
<svg width="241px" height="170px" viewBox="0 0 241 170" version="1.1" xmlns="http://www.w3.org/2000/svg" xmlns:xlink="http://www.w3.org/1999/xlink">
    <!-- Generator: Sketch 51.2 (57519) - http://www.bohemiancoding.com/sketch -->
    <title>carPic</title>
    <desc>Created with Sketch.</desc>
    <defs></defs>
    <g id="carPic" stroke="none" stroke-width="1" fill="none" fill-rule="evenodd">
        <g id="CAR">
            <path d="M240.990093,108.01402 C240.990093,103.639795 241.324454,95.1156646 236.118329,88.0884335 C229.317178,78.9129145 214.92727,61.2089512 181.914691,47.6203829 C154.578819,21.9875977 130.859,0 102.267417,0 C62.8276759,0 42.0650943,20.6157994 26.9024408,35.6624427 C24.735286,37.8193583 22.6672011,39.8770558 20.6511279,41.7535724 C20.5817789,41.8225937 20.5272905,41.917498 20.4604183,41.9822054 L18.238775,41.9822054 C12.6735214,41.9822054 10.3379477,47.8490159 11.6679616,55.1005662 C6.42963876,64.4874629 3.29655208,77.9940685 3.07116798,92.1391211 L3.06373773,92.7301159 C0.787605981,95.0121327 0.0643954576,99.7400917 0,105.197088 L0.0247674837,112 L21.0474076,112 C25.7903808,100.227555 33.6292893,92.5101105 42.510909,92.5101105 C43.1028519,92.5101105 43.6774575,92.6050148 44.2570166,92.6610946 C43.0632239,87.5492046 42.4192693,81.7255325 42.4192693,75.2806686 L42.4192693,60.7473713 L34.134546,46.7921273 C47.7318946,33.406309 64.8115513,18.2475061 95.0873234,16.1596118 L95.1021839,61.5281747 L49.4383742,61.54543 L49.4383742,75.2806686 C49.4383742,83.3604745 50.6965624,94.1191696 56.6878167,99.5459693 L56.6283747,99.7400917 C59.5137865,102.95821 62.0078722,107.129685 63.9744104,112 L104.149746,112 L104.149746,64.9274737 L104.229002,64.9274737 L104.214141,16 C126.698063,16.8929631 146.695329,33.0180642 168.664087,53.2973847 L168.678948,53.366406 C168.678948,56.5845241 168.941483,61.4979779 163.242485,61.4979779 L111.173804,61.519547 L111.173804,112 L163.737835,112 C168.483285,100.227555 176.319716,92.5101105 185.201336,92.5101105 C194.082956,92.5101105 201.919387,100.227555 206.664837,112 L241,112 L240.990093,108.01402" id="Fill-418" fill="#2BA046"></path>
            <path d="M231,92 C231,92 227.796872,92 222.096471,92 C214.543806,92 212.199875,90.7382048 208.320098,86.7388817 C201.972257,80.198504 200.146766,78.408414 193.686961,70.8769376 C189.45669,65.9301766 190.471663,59.9180938 194.981843,61.1667907 C207.526618,64.6028904 227.008259,85.3330061 231,92" id="Fill-419" fill="#414141"></path>
            <path d="M43.0036461,170 C32.5246594,170 24,154.96968 24,136.502143 C24,118.026035 32.5246594,103 43.0036461,103 C53.4777714,103 62,118.026035 62,136.502143 C62,154.96968 53.4777714,170 43.0036461,170 Z M43.0036461,118.79748 C37.4639545,118.79748 32.9597646,126.739078 32.9597646,136.502143 C32.9597646,146.260922 37.4639545,154.198235 43.0036461,154.198235 C48.5384763,154.198235 53.0426662,146.260922 53.0426662,136.502143 C53.0426662,126.739078 48.5384763,118.79748 43.0036461,118.79748 Z" id="Fill-420" fill="#414141"></path>
            <path d="M68,124 C68.8169003,128.202882 69.2663196,132.681564 69.2663196,137.329021 L69.2663196,151.847692 L159.736163,152 L159.736163,137.329021 C159.736163,132.681564 160.185583,128.202882 161,124 L68,124" id="Fill-421" fill="#414141"></path>
            <path d="M15.7760771,138.442462 C15.7760771,133.40678 16.2121599,128.55397 17,124 L0,124 L0.0120464853,127.804639 C0.260204082,133.754683 2.55867347,136.386262 4.53429705,137.621766 C5.99433107,138.536128 10.6105442,141.132025 15.7760771,144 L15.7760771,138.442462" id="Fill-422" fill="#414141"></path>
            <path d="M210,124 C210.821333,128.20845 211.278466,132.693066 211.278466,137.34668 L211.278466,152 C213.307937,151.670249 219.092431,150.615045 228.742465,148.038864 C235.270429,146.291182 237.16929,137.119976 240,124 L210,124" id="Fill-423" fill="#414141"></path>
            <path d="M184.003647,170 C173.523319,170 165,154.96968 165,136.502143 C165,118.026035 173.523319,103 184.003647,103 C194.479112,103 203,118.026035 203,136.502143 C203,154.96968 194.479112,170 184.003647,170 Z M184.003647,118.79748 C178.463246,118.79748 173.956049,126.739078 173.956049,136.502143 C173.956049,146.260922 178.463246,154.198235 184.003647,154.198235 C189.539185,154.198235 194.043951,146.260922 194.043951,136.502143 C194.043951,126.739078 189.539185,118.79748 184.003647,118.79748 Z" id="Fill-424" fill="#414141"></path>
            <path d="M14.9683908,60 L18,64.0276936 L11.8146552,90.9743731 L8,91 C8.18917625,78.8784789 10.8232759,67.6069165 14.9683908,60" id="Fill-425" fill="#414141"></path>
        </g>
    </g>
</svg>