<?xml version="1.0" encoding="UTF-8"?>
<svg width="405px" height="300px" viewBox="0 0 405 300" version="1.1" xmlns="http://www.w3.org/2000/svg" xmlns:xlink="http://www.w3.org/1999/xlink">
    <!-- Generator: Sketch 51.3 (57544) - http://www.bohemiancoding.com/sketch -->
    <title>CarSkips</title>
    <desc>Created with Sketch.</desc>
    <defs></defs>
    <g id="CarSkips" stroke="none" stroke-width="1" fill="none" fill-rule="evenodd">
        <g id="Group" transform="translate(-499.000000, 0.000000)">
            <g id="Oct-2" transform="translate(350.000000, 0.000000)">
                <path d="M323.210795,-2.84217094e-14 L349,-2.84217094e-14 L349,203.439377 L349,289 C349,294.522847 344.522847,299 339,299 L311.752708,299 C306.22986,299 301.752708,294.522847 301.752708,289 L301.752708,203.439377 L323.210795,203.439377 L323.210795,-2.84217094e-14 Z" id="B" stroke="#000000" fill="#FFFFFF"></path>
                <path d="M175.681777,0 L151.191336,0 L151.191336,203.439377 L151.191336,289 C151.191336,294.522847 155.668488,299 161.191336,299 L188.438628,299 C193.961476,299 198.438628,294.522847 198.438628,289 L198.438628,203.439377 L175.681777,203.439377 L175.681777,0 Z" id="F" stroke="#000000" fill="#FFFFFF"></path>
                <path d="M208.265418,-2.84217094e-14 L232.334894,-2.84217094e-14 L232.334894,203.439377 L248.205776,203.439377 L248.205776,289 C248.205776,294.522847 243.728624,299 238.205776,299 L210.958484,299 C205.435636,299 200.958484,294.522847 200.958484,289 L200.958484,203.439377 L208.265418,203.439377 L208.265418,-2.84217094e-14 Z" id="G" stroke="#000000" fill="#FFFFFF"></path>
                <path d="M265.874584,-2.84217094e-14 L288.742051,-2.84217094e-14 L288.742051,203.439377 L298.602888,203.439377 L298.602888,289 C298.602888,294.522847 294.125736,299 288.602888,299 L261.355596,299 C255.832748,299 251.355596,294.522847 251.355596,289 L251.355596,203.439377 L265.874584,203.439377 L265.874584,-2.84217094e-14 Z" id="A" stroke="#000000" fill="#FFFFFF"></path>
                <path d="M177.649819,0 L206.628159,0 L206.628159,192.124 C206.628159,197.646847 202.151006,202.124 196.628159,202.124 L187.649819,202.124 C182.126972,202.124 177.649819,197.646847 177.649819,192.124 L177.649819,0 Z" id="Gb" fill-opacity="0.9" fill="#000000"></path>
                <path d="M234.34657,0 L263.32491,0 L263.32491,192.124 C263.32491,197.646847 258.847757,202.124 253.32491,202.124 L244.34657,202.124 C238.823723,202.124 234.34657,197.646847 234.34657,192.124 L234.34657,0 Z" id="Ab" fill-opacity="0.9" fill="#000000"></path>
                <path d="M291.673285,0 L320.651625,0 L320.651625,192.124 C320.651625,197.646847 316.174472,202.124 310.651625,202.124 L301.673285,202.124 C296.150438,202.124 291.673285,197.646847 291.673285,192.124 L291.673285,0 Z" id="Bb" fill-opacity="0.9" fill="#000000"></path>
            </g>
            <g id="Oct-3" transform="translate(703.000000, 0.000000)">
                <path d="M0,0 L26.0285525,0 L26.0285525,203.439377 L47.2472924,203.439377 L47.2472924,289 C47.2472924,294.522847 42.7701399,299 37.2472924,299 L10,299 C4.4771525,299 2.45271059e-15,294.522847 1.77635684e-15,289 L0,0 Z" id="C" stroke="#000000" fill="#FFFFFF"></path>
                <path d="M60.2331831,-2.84217094e-14 L88.8740133,-2.84217094e-14 L88.8740133,203.439377 L97.6444043,203.439377 L97.6444043,289 C97.6444043,294.522847 93.1672518,299 87.6444043,299 L60.3971119,299 C54.8742644,299 50.3971119,294.522847 50.3971119,289 L50.3971119,203.439377 L60.2331831,203.439377 L60.2331831,-2.84217094e-14 Z" id="D" stroke="#000000" fill="#FFFFFF"></path>
                <path d="M122.252311,-2.84217094e-14 L148.041516,-2.84217094e-14 L148.041516,203.439377 L148.041516,289 C148.041516,294.522847 143.564364,299 138.041516,299 L110.794224,299 C105.271376,299 100.794224,294.522847 100.794224,289 L100.794224,203.439377 L122.252311,203.439377 L122.252311,-2.84217094e-14 Z" id="E" stroke="#000000" fill="#FFFFFF"></path>
                <path d="M175.681777,0 L151.191336,0 L151.191336,203.439377 L151.191336,289 C151.191336,294.522847 155.668488,299 161.191336,299 L188.438628,299 C193.961476,299 198.438628,294.522847 198.438628,289 L198.438628,203.439377 L175.681777,203.439377 L175.681777,0 Z" id="F" stroke="#000000" fill="#FFFFFF"></path>
                <path d="M208.265418,-2.84217094e-14 L232.334894,-2.84217094e-14 L232.334894,203.439377 L248.205776,203.439377 L248.205776,289 C248.205776,294.522847 243.728624,299 238.205776,299 L210.958484,299 C205.435636,299 200.958484,294.522847 200.958484,289 L200.958484,203.439377 L208.265418,203.439377 L208.265418,-2.84217094e-14 Z" id="G" stroke="#000000" fill="#FFFFFF"></path>
                <path d="M28.3483755,0 L57.3267148,0 L57.3267148,192.124 C57.3267148,197.646847 52.8495623,202.124 47.3267148,202.124 L38.3483755,202.124 C32.825528,202.124 28.3483755,197.646847 28.3483755,192.124 L28.3483755,0 Z" id="Db" fill-opacity="0.9" fill="#000000"></path>
                <path d="M91.3447653,0 L120.323105,0 L120.323105,192.124 C120.323105,197.646847 115.845952,202.124 110.323105,202.124 L101.344765,202.124 C95.8219178,202.124 91.3447653,197.646847 91.3447653,192.124 L91.3447653,0 Z" id="Eb" fill-opacity="0.9" fill="#000000"></path>
                <path d="M177.649819,0 L206.628159,0 L206.628159,192.124 C206.628159,197.646847 202.151006,202.124 196.628159,202.124 L187.649819,202.124 C182.126972,202.124 177.649819,197.646847 177.649819,192.124 L177.649819,0 Z" id="Gb" fill-opacity="0.9" fill="#000000"></path>
            </g>
        </g>
        <g id="Group" transform="translate(164.000000, 143.000000)">
            <g id="CAR" opacity="0.200948661" transform="translate(8.000000, 21.000000)">
                <path d="M163.993258,59.7934753 C163.993258,57.3720294 164.22079,52.6533143 160.678033,48.76324 C156.049864,43.6839348 146.257561,33.8835266 123.79257,26.3612834 C105.190566,12.1717059 89.049278,0 69.592765,0 C42.7541031,0 28.6252094,11.4123175 18.3070551,19.7417094 C16.8323108,20.9357162 15.4249833,22.0747988 14.0530497,23.1135847 C14.0058579,23.1517929 13.9687786,23.2043292 13.9232722,23.2401494 L12.4114485,23.2401494 C8.62430502,23.2401494 7.03495196,26.4878481 7.94002364,30.5020991 C4.37535584,35.698417 2.24329685,43.1752879 2.08992344,51.0055849 L2.08486717,51.3327427 C0.535964236,52.596002 0.0438209753,55.213265 0,58.2341024 L0.0168542213,62 L14.3227172,62 C17.5503006,55.4831106 22.8846616,51.210954 28.9285854,51.210954 C29.3314013,51.210954 29.7224192,51.2634904 30.116808,51.2945345 C29.3044345,48.4647383 28.8662248,45.2409198 28.8662248,41.6732273 L28.8662248,33.6280091 L23.2284877,25.9027847 C32.4814552,18.4927782 44.1041262,10.101298 64.7067263,8.94549936 L64.7168388,34.0602396 L33.6427111,34.0697916 L33.6427111,41.6732273 C33.6427111,46.145977 34.4989055,52.1016832 38.5759416,55.1058044 L38.5354915,55.213265 C40.4990083,56.9947233 42.1962284,59.3039325 43.5344535,62 L70.8736858,62 L70.8736858,35.9419944 L70.9276193,35.9419944 L70.9175068,8.85714286 C86.2177689,9.3514617 99.8258671,18.277857 114.775561,29.5039094 L114.785674,29.5421176 C114.785674,31.3235759 114.964329,34.0435235 111.086172,34.0435235 L75.653543,34.0554635 L75.653543,62 L111.423257,62 C114.652526,55.4831106 119.985201,51.210954 126.029125,51.210954 C132.073049,51.210954 137.405724,55.4831106 140.634993,62 L164,62 L163.993258,59.7934753" id="Fill-418" fill="#2BA046"></path>
                <path d="M157,50 C157,50 154.837888,50 150.990118,50 C145.892069,50 144.309916,49.3080478 141.691066,47.1148706 C137.406274,43.5282119 136.174067,42.5465496 131.813699,38.4163851 C128.958266,35.7036452 129.643372,32.4066966 132.687744,33.0914659 C141.155467,34.9757786 154.305575,46.3439066 157,50" id="Fill-419" fill="#414141"></path>
                <path d="M29.0024947,93 C21.8326617,93 16,84.6996738 16,74.5011834 C16,64.2979594 21.8326617,56 29.0024947,56 C36.1690015,56 42,64.2979594 42,74.5011834 C42,84.6996738 36.1690015,93 29.0024947,93 Z M29.0024947,64.7239813 C25.2121794,64.7239813 22.1303653,69.1096399 22.1303653,74.5011834 C22.1303653,79.8903601 25.2121794,84.2736519 29.0024947,84.2736519 C32.7894838,84.2736519 35.8712979,79.8903601 35.8712979,74.5011834 C35.8712979,69.1096399 32.7894838,64.7239813 29.0024947,64.7239813 Z" id="Fill-420" fill="#414141"></path>
                <path d="M46,68 C46.5533841,70.2515437 46.8578294,72.650838 46.8578294,75.1405469 L46.8578294,82.9184064 L108.143853,83 L108.143853,75.1405469 C108.143853,72.650838 108.448298,70.2515437 109,68 L46,68" id="Fill-421" fill="#414141"></path>
                <path d="M11.1360544,75.9433541 C11.1360544,73.1737288 11.4438776,70.5046833 12,68 L0,68 L0.00850340136,70.0925513 C0.183673469,73.3650758 1.80612245,74.8124442 3.20068027,75.4919715 C4.23129252,75.9948707 7.48979592,77.4226137 11.1360544,79 L11.1360544,75.9433541" id="Fill-422" fill="#414141"></path>
                <path d="M143,68 C143.547555,70.2545267 143.852311,72.6569999 143.852311,75.1500074 L143.852311,83 C145.205291,82.8233476 149.061621,82.2580598 155.494977,80.8779626 C159.846952,79.9417047 161.11286,75.0285588 163,68 L143,68" id="Fill-423" fill="#414141"></path>
                <path d="M125.002495,93 C117.831745,93 112,84.6996738 112,74.5011834 C112,64.2979594 117.831745,56 125.002495,56 C132.169919,56 138,64.2979594 138,74.5011834 C138,84.6996738 132.169919,93 125.002495,93 Z M125.002495,64.7239813 C121.211695,64.7239813 118.127823,69.1096399 118.127823,74.5011834 C118.127823,79.8903601 121.211695,84.2736519 125.002495,84.2736519 C128.789969,84.2736519 131.872177,79.8903601 131.872177,74.5011834 C131.872177,69.1096399 128.789969,64.7239813 125.002495,64.7239813 Z" id="Fill-424" fill="#414141"></path>
                <path d="M9.87787356,33 L12,35.2087352 L7.67025862,49.9859465 L5,50 C5.13242337,43.3527142 6.9762931,37.1715349 9.87787356,33" id="Fill-425" fill="#414141"></path>
            </g>
            <text id="skip" font-family="Lato-SemiBold, Lato" font-size="14" font-weight="500" letter-spacing="-0.280000001" fill="#F5A623">
                <tspan x="52" y="136">skip</tspan>
            </text>
            <text id="skip" font-family="Lato-SemiBold, Lato" font-size="14" font-weight="500" letter-spacing="-0.280000001" fill="#F5A623">
                <tspan x="102" y="136">skip</tspan>
            </text>
            <text id="❶" font-family="Lato-BlackItalic, Lato" font-size="24" font-style="italic" font-weight="700" fill="#57A5FF">
                <tspan x="0" y="113">❶</tspan>
            </text>
            <text id="❷" font-family="Lato-BlackItalic, Lato" font-size="24" font-style="italic" font-weight="700" fill="#57A5FF">
                <tspan x="69" y="24">❷</tspan>
            </text>
            <text id="❸" font-family="Lato-BlackItalic, Lato" font-size="24" font-style="italic" font-weight="700" fill="#57A5FF">
                <tspan x="133" y="24">❸</tspan>
            </text>
            <text id="❹" font-family="Lato-BlackItalic, Lato" font-size="24" font-style="italic" font-weight="700" fill="#57A5FF">
                <tspan x="151" y="113">❹</tspan>
            </text>
            <text id="✗-copy-2" font-family="ZapfDingbatsITC, Zapf Dingbats" font-size="36" font-weight="normal" fill="#D0021B">
                <tspan x="202" y="122">✗</tspan>
            </text>
        </g>
    </g>
</svg>