<?xml version="1.0" encoding="UTF-8"?>
<svg width="403px" height="300px" viewBox="0 0 403 300" version="1.1" xmlns="http://www.w3.org/2000/svg" xmlns:xlink="http://www.w3.org/1999/xlink">
    <!-- Generator: Sketch 51.3 (57544) - http://www.bohemiancoding.com/sketch -->
    <title>CarSkips</title>
    <desc>Created with Sketch.</desc>
    <defs></defs>
    <g id="CarSkips" stroke="none" stroke-width="1" fill="none" fill-rule="evenodd">
        <g id="Group" transform="translate(-349.000000, 0.000000)">
            <g id="Oct-2" transform="translate(350.000000, 0.000000)">
                <path d="M0,0 L26.0285525,0 L26.0285525,203.439377 L47.2472924,203.439377 L47.2472924,289 C47.2472924,294.522847 42.7701399,299 37.2472924,299 L10,299 C4.4771525,299 2.45271059e-15,294.522847 1.77635684e-15,289 L0,0 Z" id="C" stroke="#000000" fill="#FFFFFF"></path>
                <path d="M60.2331831,-2.84217094e-14 L88.8740133,-2.84217094e-14 L88.8740133,203.439377 L97.6444043,203.439377 L97.6444043,289 C97.6444043,294.522847 93.1672518,299 87.6444043,299 L60.3971119,299 C54.8742644,299 50.3971119,294.522847 50.3971119,289 L50.3971119,203.439377 L60.2331831,203.439377 L60.2331831,-2.84217094e-14 Z" id="D" stroke="#000000" fill="#FFFFFF"></path>
                <path d="M122.252311,-2.84217094e-14 L148.041516,-2.84217094e-14 L148.041516,203.439377 L148.041516,289 C148.041516,294.522847 143.564364,299 138.041516,299 L110.794224,299 C105.271376,299 100.794224,294.522847 100.794224,289 L100.794224,203.439377 L122.252311,203.439377 L122.252311,-2.84217094e-14 Z" id="E" stroke="#000000" fill="#FFFFFF"></path>
                <path d="M323.210795,-2.84217094e-14 L349,-2.84217094e-14 L349,203.439377 L349,289 C349,294.522847 344.522847,299 339,299 L311.752708,299 C306.22986,299 301.752708,294.522847 301.752708,289 L301.752708,203.439377 L323.210795,203.439377 L323.210795,-2.84217094e-14 Z" id="B" stroke="#000000" fill="#FFFFFF"></path>
                <path d="M175.681777,0 L151.191336,0 L151.191336,203.439377 L151.191336,289 C151.191336,294.522847 155.668488,299 161.191336,299 L188.438628,299 C193.961476,299 198.438628,294.522847 198.438628,289 L198.438628,203.439377 L175.681777,203.439377 L175.681777,0 Z" id="F" stroke="#000000" fill="#FFFFFF"></path>
                <path d="M208.265418,-2.84217094e-14 L232.334894,-2.84217094e-14 L232.334894,203.439377 L248.205776,203.439377 L248.205776,289 C248.205776,294.522847 243.728624,299 238.205776,299 L210.958484,299 C205.435636,299 200.958484,294.522847 200.958484,289 L200.958484,203.439377 L208.265418,203.439377 L208.265418,-2.84217094e-14 Z" id="G" stroke="#000000" fill="#FFFFFF"></path>
                <path d="M265.874584,-2.84217094e-14 L288.742051,-2.84217094e-14 L288.742051,203.439377 L298.602888,203.439377 L298.602888,289 C298.602888,294.522847 294.125736,299 288.602888,299 L261.355596,299 C255.832748,299 251.355596,294.522847 251.355596,289 L251.355596,203.439377 L265.874584,203.439377 L265.874584,-2.84217094e-14 Z" id="A" stroke="#000000" fill="#FFFFFF"></path>
                <path d="M28.3483755,0 L57.3267148,0 L57.3267148,192.124 C57.3267148,197.646847 52.8495623,202.124 47.3267148,202.124 L38.3483755,202.124 C32.825528,202.124 28.3483755,197.646847 28.3483755,192.124 L28.3483755,0 Z" id="Db" fill-opacity="0.9" fill="#000000"></path>
                <path d="M91.3447653,0 L120.323105,0 L120.323105,192.124 C120.323105,197.646847 115.845952,202.124 110.323105,202.124 L101.344765,202.124 C95.8219178,202.124 91.3447653,197.646847 91.3447653,192.124 L91.3447653,0 Z" id="Eb" fill-opacity="0.9" fill="#000000"></path>
                <path d="M177.649819,0 L206.628159,0 L206.628159,192.124 C206.628159,197.646847 202.151006,202.124 196.628159,202.124 L187.649819,202.124 C182.126972,202.124 177.649819,197.646847 177.649819,192.124 L177.649819,0 Z" id="Gb" fill-opacity="0.9" fill="#000000"></path>
                <path d="M234.34657,0 L263.32491,0 L263.32491,192.124 C263.32491,197.646847 258.847757,202.124 253.32491,202.124 L244.34657,202.124 C238.823723,202.124 234.34657,197.646847 234.34657,192.124 L234.34657,0 Z" id="Ab" fill-opacity="0.9" fill="#000000"></path>
                <path d="M291.673285,0 L320.651625,0 L320.651625,192.124 C320.651625,197.646847 316.174472,202.124 310.651625,202.124 L301.673285,202.124 C296.150438,202.124 291.673285,197.646847 291.673285,192.124 L291.673285,0 Z" id="Bb" fill-opacity="0.9" fill="#000000"></path>
            </g>
            <g id="Oct-3" transform="translate(703.000000, 0.000000)">
                <path d="M0,0 L26.0285525,0 L26.0285525,203.439377 L47.2472924,203.439377 L47.2472924,289 C47.2472924,294.522847 42.7701399,299 37.2472924,299 L10,299 C4.4771525,299 2.45271059e-15,294.522847 1.77635684e-15,289 L0,0 Z" id="C" stroke="#000000" fill="#FFFFFF"></path>
                <path d="M28.3483755,0 L57.3267148,0 L57.3267148,192.124 C57.3267148,197.646847 52.8495623,202.124 47.3267148,202.124 L38.3483755,202.124 C32.825528,202.124 28.3483755,197.646847 28.3483755,192.124 L28.3483755,0 Z" id="Db" fill-opacity="0.9" fill="#000000"></path>
            </g>
        </g>
        <g id="Group" transform="translate(93.000000, 143.000000)">
            <g id="CAR" opacity="0.2" transform="translate(97.500000, 58.500000) scale(1, -1) translate(-97.500000, -58.500000) translate(19.000000, 14.000000)">
                <path d="M156.993546,56.9002427 C156.993546,54.5959635 157.211366,50.1055733 153.819824,46.4037284 C149.389199,41.570196 140.01486,32.2440011 118.508741,25.0857374 C100.700725,11.5827524 85.2483942,0 66.6223421,0 C40.9292328,0 27.4034017,10.8601086 17.5256564,18.7864654 C16.1138585,19.9226977 14.7665999,21.0066633 13.4532244,21.9951855 C13.4080469,22.0315449 13.3725502,22.0815391 13.3289862,22.1156261 L11.8816916,22.1156261 C8.25619444,22.1156261 6.73467962,25.206178 7.60112019,29.0261911 C4.18860285,33.9710742 2.14754637,41.0861611 2.00071939,48.5375727 L1.99587894,48.8489004 C0.513087714,50.0510342 0.0419505678,52.5416554 0,55.4163232 L0.0161348338,59 L13.7113817,59 C16.8012024,52.7984439 21.9078773,48.7330047 27.6938287,48.7330047 C28.0794512,48.7330047 28.4537794,48.7829989 28.8313345,48.8125409 C28.0536355,46.1196703 27.6341298,43.051843 27.6341298,39.6567808 L27.6341298,32.0008474 L22.2370279,24.6494242 C31.0950516,17.5979663 42.221633,9.61252552 61.9448538,8.51265262 L61.9545347,32.4121635 L32.2067417,32.4212533 L32.2067417,39.6567808 C32.2067417,43.9131071 33.0263912,49.580634 36.9294075,52.4393945 L36.8906839,52.5416554 C38.7703921,54.2369141 40.3951698,56.4343874 41.6762756,59 L67.8485895,59 L67.8485895,34.2028656 L67.900221,34.2028656 L67.8905401,8.42857143 C82.5377422,8.89897161 95.5650069,17.3934445 109.876604,28.0763009 L109.886285,28.1126603 C109.886285,29.807919 110.057315,32.3962562 106.344689,32.3962562 L72.4244283,32.4076185 L72.4244283,59 L106.667386,59 C109.75882,52.7984439 114.863882,48.7330047 120.649833,48.7330047 C126.435784,48.7330047 131.540846,52.7984439 134.63228,59 L157,59 L156.993546,56.9002427" id="Fill-418" fill="#2BA046"></path>
                <path d="M151,48 C151,48 148.917967,48 145.212706,48 C140.303474,48 138.779919,47.3487509 136.258064,45.2845841 C132.131967,41.9089053 130.945398,40.9849879 126.746525,37.0977743 C123.996848,34.5446073 124.656581,31.4415968 127.588198,32.0860855 C135.742302,33.8595563 148.405369,44.5589709 151,48" id="Fill-419" fill="#414141"></path>
                <path d="M27.5023988,89 C20.6083285,89 15,81.14834 15,71.5011194 C15,61.8494211 20.6083285,54 27.5023988,54 C34.3932706,54 40,61.8494211 40,71.5011194 C40,81.14834 34.3932706,89 27.5023988,89 Z M27.5023988,62.2524148 C23.8578648,62.2524148 20.894582,66.4010107 20.894582,71.5011194 C20.894582,76.5989893 23.8578648,80.7453464 27.5023988,80.7453464 C31.1437344,80.7453464 34.1070172,76.5989893 34.1070172,71.5011194 C34.1070172,66.4010107 31.1437344,62.2524148 27.5023988,62.2524148 Z" id="Fill-420" fill="#414141"></path>
                <path d="M44,65 C44.5270324,67.2515437 44.8169804,69.650838 44.8169804,72.1405469 L44.8169804,79.9184064 L103.184622,80 L103.184622,72.1405469 C103.184622,69.650838 103.474569,67.2515437 104,65 L44,65" id="Fill-421" fill="#414141"></path>
                <path d="M11.1360544,72.221231 C11.1360544,69.7033898 11.4438776,67.2769848 12,65 L0,65 L0.00850340136,66.9023194 C0.183673469,69.8773417 1.80612245,71.1931311 3.20068027,71.8108831 C4.23129252,72.2680642 7.48979592,73.5660125 11.1360544,75 L11.1360544,72.221231" id="Fill-422" fill="#414141"></path>
                <path d="M137,65 C137.520177,67.2545267 137.809695,69.6569999 137.809695,72.1500074 L137.809695,80 C139.095027,79.8233476 142.75854,79.2580598 148.870228,77.8779626 C153.004605,76.9417047 154.207217,72.0285588 156,65 L137,65" id="Fill-423" fill="#414141"></path>
                <path d="M119.502399,89 C112.607447,89 107,81.14834 107,71.5011194 C107,61.8494211 112.607447,54 119.502399,54 C126.394153,54 132,61.8494211 132,71.5011194 C132,81.14834 126.394153,89 119.502399,89 Z M119.502399,62.2524148 C115.857399,62.2524148 112.892137,66.4010107 112.892137,71.5011194 C112.892137,76.5989893 115.857399,80.7453464 119.502399,80.7453464 C123.144201,80.7453464 126.107863,76.5989893 126.107863,71.5011194 C126.107863,66.4010107 123.144201,62.2524148 119.502399,62.2524148 Z" id="Fill-424" fill="#414141"></path>
                <path d="M9.87787356,31 L12,33.0788096 L7.67025862,46.9867732 L5,47 C5.13242337,40.7437311 6.9762931,34.9261505 9.87787356,31" id="Fill-425" fill="#414141"></path>
            </g>
            <text id="❶" font-family="Lato-BlackItalic, Lato" font-size="24" font-style="italic" font-weight="700" fill="#57A5FF">
                <tspan x="0" y="24">❶</tspan>
            </text>
            <text id="❷" font-family="Lato-BlackItalic, Lato" font-size="24" font-style="italic" font-weight="700" fill="#57A5FF">
                <tspan x="71" y="113">❷</tspan>
            </text>
            <text id="❸" font-family="Lato-BlackItalic, Lato" font-size="24" font-style="italic" font-weight="700" fill="#57A5FF">
                <tspan x="117" y="113">❸</tspan>
            </text>
            <text id="❹" font-family="Lato-BlackItalic, Lato" font-size="24" font-style="italic" font-weight="700" fill="#57A5FF">
                <tspan x="144" y="24">❹</tspan>
            </text>
            <text id="skip" font-family="Lato-SemiBold, Lato" font-size="14" font-weight="500" letter-spacing="-0.280000001" fill="#F5A623">
                <tspan x="22" y="136">skip</tspan>
            </text>
            <text id="skip" font-family="Lato-SemiBold, Lato" font-size="14" font-weight="500" letter-spacing="-0.280000001" fill="#F5A623">
                <tspan x="89" y="23">skip</tspan>
            </text>
            <text id="✗-copy-2" font-family="ZapfDingbatsITC, Zapf Dingbats" font-size="36" font-weight="normal" fill="#D0021B">
                <tspan x="23" y="122">✗</tspan>
            </text>
        </g>
    </g>
</svg>