<?xml version="1.0" encoding="UTF-8"?>
<svg width="460px" height="477px" viewBox="0 0 460 477" version="1.1" xmlns="http://www.w3.org/2000/svg" xmlns:xlink="http://www.w3.org/1999/xlink">
    <!-- Generator: Sketch 51.2 (57519) - http://www.bohemiancoding.com/sketch -->
    <title>DOTspace</title>
    <desc>Created with Sketch.</desc>
    <defs>
        <linearGradient x1="50%" y1="0%" x2="50%" y2="100%" id="linearGradient-1">
            <stop stop-color="#FFFFFF" offset="0%"></stop>
            <stop stop-color="#FFFFFF" offset="71.1537931%"></stop>
            <stop stop-color="#FFFFFF" stop-opacity="0.6050574" offset="86.1528264%"></stop>
            <stop stop-color="#FFFFFF" stop-opacity="0" offset="100%"></stop>
        </linearGradient>
        <linearGradient x1="50%" y1="22.9490786%" x2="50%" y2="100%" id="linearGradient-2">
            <stop stop-color="#000000" stop-opacity="0" offset="0%"></stop>
            <stop stop-color="#000000" stop-opacity="0.471572435" offset="38.8976698%"></stop>
            <stop stop-color="#000000" offset="100%"></stop>
        </linearGradient>
    </defs>
    <g id="DOTspace" stroke="none" stroke-width="1" fill="none" fill-rule="evenodd">
        <rect id="Rectangle" fill="url(#linearGradient-1)" fill-rule="nonzero" transform="translate(230.000000, 281.000000) rotate(-180.000000) translate(-230.000000, -281.000000) " x="-31" y="58" width="522" height="446"></rect>
        <g id="Oct2-Copy" transform="translate(-200.000000, 2.000000)">
            <path d="M320,0 L361.31753,0 L361.31753,340.199627 L395,340.199627 L395,490 C395,495.522847 390.522847,500 385,500 L330,500 C324.477153,500 320,495.522847 320,490 L320,0 Z" id="C" stroke="#D0021B" stroke-width="3" fill-opacity="0.1" fill="#D0021B"></path>
            <path d="M415.613706,-2.84217094e-14 L461.077947,-2.84217094e-14 L461.077947,340.199627 L475,340.199627 L475,490 C475,495.522847 470.522847,500 465,500 L410,500 C404.477153,500 400,495.522847 400,490 L400,340.199627 L415.613706,340.199627 L415.613706,-2.84217094e-14 Z" id="D" stroke="#D0021B" stroke-width="3" fill-opacity="0.1" fill="#D0021B"></path>
            <path d="M514.062407,-2.84217094e-14 L555,-2.84217094e-14 L555,340.199627 L555,490 C555,495.522847 550.522847,500 545,500 L490,500 C484.477153,500 480,495.522847 480,490 L480,340.199627 L514.062407,340.199627 L514.062407,-2.84217094e-14 Z" id="E" stroke="#000000"></path>
            <path d="M273.062407,-2.84217094e-14 L314,-2.84217094e-14 L314,340.199627 L314,490 C314,495.522847 309.522847,500 304,500 L249,500 C243.477153,500 239,495.522847 239,490 L239,340.199627 L273.062407,340.199627 L273.062407,-2.84217094e-14 Z" id="B" stroke="#000000"></path>
            <path d="M182.047334,-2.84217094e-14 L218.346981,-2.84217094e-14 L218.346981,340.199627 L234,340.199627 L234,490 C234,495.522847 229.522847,500 224,500 L169,500 C163.477153,500 159,495.522847 159,490 L159,340.199627 L182.047334,340.199627 L182.047334,-2.84217094e-14 Z" id="A" stroke="#000000"></path>
            <path d="M365.5,0.5 L365.5,328 C365.5,333.246705 369.753295,337.5 375,337.5 L401,337.5 C406.246705,337.5 410.5,333.246705 410.5,328 L410.5,0.5 L365.5,0.5 Z" id="Db" stroke="#000000" fill="url(#linearGradient-2)"></path>
            <path d="M465.5,0.5 L465.5,328 C465.5,333.246705 469.753295,337.5 475,337.5 L501,337.5 C506.246705,337.5 510.5,333.246705 510.5,328 L510.5,0.5 L465.5,0.5 Z" id="Eb" stroke="#000000" fill="url(#linearGradient-2)"></path>
            <path d="M223.5,0.5 L223.5,328 C223.5,333.246705 227.753295,337.5 233,337.5 L259,337.5 C264.246705,337.5 268.5,333.246705 268.5,328 L268.5,0.5 L223.5,0.5 Z" id="Bb" stroke="#000000" fill="url(#linearGradient-2)"></path>
            <path d="M597.875944,0 L559,0 L559,340.199627 L559,490 C559,495.522847 563.477153,500 569,500 L624,500 C629.522847,500 634,495.522847 634,490 L634,340.199627 L597.875944,340.199627 L597.875944,0 Z" id="F" stroke="#000000"></path>
            <path d="M649.598973,-2.84217094e-14 L687.80668,-2.84217094e-14 L687.80668,340.199627 L713,340.199627 L713,490 C713,495.522847 708.522847,500 703,500 L648,500 C642.477153,500 638,495.522847 638,490 L638,340.199627 L649.598973,340.199627 L649.598973,-2.84217094e-14 Z" id="G" stroke="#000000"></path>
            <path d="M601.5,0.5 L601.5,328 C601.5,333.246705 605.753295,337.5 611,337.5 L637,337.5 C642.246705,337.5 646.5,333.246705 646.5,328 L646.5,0.5 L601.5,0.5 Z" id="Gb" stroke="#000000" fill="url(#linearGradient-2)"></path>
        </g>
        <g id="Group" transform="translate(52.000000, 264.000000)">
            <g id="CAR" opacity="0.3" transform="translate(0.000000, 2.000000)">
                <path d="M305.987421,108.01402 C305.987421,103.639795 306.411962,95.1156646 299.801696,88.0884335 C291.166209,78.9129145 272.895206,61.2089512 230.978819,47.6203829 C196.270202,21.9875977 166.152921,0 129.849915,0 C79.7728996,0 53.4104517,20.6157994 34.1582858,35.6624427 C31.4066286,37.8193583 28.7807615,39.8770558 26.2209342,41.7535724 C26.1328811,41.8225937 26.0636966,41.917498 25.9787883,41.9822054 L23.1579467,41.9822054 C16.0916911,41.9822054 13.1261908,47.8490159 14.8149222,55.1005662 C8.1637737,64.4874629 4.18566363,77.9940685 3.89949129,92.1391211 L3.89005704,92.7301159 C1.00003083,95.0121327 0.0817635271,99.7400917 0,105.197088 L0.0314475104,112 L26.7240943,112 C32.7462926,100.227555 42.6994296,92.5101105 53.9765069,92.5101105 C54.7281024,92.5101105 55.4576846,92.6050148 56.1935563,92.6610946 C54.6777863,87.5492046 53.8601511,81.7255325 53.8601511,75.2806686 L53.8601511,60.7473713 L43.3409588,46.7921273 C60.6056421,33.406309 82.2918452,18.2475061 120.733282,16.1596118 L120.75215,61.5281747 L62.7723755,61.54543 L62.7723755,75.2806686 C62.7723755,83.3604745 64.369909,94.1191696 71.9770618,99.5459693 L71.9015878,99.7400917 C75.5652228,102.95821 78.7319871,107.129685 81.2289194,112 L132.239926,112 L132.239926,64.9274737 L132.340558,64.9274737 L132.32169,16 C160.869739,16.8929631 186.260459,33.0180642 214.154401,53.2973847 L214.17327,53.366406 C214.17327,56.5845241 214.506613,61.4979779 207.270541,61.4979779 L141.15844,61.519547 L141.15844,112 L207.899491,112 C213.924834,100.227555 223.874827,92.5101105 235.151904,92.5101105 C246.428981,92.5101105 256.378973,100.227555 262.404316,112 L306,112 L305.987421,108.01402" id="Fill-418" fill="#2BA046"></path>
                <path d="M294,92 C294,92 289.916011,92 282.648001,92 C273.018353,92 270.029841,90.7382048 265.083125,86.7388817 C256.989628,80.198504 254.662127,78.408414 246.425876,70.8769376 C241.03228,65.9301766 242.32637,59.9180938 248.07685,61.1667907 C264.071438,64.6028904 288.910531,85.3330061 294,92" id="Fill-419" fill="#414141"></path>
                <path d="M54.5047016,170 C40.9923239,170 30,154.96968 30,136.502143 C30,118.026035 40.9923239,103 54.5047016,103 C68.0108105,103 79,118.026035 79,136.502143 C79,154.96968 68.0108105,170 54.5047016,170 Z M54.5047016,118.79748 C47.361415,118.79748 41.5533807,126.739078 41.5533807,136.502143 C41.5533807,146.260922 47.361415,154.198235 54.5047016,154.198235 C61.6417194,154.198235 67.4497537,146.260922 67.4497537,136.502143 C67.4497537,126.739078 61.6417194,118.79748 54.5047016,118.79748 Z" id="Fill-420" fill="#414141"></path>
                <path d="M86,124 C87.0364971,128.202882 87.6067281,132.681564 87.6067281,137.329021 L87.6067281,151.847692 L202.396422,152 L202.396422,137.329021 C202.396422,132.681564 202.966653,128.202882 204,124 L86,124" id="Fill-421" fill="#414141"></path>
                <path d="M20.4160998,137.720339 C20.4160998,132.936441 20.9804422,128.326271 22,124 L0,124 L0.0155895692,127.614407 C0.336734694,133.266949 3.31122449,135.766949 5.86791383,136.940678 C7.75736961,137.809322 13.7312925,140.275424 20.4160998,143 L20.4160998,137.720339" id="Fill-422" fill="#414141"></path>
                <path d="M267,124 C268.040355,128.20845 268.61939,132.693066 268.61939,137.34668 L268.61939,152 C271.190054,151.670249 278.51708,150.615045 290.740455,148.038864 C299.00921,146.291182 301.414434,137.119976 305,124 L267,124" id="Fill-423" fill="#414141"></path>
                <path d="M233.504702,170 C219.990596,170 209,154.96968 209,136.502143 C209,118.026035 219.990596,103 233.504702,103 C247.012539,103 258,118.026035 258,136.502143 C258,154.96968 247.012539,170 233.504702,170 Z M233.504702,118.79748 C226.360502,118.79748 220.548589,126.739078 220.548589,136.502143 C220.548589,146.260922 226.360502,154.198235 233.504702,154.198235 C240.642633,154.198235 246.451411,146.260922 246.451411,136.502143 C246.451411,126.739078 240.642633,118.79748 233.504702,118.79748 Z" id="Fill-424" fill="#414141"></path>
                <path d="M19.058908,60 L23,64.0276936 L14.9590517,90.9743731 L10,91 C10.2459291,78.8784789 13.6702586,67.6069165 19.058908,60" id="Fill-425" fill="#414141"></path>
            </g>
            <ellipse id="Oval" stroke="#000000" stroke-width="5" fill="#F8E71C" cx="26.5" cy="130.5" rx="13.5" ry="17.5"></ellipse>
            <ellipse id="Oval-Copy" stroke="#000000" stroke-width="5" fill="#F8E71C" cx="135.5" cy="17.5" rx="13.5" ry="17.5"></ellipse>
            <ellipse id="Oval-Copy-2" stroke="#000000" stroke-width="5" fill="#F8E71C" cx="232.5" cy="17.5" rx="13.5" ry="17.5"></ellipse>
            <ellipse id="Oval-Copy-3" stroke="#000000" stroke-width="5" fill="#F8E71C" cx="268.5" cy="130.5" rx="13.5" ry="17.5"></ellipse>
        </g>
        <path d="M354.168367,349.170213 L419.831633,428.829787" id="Line-2" stroke="#D0021B" stroke-width="4" stroke-linecap="square" fill-rule="nonzero"></path>
        <path d="M357,426 L432,365" id="Line-2" stroke="#D0021B" stroke-width="4" stroke-linecap="square" fill-rule="nonzero"></path>
        <g id="DOT-arrow" transform="translate(70.000000, 16.000000)">
            <text id="DOT" transform="translate(22.500000, 40.000000) rotate(-90.000000) translate(-22.500000, -40.000000) " font-family="Lato-ExtraBold, Lato" font-size="36" font-weight="600" fill="#4A4A4A">
                <tspan x="-17" y="54">DOT</tspan>
            </text>
            <path id="Line" d="M25.5,147 L35,128 L16,128 L25.5,147 Z M24,89.5 L24,129.5 L24,131 L27,131 L27,129.5 L27,89.5 L27,88 L24,88 L24,89.5 Z" fill="#417505" fill-rule="nonzero"></path>
        </g>
        <g id="DOT-arrow-Copy-4" transform="translate(125.000000, 67.000000)" fill="#D0021B">
            <g id="Group-2">
                <text id="space" transform="translate(16.500000, 34.500000) rotate(-90.000000) translate(-16.500000, -34.500000) " font-family="Lato-ExtraBold, Lato" font-size="27" font-weight="600">
                    <tspan x="-18" y="45">space</tspan>
                </text>
                <path id="Line" d="M17.5,136 L27,117 L8,117 L17.5,136 Z M16,78.5 L16,118.5 L16,120 L19,120 L19,118.5 L19,78.5 L19,77 L16,77 L16,78.5 Z" fill-rule="nonzero"></path>
            </g>
            <g id="Group-2-Copy" transform="translate(98.000000, 0.000000)">
                <text id="space" transform="translate(16.500000, 34.500000) rotate(-90.000000) translate(-16.500000, -34.500000) " font-family="Lato-ExtraBold, Lato" font-size="27" font-weight="600">
                    <tspan x="-18" y="45">space</tspan>
                </text>
                <path id="Line" d="M17.5,136 L27,117 L8,117 L17.5,136 Z M16,78.5 L16,118.5 L16,120 L19,120 L19,118.5 L19,78.5 L19,77 L16,77 L16,78.5 Z" fill-rule="nonzero"></path>
            </g>
        </g>
        <g id="DOT-arrow" transform="translate(160.000000, 16.000000)">
            <text id="DOT" transform="translate(22.500000, 40.000000) rotate(-90.000000) translate(-22.500000, -40.000000) " font-family="Lato-ExtraBold, Lato" font-size="36" font-weight="600" fill="#4A4A4A">
                <tspan x="-17" y="54">DOT</tspan>
            </text>
            <path id="Line" d="M25.5,147 L35,128 L16,128 L25.5,147 Z M24,89.5 L24,129.5 L24,131 L27,131 L27,129.5 L27,89.5 L27,88 L24,88 L24,89.5 Z" fill="#417505" fill-rule="nonzero"></path>
        </g>
        <g id="DOT-arrow" transform="translate(263.000000, 16.000000)">
            <text id="DOT" transform="translate(22.500000, 40.000000) rotate(-90.000000) translate(-22.500000, -40.000000) " font-family="Lato-ExtraBold, Lato" font-size="36" font-weight="600" fill="#4A4A4A">
                <tspan x="-17" y="54">DOT</tspan>
            </text>
            <path id="Line" d="M25.5,147 L35,128 L16,128 L25.5,147 Z M24,89.5 L24,129.5 L24,131 L27,131 L27,129.5 L27,89.5 L27,88 L24,88 L24,89.5 Z" fill="#417505" fill-rule="nonzero"></path>
        </g>
        <g id="DOT-arrow" transform="translate(308.000000, 16.000000)">
            <text id="DOT" transform="translate(22.500000, 40.000000) rotate(-90.000000) translate(-22.500000, -40.000000) " font-family="Lato-ExtraBold, Lato" font-size="36" font-weight="600" fill="#4A4A4A">
                <tspan x="-17" y="54">DOT</tspan>
            </text>
            <path id="Line" d="M25.5,147 L35,128 L16,128 L25.5,147 Z M24,89.5 L24,129.5 L24,131 L27,131 L27,129.5 L27,89.5 L27,88 L24,88 L24,89.5 Z" fill="#417505" fill-rule="nonzero"></path>
        </g>
    </g>
</svg>