<?xml version="1.0" encoding="UTF-8"?>
<svg width="506px" height="300px" viewBox="0 0 506 300" version="1.1" xmlns="http://www.w3.org/2000/svg" xmlns:xlink="http://www.w3.org/1999/xlink">
    <!-- Generator: Sketch 51.3 (57544) - http://www.bohemiancoding.com/sketch -->
    <title>EMajor12Scales</title>
    <desc>Created with Sketch.</desc>
    <defs></defs>
    <g id="EMajor12Scales" stroke="none" stroke-width="1" fill="none" fill-rule="evenodd">
        <g id="Group" transform="translate(-346.000000, 0.000000)">
            <g id="Oct-1" opacity="0" fill="#FFFFFF" stroke="#000000">
                <path d="M322.749723,-2.84217094e-14 L348.50214,-2.84217094e-14 L348.50214,203.473828 L348.50214,289.050633 C348.50214,294.57348 344.024987,299.050633 338.50214,299.050633 L311.322247,299.050633 C305.7994,299.050633 301.322247,294.57348 301.322247,289.050633 L301.322247,203.473828 L322.749723,203.473828 L322.749723,-2.84217094e-14 Z" id="B"></path>
            </g>
            <g id="Oct-2" transform="translate(350.000000, 0.000000)">
                <path d="M0,0 L26.0285525,0 L26.0285525,203.439377 L47.2472924,203.439377 L47.2472924,289 C47.2472924,294.522847 42.7701399,299 37.2472924,299 L10,299 C4.4771525,299 2.45271059e-15,294.522847 1.77635684e-15,289 L0,0 Z" id="C" stroke="#000000" fill="#FFFFFF"></path>
                <path d="M60.2331831,-2.84217094e-14 L88.8740133,-2.84217094e-14 L88.8740133,203.439377 L97.6444043,203.439377 L97.6444043,289 C97.6444043,294.522847 93.1672518,299 87.6444043,299 L60.3971119,299 C54.8742644,299 50.3971119,294.522847 50.3971119,289 L50.3971119,203.439377 L60.2331831,203.439377 L60.2331831,-2.84217094e-14 Z" id="D" stroke="#000000" fill="#FFFFFF"></path>
                <path d="M122.252311,-2.84217094e-14 L148.041516,-2.84217094e-14 L148.041516,203.439377 L148.041516,289 C148.041516,294.522847 143.564364,299 138.041516,299 L110.794224,299 C105.271376,299 100.794224,294.522847 100.794224,289 L100.794224,203.439377 L122.252311,203.439377 L122.252311,-2.84217094e-14 Z" id="E" stroke="#000000" fill="#FFFFFF"></path>
                <path d="M323.210795,-2.84217094e-14 L349,-2.84217094e-14 L349,203.439377 L349,289 C349,294.522847 344.522847,299 339,299 L311.752708,299 C306.22986,299 301.752708,294.522847 301.752708,289 L301.752708,203.439377 L323.210795,203.439377 L323.210795,-2.84217094e-14 Z" id="B" stroke="#000000" fill="#FFFFFF"></path>
                <path d="M175.681777,0 L151.191336,0 L151.191336,203.439377 L151.191336,289 C151.191336,294.522847 155.668488,299 161.191336,299 L188.438628,299 C193.961476,299 198.438628,294.522847 198.438628,289 L198.438628,203.439377 L175.681777,203.439377 L175.681777,0 Z" id="F" stroke="#000000" fill="#FFFFFF"></path>
                <path d="M208.265418,-2.84217094e-14 L232.334894,-2.84217094e-14 L232.334894,203.439377 L248.205776,203.439377 L248.205776,289 C248.205776,294.522847 243.728624,299 238.205776,299 L210.958484,299 C205.435636,299 200.958484,294.522847 200.958484,289 L200.958484,203.439377 L208.265418,203.439377 L208.265418,-2.84217094e-14 Z" id="G" stroke="#000000" fill="#FFFFFF"></path>
                <path d="M265.874584,-2.84217094e-14 L288.742051,-2.84217094e-14 L288.742051,203.439377 L298.602888,203.439377 L298.602888,289 C298.602888,294.522847 294.125736,299 288.602888,299 L261.355596,299 C255.832748,299 251.355596,294.522847 251.355596,289 L251.355596,203.439377 L265.874584,203.439377 L265.874584,-2.84217094e-14 Z" id="A" stroke="#000000" fill="#FFFFFF"></path>
                <path d="M28.3483755,0 L57.3267148,0 L57.3267148,192.124 C57.3267148,197.646847 52.8495623,202.124 47.3267148,202.124 L38.3483755,202.124 C32.825528,202.124 28.3483755,197.646847 28.3483755,192.124 L28.3483755,0 Z" id="Db" fill-opacity="0.9" fill="#000000"></path>
                <path d="M91.3447653,0 L120.323105,0 L120.323105,192.124 C120.323105,197.646847 115.845952,202.124 110.323105,202.124 L101.344765,202.124 C95.8219178,202.124 91.3447653,197.646847 91.3447653,192.124 L91.3447653,0 Z" id="Eb" fill-opacity="0.9" fill="#000000"></path>
                <path d="M177.649819,0 L206.628159,0 L206.628159,192.124 C206.628159,197.646847 202.151006,202.124 196.628159,202.124 L187.649819,202.124 C182.126972,202.124 177.649819,197.646847 177.649819,192.124 L177.649819,0 Z" id="Gb" fill-opacity="0.9" fill="#000000"></path>
                <path d="M234.34657,0 L263.32491,0 L263.32491,192.124 C263.32491,197.646847 258.847757,202.124 253.32491,202.124 L244.34657,202.124 C238.823723,202.124 234.34657,197.646847 234.34657,192.124 L234.34657,0 Z" id="Ab" fill-opacity="0.9" fill="#000000"></path>
                <path d="M291.673285,0 L320.651625,0 L320.651625,192.124 C320.651625,197.646847 316.174472,202.124 310.651625,202.124 L301.673285,202.124 C296.150438,202.124 291.673285,197.646847 291.673285,192.124 L291.673285,0 Z" id="Bb" fill-opacity="0.9" fill="#000000"></path>
            </g>
            <g id="Oct-3" transform="translate(703.000000, 0.000000)">
                <path d="M0,0 L26.0285525,0 L26.0285525,203.439377 L47.2472924,203.439377 L47.2472924,289 C47.2472924,294.522847 42.7701399,299 37.2472924,299 L10,299 C4.4771525,299 2.45271059e-15,294.522847 1.77635684e-15,289 L0,0 Z" id="C" stroke="#000000" fill="#FFFFFF"></path>
                <path d="M60.2331831,-2.84217094e-14 L88.8740133,-2.84217094e-14 L88.8740133,203.439377 L97.6444043,203.439377 L97.6444043,289 C97.6444043,294.522847 93.1672518,299 87.6444043,299 L60.3971119,299 C54.8742644,299 50.3971119,294.522847 50.3971119,289 L50.3971119,203.439377 L60.2331831,203.439377 L60.2331831,-2.84217094e-14 Z" id="D" stroke="#000000" fill="#FFFFFF"></path>
                <path d="M122.252311,-2.84217094e-14 L148.041516,-2.84217094e-14 L148.041516,203.439377 L148.041516,289 C148.041516,294.522847 143.564364,299 138.041516,299 L110.794224,299 C105.271376,299 100.794224,294.522847 100.794224,289 L100.794224,203.439377 L122.252311,203.439377 L122.252311,-2.84217094e-14 Z" id="E" stroke="#000000" fill="#FFFFFF"></path>
                <path d="M28.3483755,0 L57.3267148,0 L57.3267148,192.124 C57.3267148,197.646847 52.8495623,202.124 47.3267148,202.124 L38.3483755,202.124 C32.825528,202.124 28.3483755,197.646847 28.3483755,192.124 L28.3483755,0 Z" id="Db" fill-opacity="0.9" fill="#000000"></path>
                <path d="M91.3447653,0 L120.323105,0 L120.323105,192.124 C120.323105,197.646847 115.845952,202.124 110.323105,202.124 L101.344765,202.124 C95.8219178,202.124 91.3447653,197.646847 91.3447653,192.124 L91.3447653,0 Z" id="Eb" fill-opacity="0.9" fill="#000000"></path>
            </g>
        </g>
        <g id="Group" transform="translate(123.000000, 164.000000)" opacity="0.526171875">
            <g id="CAR">
                <path d="M158.993464,57.4483611 C158.993464,55.1218849 159.214059,50.5882389 155.779312,46.8507342 C151.292246,41.9706406 141.798489,32.5546066 120.018406,25.3273876 C101.983536,11.6943287 86.334361,0 67.4710344,0 C41.4506243,0 27.7524896,10.9647237 17.7489132,18.9674348 C16.3191306,20.1146125 14.9547094,21.2090199 13.6246031,22.2070645 C13.57885,22.2437741 13.5429012,22.29425 13.4987822,22.3286653 L12.0330507,22.3286653 C8.36136889,22.3286653 6.82047171,25.4489884 7.69794975,29.3057996 C4.24196084,34.2983166 2.17490365,41.4819429 2.02620626,49.0051338 L2.02130415,49.3194604 C0.519623863,50.5331744 0.0424849699,53.0477877 0,55.9501471 L0.0163403731,59.5683453 L13.886049,59.5683453 C17.0152305,53.3070498 22.1869585,49.2024483 28.0466163,49.2024483 C28.4371512,49.2024483 28.8162479,49.2529241 29.1986126,49.2827507 C28.4110066,46.5639398 27.9861569,43.4665602 27.9861569,40.0387934 L27.9861569,32.3091106 L22.5203021,24.8868714 C31.4911669,17.767487 42.7594882,9.7051227 62.7339602,8.59465476 L62.7437645,32.7243889 L32.6170187,32.7335663 L32.6170187,40.0387934 C32.6170187,44.3361208 33.4471096,50.0582428 37.3998458,52.9445417 L37.360629,53.0477877 C39.2642824,54.7593767 40.909758,56.9780182 42.2071836,59.5683453 L68.7129027,59.5683453 L68.7129027,34.5323408 L68.7651919,34.5323408 L68.7553877,8.50976362 C83.5891784,8.98469515 96.7823956,17.5609951 111.276306,28.3467591 L111.286111,28.3834688 C111.286111,30.0950578 111.459319,32.7083284 107.699399,32.7083284 L73.3470325,32.7198002 L73.3470325,59.5683453 L108.026206,59.5683453 C111.157022,53.3070498 116.327116,49.2024483 122.186774,49.2024483 C128.046431,49.2024483 133.216525,53.3070498 136.347341,59.5683453 L159,59.5683453 L158.993464,57.4483611" id="Fill-418" fill="#2BA046"></path>
                <path d="M152.837209,48.5611511 C152.837209,48.5611511 150.715137,48.5611511 146.938622,48.5611511 C141.934981,48.5611511 140.382127,47.9022884 137.811774,45.8139902 C133.60633,42.3988475 132.396942,41.4641289 128.117321,37.5314713 C125.314766,34.9484561 125.987186,31.8091694 128.97518,32.4611926 C137.286094,34.2553964 150.192681,45.0798941 152.837209,48.5611511" id="Fill-419" fill="#414141"></path>
                <path d="M28.0431221,90 C21.0753014,90 15.4069767,82.0111579 15.4069767,72.1953836 C15.4069767,62.3750533 21.0753014,54.3884892 28.0431221,54.3884892 C35.0077103,54.3884892 40.6744186,62.3750533 40.6744186,72.1953836 C40.6744186,82.0111579 35.0077103,90 28.0431221,90 Z M28.0431221,62.785088 C24.3596001,62.785088 21.364617,67.0061671 21.364617,72.1953836 C21.364617,77.3823221 24.3596001,81.6011232 28.0431221,81.6011232 C31.7234116,81.6011232 34.7183946,77.3823221 34.7183946,72.1953836 C34.7183946,67.0061671 31.7234116,62.785088 28.0431221,62.785088 Z" id="Fill-420" fill="#414141"></path>
                <path d="M44.9883721,65.3956835 C45.5242905,67.631029 45.8191271,70.0130622 45.8191271,72.4848595 L45.8191271,80.2067631 L105.170874,80.2877698 L105.170874,72.4848595 C105.170874,70.0130622 105.46571,67.631029 106,65.3956835 L44.9883721,65.3956835" id="Fill-421" fill="#414141"></path>
                <path d="M10.8662857,72.876671 C10.8662857,70.26826 11.1666518,67.7545742 11.7093023,65.3956835 L0,65.3956835 L0.00829740811,67.3664316 C0.179224015,70.4484691 1.76236948,71.8115891 3.12314441,72.4515624 C4.12879028,72.9251888 7.30835706,74.2698259 10.8662857,75.7553957 L10.8662857,72.876671" id="Fill-422" fill="#414141"></path>
                <path d="M138.662791,65.3956835 C139.202706,67.6339906 139.503209,70.0191797 139.503209,72.4942519 L139.503209,80.2877698 C140.837311,80.1123882 144.639831,79.5511673 150.983419,78.1809988 C155.274669,77.2514766 156.522913,72.3736771 158.383721,65.3956835 L138.662791,65.3956835" id="Fill-423" fill="#414141"></path>
                <path d="M121.101262,90 C114.13255,90 108.465116,82.0111579 108.465116,72.1953836 C108.465116,62.3750533 114.13255,54.3884892 121.101262,54.3884892 C128.066741,54.3884892 133.732558,62.3750533 133.732558,72.1953836 C133.732558,82.0111579 128.066741,90 121.101262,90 Z M121.101262,62.785088 C117.417269,62.785088 114.420286,67.0061671 114.420286,72.1953836 C114.420286,77.3823221 117.417269,81.6011232 121.101262,81.6011232 C124.782022,81.6011232 127.777389,77.3823221 127.777389,72.1953836 C127.777389,67.0061671 124.782022,62.785088 121.101262,62.785088 Z" id="Fill-424" fill="#414141"></path>
                <path d="M9.6541533,31.7266187 L11.7093023,33.8297309 L7.51621391,47.9002877 L4.93023256,47.9136691 C5.05847645,41.5842603 6.84415096,35.6986684 9.6541533,31.7266187" id="Fill-425" fill="#414141"></path>
            </g>
            <g id="CAR" transform="translate(210.000000, 0.000000)">
                <path d="M158.993464,57.4483611 C158.993464,55.1218849 159.214059,50.5882389 155.779312,46.8507342 C151.292246,41.9706406 141.798489,32.5546066 120.018406,25.3273876 C101.983536,11.6943287 86.334361,0 67.4710344,0 C41.4506243,0 27.7524896,10.9647237 17.7489132,18.9674348 C16.3191306,20.1146125 14.9547094,21.2090199 13.6246031,22.2070645 C13.57885,22.2437741 13.5429012,22.29425 13.4987822,22.3286653 L12.0330507,22.3286653 C8.36136889,22.3286653 6.82047171,25.4489884 7.69794975,29.3057996 C4.24196084,34.2983166 2.17490365,41.4819429 2.02620626,49.0051338 L2.02130415,49.3194604 C0.519623863,50.5331744 0.0424849699,53.0477877 0,55.9501471 L0.0163403731,59.5683453 L13.886049,59.5683453 C17.0152305,53.3070498 22.1869585,49.2024483 28.0466163,49.2024483 C28.4371512,49.2024483 28.8162479,49.2529241 29.1986126,49.2827507 C28.4110066,46.5639398 27.9861569,43.4665602 27.9861569,40.0387934 L27.9861569,32.3091106 L22.5203021,24.8868714 C31.4911669,17.767487 42.7594882,9.7051227 62.7339602,8.59465476 L62.7437645,32.7243889 L32.6170187,32.7335663 L32.6170187,40.0387934 C32.6170187,44.3361208 33.4471096,50.0582428 37.3998458,52.9445417 L37.360629,53.0477877 C39.2642824,54.7593767 40.909758,56.9780182 42.2071836,59.5683453 L68.7129027,59.5683453 L68.7129027,34.5323408 L68.7651919,34.5323408 L68.7553877,8.50976362 C83.5891784,8.98469515 96.7823956,17.5609951 111.276306,28.3467591 L111.286111,28.3834688 C111.286111,30.0950578 111.459319,32.7083284 107.699399,32.7083284 L73.3470325,32.7198002 L73.3470325,59.5683453 L108.026206,59.5683453 C111.157022,53.3070498 116.327116,49.2024483 122.186774,49.2024483 C128.046431,49.2024483 133.216525,53.3070498 136.347341,59.5683453 L159,59.5683453 L158.993464,57.4483611" id="Fill-418" fill="#2BA046"></path>
                <path d="M152.837209,48.5611511 C152.837209,48.5611511 150.715137,48.5611511 146.938622,48.5611511 C141.934981,48.5611511 140.382127,47.9022884 137.811774,45.8139902 C133.60633,42.3988475 132.396942,41.4641289 128.117321,37.5314713 C125.314766,34.9484561 125.987186,31.8091694 128.97518,32.4611926 C137.286094,34.2553964 150.192681,45.0798941 152.837209,48.5611511" id="Fill-419" fill="#414141"></path>
                <path d="M28.0431221,90 C21.0753014,90 15.4069767,82.0111579 15.4069767,72.1953836 C15.4069767,62.3750533 21.0753014,54.3884892 28.0431221,54.3884892 C35.0077103,54.3884892 40.6744186,62.3750533 40.6744186,72.1953836 C40.6744186,82.0111579 35.0077103,90 28.0431221,90 Z M28.0431221,62.785088 C24.3596001,62.785088 21.364617,67.0061671 21.364617,72.1953836 C21.364617,77.3823221 24.3596001,81.6011232 28.0431221,81.6011232 C31.7234116,81.6011232 34.7183946,77.3823221 34.7183946,72.1953836 C34.7183946,67.0061671 31.7234116,62.785088 28.0431221,62.785088 Z" id="Fill-420" fill="#414141"></path>
                <path d="M44.9883721,65.3956835 C45.5242905,67.631029 45.8191271,70.0130622 45.8191271,72.4848595 L45.8191271,80.2067631 L105.170874,80.2877698 L105.170874,72.4848595 C105.170874,70.0130622 105.46571,67.631029 106,65.3956835 L44.9883721,65.3956835" id="Fill-421" fill="#414141"></path>
                <path d="M10.8662857,72.876671 C10.8662857,70.26826 11.1666518,67.7545742 11.7093023,65.3956835 L0,65.3956835 L0.00829740811,67.3664316 C0.179224015,70.4484691 1.76236948,71.8115891 3.12314441,72.4515624 C4.12879028,72.9251888 7.30835706,74.2698259 10.8662857,75.7553957 L10.8662857,72.876671" id="Fill-422" fill="#414141"></path>
                <path d="M138.662791,65.3956835 C139.202706,67.6339906 139.503209,70.0191797 139.503209,72.4942519 L139.503209,80.2877698 C140.837311,80.1123882 144.639831,79.5511673 150.983419,78.1809988 C155.274669,77.2514766 156.522913,72.3736771 158.383721,65.3956835 L138.662791,65.3956835" id="Fill-423" fill="#414141"></path>
                <path d="M121.101262,90 C114.13255,90 108.465116,82.0111579 108.465116,72.1953836 C108.465116,62.3750533 114.13255,54.3884892 121.101262,54.3884892 C128.066741,54.3884892 133.732558,62.3750533 133.732558,72.1953836 C133.732558,82.0111579 128.066741,90 121.101262,90 Z M121.101262,62.785088 C117.417269,62.785088 114.420286,67.0061671 114.420286,72.1953836 C114.420286,77.3823221 117.417269,81.6011232 121.101262,81.6011232 C124.782022,81.6011232 127.777389,77.3823221 127.777389,72.1953836 C127.777389,67.0061671 124.782022,62.785088 121.101262,62.785088 Z" id="Fill-424" fill="#414141"></path>
                <path d="M9.6541533,31.7266187 L11.7093023,33.8297309 L7.51621391,47.9002877 L4.93023256,47.9136691 C5.05847645,41.5842603 6.84415096,35.6986684 9.6541533,31.7266187" id="Fill-425" fill="#414141"></path>
            </g>
        </g>
        <g id="numberCircle" transform="translate(109.000000, 230.000000)">
            <circle id="Oval" stroke="#FFFFFF" stroke-width="3" fill="#1E5494" fill-rule="nonzero" cx="19.5" cy="20.5" r="21"></circle>
            <text id="1" font-family="Basic-Regular, Basic" font-size="32" font-weight="normal" fill="#FFFFFF">
                <tspan x="14.3984375" y="30">1</tspan>
            </text>
        </g>
        <g id="numberCircle" transform="translate(176.000000, 133.000000)">
            <circle id="Oval" stroke="#FFFFFF" stroke-width="3" fill="#1E5494" fill-rule="nonzero" cx="19.5" cy="20.5" r="21"></circle>
            <text id="1" font-family="Basic-Regular, Basic" font-size="32" font-weight="normal" fill="#FFFFFF">
                <tspan x="12.4921875" y="30">2</tspan>
            </text>
        </g>
        <g id="numberCircle" transform="translate(233.000000, 133.000000)">
            <circle id="Oval" stroke="#FFFFFF" stroke-width="3" fill="#1E5494" fill-rule="nonzero" cx="19.5" cy="20.5" r="21"></circle>
            <text id="1" font-family="Basic-Regular, Basic" font-size="32" font-weight="normal" fill="#FFFFFF">
                <tspan x="12.1015625" y="30">3</tspan>
            </text>
        </g>
        <g id="numberCircle" transform="translate(260.000000, 230.000000)">
            <circle id="Oval" stroke="#FFFFFF" stroke-width="3" fill="#1E5494" fill-rule="nonzero" cx="19.5" cy="20.5" r="21"></circle>
            <text id="1" font-family="Basic-Regular, Basic" font-size="32" font-weight="normal" fill="#FFFFFF">
                <tspan x="11.390625" y="30">4</tspan>
            </text>
        </g>
        <g id="numberCircle" transform="translate(310.000000, 230.000000)">
            <circle id="Oval" stroke="#FFFFFF" stroke-width="3" fill="#1E5494" fill-rule="nonzero" cx="19.5" cy="20.5" r="21"></circle>
            <text id="1" font-family="Basic-Regular, Basic" font-size="32" font-weight="normal" fill="#FFFFFF">
                <tspan x="12.2421875" y="30">5</tspan>
            </text>
        </g>
        <g id="numberCircle" transform="translate(383.000000, 133.000000)">
            <circle id="Oval" stroke="#FFFFFF" stroke-width="3" fill="#1E5494" fill-rule="nonzero" cx="19.5" cy="20.5" r="21"></circle>
            <text id="1" font-family="Basic-Regular, Basic" font-size="32" font-weight="normal" fill="#FFFFFF">
                <tspan x="10.8671875" y="30">6</tspan>
            </text>
        </g>
        <g id="numberCircle" transform="translate(444.000000, 133.000000)">
            <circle id="Oval" stroke="#FFFFFF" stroke-width="3" fill="#1E5494" fill-rule="nonzero" cx="19.5" cy="20.5" r="21"></circle>
            <text id="1" font-family="Basic-Regular, Basic" font-size="32" font-weight="normal" fill="#FFFFFF">
                <tspan x="12.3046875" y="30">7</tspan>
            </text>
        </g>
        <g id="numberCircle" transform="translate(462.000000, 230.000000)">
            <circle id="Oval" stroke="#FFFFFF" stroke-width="3" fill="#1E5494" fill-rule="nonzero" cx="19.5" cy="20.5" r="21"></circle>
            <text id="1" font-family="Basic-Regular, Basic" font-size="32" font-weight="normal" fill="#FFFFFF">
                <tspan x="10.9609375" y="30">8</tspan>
            </text>
        </g>
    </g>
</svg>