<?xml version="1.0" encoding="UTF-8"?>
<svg width="398px" height="301px" viewBox="0 0 398 301" version="1.1" xmlns="http://www.w3.org/2000/svg" xmlns:xlink="http://www.w3.org/1999/xlink">
    <!-- Generator: Sketch 51.2 (57519) - http://www.bohemiancoding.com/sketch -->
    <title>flipCarSpacing</title>
    <desc>Created with Sketch.</desc>
    <defs></defs>
    <g id="flipCarSpacing" stroke="none" stroke-width="1" fill="none" fill-rule="evenodd">
        <g id="Group-2" transform="translate(-351.000000, -10.000000)" opacity="0.419921875" stroke="#000000">
            <g id="Oct2-Copy">
                <path d="M450.087238,-2.84217094e-14 L486,-2.84217094e-14 L486,205.480575 L486,292 C486,297.522847 481.522847,302 476,302 L430.205776,302 C424.682929,302 420.205776,297.522847 420.205776,292 L420.205776,205.480575 L450.087238,205.480575 L450.087238,-2.84217094e-14 Z" id="B"></path>
                <path d="M370.24369,-2.84217094e-14 L402.087784,-2.84217094e-14 L402.087784,205.480575 L415.819495,205.480575 L415.819495,292 C415.819495,297.522847 411.342342,302 405.819495,302 L360.025271,302 C354.502423,302 350.025271,297.522847 350.025271,292 L350.025271,205.480575 L370.24369,205.480575 L370.24369,-2.84217094e-14 Z" id="A"></path>
                <path d="M326.83935,0.5 L326.83935,194.552326 C326.83935,199.799031 331.092645,204.052326 336.33935,204.052326 L356.693141,204.052326 C361.939846,204.052326 366.193141,199.799031 366.193141,194.552326 L366.193141,0.5 L326.83935,0.5 Z" id="Ab" fill="#000000"></path>
                <path d="M406.669675,0.5 L406.669675,194.552326 C406.669675,199.799031 410.92297,204.052326 416.169675,204.052326 L436.523466,204.052326 C441.770171,204.052326 446.023466,199.799031 446.023466,194.552326 L446.023466,0.5 L406.669675,0.5 Z" id="Bb" fill="#000000"></path>
            </g>
            <g id="Oct2-Copy" transform="translate(490.000000, 0.000000)">
                <path d="M0,0 L36.2460645,0 L36.2460645,205.480575 L65.7942238,205.480575 L65.7942238,292 C65.7942238,297.522847 61.3170713,302 55.7942238,302 L10,302 C4.4771525,302 4.22906743e-15,297.522847 3.55271368e-15,292 L0,0 Z" id="C"></path>
                <path d="M83.8777277,-2.84217094e-14 L123.76152,-2.84217094e-14 L123.76152,205.480575 L135.974729,205.480575 L135.974729,292 C135.974729,297.522847 131.497577,302 125.974729,302 L80.1805054,302 C74.6576579,302 70.1805054,297.522847 70.1805054,292 L70.1805054,205.480575 L83.8777277,205.480575 L83.8777277,-2.84217094e-14 Z" id="D"></path>
                <path d="M170.242473,-2.84217094e-14 L206.155235,-2.84217094e-14 L206.155235,205.480575 L206.155235,292 C206.155235,297.522847 201.678082,302 196.155235,302 L150.361011,302 C144.838163,302 140.361011,297.522847 140.361011,292 L140.361011,205.480575 L170.242473,205.480575 L170.242473,-2.84217094e-14 Z" id="E"></path>
                <path d="M244.645683,0 L210.541516,0 L210.541516,205.480575 L210.541516,292 C210.541516,297.522847 215.018669,302 220.541516,302 L266.33574,302 C271.858588,302 276.33574,297.522847 276.33574,292 L276.33574,205.480575 L244.645683,205.480575 L244.645683,0 Z" id="F"></path>
                <path d="M39.9765343,0.5 L39.9765343,194.552326 C39.9765343,199.799031 44.2298292,204.052326 49.4765343,204.052326 L69.8303249,204.052326 C75.07703,204.052326 79.3303249,199.799031 79.3303249,194.552326 L79.3303249,0.5 L39.9765343,0.5 Z" id="Db" fill="#000000"></path>
                <path d="M127.702166,0.5 L127.702166,194.552326 C127.702166,199.799031 131.955461,204.052326 137.202166,204.052326 L157.555957,204.052326 C162.802662,204.052326 167.055957,199.799031 167.055957,194.552326 L167.055957,0.5 L127.702166,0.5 Z" id="Eb" fill="#000000"></path>
                <path d="M247.886282,0.5 L247.886282,194.552326 C247.886282,199.799031 252.139576,204.052326 257.386282,204.052326 L277.740072,204.052326 C282.986777,204.052326 287.240072,199.799031 287.240072,194.552326 L287.240072,0.5 L247.886282,0.5 Z" id="Gb" fill="#000000"></path>
            </g>
        </g>
        <rect id="Rectangle-2" stroke="#7ED321" stroke-width="2" fill-opacity="0.3" fill="#FFFFFF" fill-rule="nonzero" x="50" y="44" width="269" height="57" rx="8"></rect>
        <text id="❶-copy" font-family="Lato-Bold, Lato" font-size="24" font-weight="bold" fill="#000000">
            <tspan x="64" y="79">❶</tspan>
        </text>
        <text id="❷-copy" font-family="Lato-Bold, Lato" font-size="24" font-weight="bold" fill="#000000">
            <tspan x="146" y="79">❷</tspan>
        </text>
        <text id="❸-copy" font-family="Lato-Bold, Lato" font-size="24" font-weight="bold" fill="#000000">
            <tspan x="231" y="79">❸</tspan>
        </text>
        <g id="Group-3" transform="translate(181.500000, 201.000000) scale(1, -1) translate(-181.500000, -201.000000) translate(60.000000, 143.000000)" fill="#000000" font-family="Lato-Bold, Lato" font-size="24" font-weight="bold">
            <text id="❶" transform="translate(13.500000, 101.500000) scale(1, -1) translate(-13.500000, -101.500000) ">
                <tspan x="0" y="111">❶</tspan>
            </text>
            <text id="❷" transform="translate(109.500000, 14.500000) scale(1, -1) translate(-109.500000, -14.500000) ">
                <tspan x="96" y="24">❷</tspan>
            </text>
            <text id="❸" transform="translate(183.500000, 14.500000) scale(1, -1) translate(-183.500000, -14.500000) ">
                <tspan x="170" y="24">❸</tspan>
            </text>
            <text id="❹" transform="translate(229.500000, 101.500000) scale(1, -1) translate(-229.500000, -101.500000) ">
                <tspan x="216" y="111">❹</tspan>
            </text>
        </g>
        <text id="❹-copy" font-family="Lato-Bold, Lato" font-size="24" font-weight="bold" fill="#000000">
            <tspan x="274" y="79">❹</tspan>
        </text>
        <text id="⊗" font-family="AppleSymbols, Apple Symbols" font-size="46" font-weight="normal" fill="#D0021B">
            <tspan x="102.137207" y="85">⊗</tspan>
        </text>
        <text id="⊗-copy" font-family="AppleSymbols, Apple Symbols" font-size="46" font-weight="normal" fill="#D0021B">
            <tspan x="183.137207" y="85">⊗</tspan>
        </text>
        <g id="Group" transform="translate(180.000000, 216.000000) scale(1, -1) translate(-180.000000, -216.000000) translate(56.000000, 156.000000)" opacity="0.3">
            <g id="CAR">
                <path d="M247.989805,76.5978148 C247.989805,73.4958465 248.333878,67.4509852 242.976538,62.4676456 C235.977843,55.9608541 221.169971,43.4061422 187.19852,33.7698501 C159.06866,15.5924383 134.659884,0 105.23784,0 C64.6525461,0 43.286902,14.6196316 27.6838395,25.2899131 C25.4537382,26.8194833 23.3255845,28.2786932 21.2509532,29.6094193 C21.1795899,29.6583655 21.1235188,29.7256666 21.0547043,29.7715537 L18.7685319,29.7715537 C13.041632,29.7715537 10.63822,33.9319846 12.006865,39.0743995 C6.61639176,45.7310888 3.39230255,55.3092572 3.16037203,65.3401783 L3.15272596,65.7592806 C0.810482503,67.3775658 0.0662658651,70.7303836 0,74.6001961 L0.0254868712,79.4244604 L21.6587431,79.4244604 C26.539479,71.0760665 34.6060737,65.6032644 43.7456657,65.6032644 C44.3548019,65.6032644 44.9460973,65.6705655 45.5424901,65.7103343 C44.3140229,62.085253 43.6513643,57.9554136 43.6513643,53.3850579 L43.6513643,43.0788142 L35.1260059,33.1824952 C49.1182981,23.6899827 66.6940445,12.9401636 97.8491958,11.4595397 L97.864488,43.6325186 L50.8743436,43.6447551 L50.8743436,53.3850579 C50.8743436,59.1148278 52.1690766,66.7443238 58.3343508,70.5927223 L58.2731823,70.7303836 C61.2424028,73.0125023 63.8089307,75.970691 65.8325883,79.4244604 L107.174842,79.4244604 L107.174842,46.0431211 L107.2564,46.0431211 L107.241108,11.3463515 C130.37809,11.9795935 150.956189,23.4146601 173.563044,37.7956788 L173.578336,37.844625 C173.578336,40.1267437 173.848497,43.6111046 167.983968,43.6111046 L114.402919,43.6264003 L114.402919,79.4244604 L168.493705,79.4244604 C173.37699,71.0760665 181.441036,65.6032644 190.580628,65.6032644 C199.72022,65.6032644 207.784266,71.0760665 212.66755,79.4244604 L248,79.4244604 L247.989805,76.5978148" id="Fill-418" fill="#2BA046"></path>
                <path d="M238.387597,64.7482014 C238.387597,64.7482014 235.077698,64.7482014 229.187284,64.7482014 C221.382863,64.7482014 218.960801,63.8697179 214.951698,61.0853203 C208.392263,56.5317967 206.505922,55.2855052 199.83079,50.0419617 C195.45951,46.5979415 196.508315,42.4122259 201.168835,43.2815902 C214.131769,45.6738619 234.262798,60.1065255 238.387597,64.7482014" id="Fill-419" fill="#414141"></path>
                <path d="M43.7402156,120 C32.8721681,120 24.0310078,109.348211 24.0310078,96.2605115 C24.0310078,83.1667378 32.8721681,72.5179856 43.7402156,72.5179856 C54.6032211,72.5179856 63.4418605,83.1667378 63.4418605,96.2605115 C63.4418605,109.348211 54.6032211,120 43.7402156,120 Z M43.7402156,83.7134507 C37.9948479,83.7134507 33.3234278,89.3415561 33.3234278,96.2605115 C33.3234278,103.176429 37.9948479,108.801498 43.7402156,108.801498 C49.4805413,108.801498 54.1519614,103.176429 54.1519614,96.2605115 C54.1519614,89.3415561 49.4805413,83.7134507 43.7402156,83.7134507 Z" id="Fill-420" fill="#414141"></path>
                <path d="M70.1705426,87.1942446 C71.0064406,90.1747053 71.4663115,93.3507496 71.4663115,96.6464793 L71.4663115,106.942351 L164.040105,107.05036 L164.040105,96.6464793 C164.040105,93.3507496 164.499976,90.1747053 165.333333,87.1942446 L70.1705426,87.1942446" id="Fill-421" fill="#414141"></path>
                <path d="M16.948672,97.1688947 C16.948672,93.6910133 17.4171676,90.3394323 18.2635659,87.1942446 L0,87.1942446 L0.0129418693,89.8219088 C0.279544376,93.9312921 2.74885303,95.7487854 4.87131959,96.6020832 C6.43987414,97.2335851 11.3991984,99.0264345 16.948672,101.007194 L16.948672,97.1688947" id="Fill-422" fill="#414141"></path>
                <path d="M216.27907,87.1942446 C217.121201,90.1786541 217.589911,93.3589063 217.589911,96.6590025 L217.589911,107.05036 C219.670774,106.816518 225.601749,106.068223 235.49615,104.241332 C242.189421,103.001969 244.136368,96.4982361 247.03876,87.1942446 L216.27907,87.1942446" id="Fill-423" fill="#414141"></path>
                <path d="M188.887503,120 C178.018065,120 169.178295,109.348211 169.178295,96.2605115 C169.178295,83.1667378 178.018065,72.5179856 188.887503,72.5179856 C199.751898,72.5179856 208.589147,83.1667378 208.589147,96.2605115 C208.589147,109.348211 199.751898,120 188.887503,120 Z M188.887503,83.7134507 C183.1414,83.7134507 178.466861,89.3415561 178.466861,96.2605115 C178.466861,103.176429 183.1414,108.801498 188.887503,108.801498 C194.628563,108.801498 199.300581,103.176429 199.300581,96.2605115 C199.300581,89.3415561 194.628563,83.7134507 188.887503,83.7134507 Z" id="Fill-424" fill="#414141"></path>
                <path d="M15.0580504,42.3021583 L18.2635659,45.1063079 L11.7234028,63.8670502 L7.68992248,63.8848921 C7.8899507,55.4456804 10.6751537,47.5982245 15.0580504,42.3021583" id="Fill-425" fill="#414141"></path>
            </g>
        </g>
        <text id="✘" font-family="ZapfDingbatsITC, Zapf Dingbats" font-size="46" font-weight="normal" fill="#4A90E2">
            <tspan x="87.4345703" y="261">✘</tspan>
        </text>
    </g>
</svg>