<?xml version="1.0" encoding="UTF-8"?>
<svg width="305px" height="150px" viewBox="0 0 305 150" version="1.1" xmlns="http://www.w3.org/2000/svg" xmlns:xlink="http://www.w3.org/1999/xlink">
    <!-- Generator: Sketch 51.2 (57519) - http://www.bohemiancoding.com/sketch -->
    <title>FlipCarDots</title>
    <desc>Created with Sketch.</desc>
    <defs></defs>
    <g id="FlipCarDots" stroke="none" stroke-width="1" fill="none" fill-rule="evenodd">
        <g id="Group-5" transform="translate(145.500000, 75.500000) scale(1, -1) translate(-145.500000, -75.500000) translate(16.000000, 19.000000)">
            <g id="Group-4" transform="translate(13.500000, 98.500000) scale(1, -1) translate(-13.500000, -98.500000) translate(0.000000, 84.000000)">
                <circle id="Oval-Copy-3" fill="#B8E986" cx="13.5" cy="15.5" r="12.5"></circle>
                <text id="❶" font-family="Lato-Bold, Lato" font-size="24" font-weight="bold" fill="#000000">
                    <tspan x="0" y="24">❶</tspan>
                </text>
            </g>
            <g id="Group" transform="translate(105.500000, 14.500000) scale(1, -1) translate(-105.500000, -14.500000) translate(92.000000, 0.000000)">
                <circle id="Oval-Copy" fill="#B8E986" cx="13.5" cy="16.5" r="12.5"></circle>
                <text id="❷" font-family="Lato-Bold, Lato" font-size="24" font-weight="bold" fill="#000000">
                    <tspan x="0" y="24">❷</tspan>
                </text>
            </g>
            <g id="Group-2" transform="translate(192.500000, 14.500000) scale(1, -1) translate(-192.500000, -14.500000) translate(179.000000, 0.000000)">
                <circle id="Oval-Copy-2" fill="#B8E986" cx="13.5" cy="16.5" r="12.5"></circle>
                <text id="❸" font-family="Lato-Bold, Lato" font-size="24" font-weight="bold" fill="#000000">
                    <tspan x="0" y="24">❸</tspan>
                </text>
            </g>
            <g id="Group-3" transform="translate(245.500000, 94.500000) scale(1, -1) translate(-245.500000, -94.500000) translate(232.000000, 80.000000)">
                <circle id="Oval-Copy-3" fill="#B8E986" cx="13.5" cy="16.5" r="12.5"></circle>
                <text id="❹" font-family="Lato-Bold, Lato" font-size="24" font-weight="bold" fill="#000000">
                    <tspan x="0" y="24">❹</tspan>
                </text>
            </g>
        </g>
    </g>
</svg>