<?xml version="1.0" encoding="UTF-8"?>
<svg width="305px" height="150px" viewBox="0 0 305 150" version="1.1" xmlns="http://www.w3.org/2000/svg" xmlns:xlink="http://www.w3.org/1999/xlink">
    <!-- Generator: Sketch 51.2 (57519) - http://www.bohemiancoding.com/sketch -->
    <title>FlipTruckDots</title>
    <desc>Created with Sketch.</desc>
    <defs></defs>
    <g id="FlipTruckDots" stroke="none" stroke-width="1" fill="none" fill-rule="evenodd">
        <g id="Group-5" transform="translate(147.000000, 72.500000) scale(1, -1) translate(-147.000000, -72.500000) translate(20.000000, 17.000000)">
            <g id="Group-3" transform="translate(13.500000, 96.500000) scale(1, -1) translate(-13.500000, -96.500000) translate(0.000000, 82.000000)">
                <circle id="Oval" fill="#4A90E2" cx="12" cy="14" r="10"></circle>
                <text id="❶" font-family="Lato-Bold, Lato" font-size="24" font-weight="bold" fill="#000000">
                    <tspan x="0" y="24">❶</tspan>
                </text>
            </g>
            <g id="Group-2" transform="translate(100.500000, 95.500000) scale(1, -1) translate(-100.500000, -95.500000) translate(87.000000, 81.000000)">
                <circle id="Oval-Copy" fill="#4A90E2" cx="12" cy="15" r="10"></circle>
                <text id="❷" font-family="Lato-Bold, Lato" font-size="24" font-weight="bold" fill="#000000">
                    <tspan x="0" y="24">❷</tspan>
                </text>
            </g>
            <g id="Group" transform="translate(191.500000, 14.500000) scale(1, -1) translate(-191.500000, -14.500000) translate(178.000000, 0.000000)">
                <circle id="Oval-Copy-2" fill="#4A90E2" cx="14" cy="16" r="10"></circle>
                <text id="❸" font-family="Lato-Bold, Lato" font-size="24" font-weight="bold" fill="#000000">
                    <tspan x="0" y="24">❸</tspan>
                </text>
            </g>
            <g id="Group-4" transform="translate(240.500000, 95.500000) scale(1, -1) translate(-240.500000, -95.500000) translate(227.000000, 81.000000)">
                <circle id="Oval-Copy-3" fill="#4A90E2" cx="12" cy="15" r="10"></circle>
                <text id="❹" font-family="Lato-Bold, Lato" font-size="24" font-weight="bold" fill="#000000">
                    <tspan x="0" y="24">❹</tspan>
                </text>
            </g>
        </g>
    </g>
</svg>