<?xml version="1.0" encoding="UTF-8"?>
<svg width="305px" height="150px" viewBox="0 0 305 150" version="1.1" xmlns="http://www.w3.org/2000/svg" xmlns:xlink="http://www.w3.org/1999/xlink">
    <!-- Generator: Sketch 51.3 (57544) - http://www.bohemiancoding.com/sketch -->
    <title>FlipTruck</title>
    <desc>Created with Sketch.</desc>
    <defs></defs>
    <g id="FlipTruck" stroke="none" stroke-width="1" fill="none" fill-rule="evenodd">
        <g id="TRUCK" opacity="0.3" transform="translate(151.500000, 72.000000) scale(1, -1) translate(-151.500000, -72.000000) translate(5.000000, 10.000000)">
            <path d="M186.378084,0 C186.378084,0 201.200389,0.0196427083 211.12709,0.0196427083 C221.048677,0.0196427083 224.558685,8.65682216 224.558685,8.65682216 L233.59574,32.6068958 C274.959123,36.6392632 281.334913,51.4919568 281.334913,51.4919568 L281.380929,70.8736977 C288.060936,78.8570555 292.345548,89.3630984 293,101 L277.106542,101 C275.743954,85.8077682 264.03285,73.8930625 249.839432,73.8930625 C235.643458,73.8930625 223.934911,85.8077682 222.572322,101 L205.955389,101 C206.53826,90.5613036 210.178646,81.0373962 215.861638,73.4160253 L186.378084,73.4160253 L186.378084,0 Z M195.333333,33.055872 L224.070403,33.055872 L216.424057,12.7986275 C215.976678,11.9539911 214.516944,9.85222127 211.12709,9.85222127 C206.264719,9.85222127 200.231494,9.84941516 195.333333,9.84380296 L195.333333,33.055872 Z M0,65.3709332 L0,92.0260884 L6.18149932,92.0878226 C9.0242732,84.8789487 14.3544742,79.1292474 20.985909,76.1463618 C23.1972394,75.153002 28.6654888,73.407607 33.8244076,73.407607 L179.102424,73.407607 L179.102424,65.3709332 L0,65.3709332 Z" id="Fill-347" fill="#7785FF"></path>
            <path d="M250.530139,124 C239.242757,124 230.057727,113.683181 230.057727,100.998567 C230.057727,88.3196859 239.242757,78 250.530139,78 C261.817521,78 271,88.3196859 271,100.998567 C271,113.683181 261.817521,124 250.530139,124 Z M250.530139,113.958372 C256.888221,113.958372 262.059904,108.144949 262.059904,100.998567 C262.059904,93.8579174 256.888221,88.0444943 250.530139,88.0444943 C244.172057,88.0444943 238.997823,93.8579174 238.997823,100.998567 C238.997823,108.144949 244.172057,113.958372 250.530139,113.958372 Z M32.469861,124 C21.1824791,124 12,113.683181 12,100.998567 C12,88.3196859 21.1824791,78 32.469861,78 C43.7623457,78 52.9448248,88.3196859 52.9448248,100.998567 C52.9448248,113.683181 43.7623457,124 32.469861,124 Z M32.469861,113.958372 C38.8279432,113.958372 43.9996257,108.144949 43.9996257,100.998567 C43.9996257,93.8579174 38.8279432,88.0444943 32.469861,88.0444943 C26.1117788,88.0444943 20.9375449,93.8579174 20.9375449,100.998567 C20.9375449,108.144949 26.1117788,113.958372 32.469861,113.958372 Z M93.718706,124 C82.4313241,124 73.2462936,113.683181 73.2462936,100.998567 C73.2462936,88.3196859 82.4313241,78 93.718706,78 C105.006088,78 114.188567,88.3196859 114.188567,100.998567 C114.188567,113.683181 105.006088,124 93.718706,124 Z M93.718706,113.958372 C100.076788,113.958372 105.248471,108.144949 105.248471,100.998567 C105.248471,93.8579174 100.076788,88.0444943 93.718706,88.0444943 C87.3606238,88.0444943 82.1863899,93.8579174 82.1863899,100.998567 C82.1863899,108.144949 87.3606238,113.958372 93.718706,113.958372 Z M203.732409,78 L112.320944,78 C117.268104,83.0595127 120.60278,90.071166 121.284003,97.9657257 L199.560874,97.9657257 C199.890004,90.8996074 201.321338,84.1660123 203.732409,78 Z M51.0720991,78 C56.0192586,83.0595127 59.353935,90.071166 60.0377095,97.9657257 L66.1508575,97.9657257 C66.834632,90.071166 70.166757,83.0595127 75.1215706,78 L51.0720991,78 Z" id="Fill-348" fill="#414141"></path>
        </g>
        <g id="Group-5" transform="translate(147.000000, 72.500000) scale(1, -1) translate(-147.000000, -72.500000) translate(20.000000, 17.000000)" fill="#000000" font-family="Lato-Bold, Lato" font-size="24" font-weight="bold">
            <g id="Group-3" transform="translate(13.500000, 96.500000) scale(1, -1) translate(-13.500000, -96.500000) translate(0.000000, 82.000000)">
                <text id="❶">
                    <tspan x="0" y="24">❶</tspan>
                </text>
            </g>
            <g id="Group-2" transform="translate(100.500000, 95.500000) scale(1, -1) translate(-100.500000, -95.500000) translate(87.000000, 81.000000)">
                <text id="❷">
                    <tspan x="0" y="24">❷</tspan>
                </text>
            </g>
            <g id="Group" transform="translate(191.500000, 14.500000) scale(1, -1) translate(-191.500000, -14.500000) translate(178.000000, 0.000000)">
                <text id="❸">
                    <tspan x="0" y="24">❸</tspan>
                </text>
            </g>
            <g id="Group-4" transform="translate(240.500000, 95.500000) scale(1, -1) translate(-240.500000, -95.500000) translate(227.000000, 81.000000)">
                <text id="❹">
                    <tspan x="0" y="24">❹</tspan>
                </text>
            </g>
        </g>
    </g>
</svg>