<?xml version="1.0" encoding="UTF-8"?>
<svg width="423px" height="301px" viewBox="0 0 423 301" version="1.1" xmlns="http://www.w3.org/2000/svg" xmlns:xlink="http://www.w3.org/1999/xlink">
    <!-- Generator: Sketch 51.2 (57519) - http://www.bohemiancoding.com/sketch -->
    <title>keyboardSpacing</title>
    <desc>Created with Sketch.</desc>
    <defs></defs>
    <g id="keyboardSpacing" stroke="none" stroke-width="1" fill="none" fill-rule="evenodd">
        <g id="Oct2-Copy" opacity="0.419921875" transform="translate(25.000000, -56.000000)" stroke="#000000">
            <path d="M0,0 L41.3175303,0 L41.3175303,234.057344 L75,234.057344 L75,334 C75,339.522847 70.5228475,344 65,344 L10,344 C4.4771525,344 -2.87635993e-15,339.522847 -3.55271368e-15,334 L0,0 Z" id="C"></path>
            <path d="M95.6137061,-2.84217094e-14 L141.077947,-2.84217094e-14 L141.077947,234.057344 L155,234.057344 L155,334 C155,339.522847 150.522847,344 145,344 L90,344 C84.4771525,344 80,339.522847 80,334 L80,234.057344 L95.6137061,234.057344 L95.6137061,-2.84217094e-14 Z" id="D"></path>
            <path d="M194.062407,-2.84217094e-14 L235,-2.84217094e-14 L235,234.057344 L235,334 C235,339.522847 230.522847,344 225,344 L170,344 C164.477153,344 160,339.522847 160,334 L160,234.057344 L194.062407,234.057344 L194.062407,-2.84217094e-14 Z" id="E"></path>
            <path d="M278.875944,0 L240,0 L240,234.057344 L240,334 C240,339.522847 244.477153,344 250,344 L305,344 C310.522847,344 315,339.522847 315,334 L315,234.057344 L278.875944,234.057344 L278.875944,0 Z" id="F"></path>
            <path d="M330.598973,-2.84217094e-14 L368.80668,-2.84217094e-14 L368.80668,234.057344 L394,234.057344 L394,334 C394,339.522847 389.522847,344 384,344 L329,344 C323.477153,344 319,339.522847 319,334 L319,234.057344 L330.598973,234.057344 L330.598973,-2.84217094e-14 Z" id="G"></path>
            <path d="M45.5,0.5 L45.5,223 C45.5,228.246705 49.7532949,232.5 55,232.5 L81,232.5 C86.2467051,232.5 90.5,228.246705 90.5,223 L90.5,0.5 L45.5,0.5 Z" id="Db" fill="#000000"></path>
            <path d="M145.5,0.5 L145.5,223 C145.5,228.246705 149.753295,232.5 155,232.5 L181,232.5 C186.246705,232.5 190.5,228.246705 190.5,223 L190.5,0.5 L145.5,0.5 Z" id="Eb" fill="#000000"></path>
            <path d="M282.5,0.5 L282.5,223 C282.5,228.246705 286.753295,232.5 292,232.5 L318,232.5 C323.246705,232.5 327.5,228.246705 327.5,223 L327.5,0.5 L282.5,0.5 Z" id="Gb" fill="#000000"></path>
            <path d="M372.5,0.5 L372.5,223 C372.5,228.246705 376.753295,232.5 382,232.5 L408,232.5 C413.246705,232.5 417.5,228.246705 417.5,223 L417.5,0.5 L372.5,0.5 Z" id="Ab" fill="#000000"></path>
        </g>
        <rect id="Rectangle-2" stroke="#7ED321" stroke-width="2" fill-opacity="0.7" fill="#FFFFFF" fill-rule="nonzero" x="16" y="51" width="305" height="57" rx="8"></rect>
        <text id="❶" font-family="Lato-Bold, Lato" font-size="24" font-weight="bold" fill="#000000">
            <tspan x="49" y="254">❶</tspan>
        </text>
        <text id="❶-copy" font-family="Lato-Bold, Lato" font-size="24" font-weight="bold" fill="#000000">
            <tspan x="35" y="87">❶</tspan>
        </text>
        <text id="❷" font-family="Lato-Bold, Lato" font-size="24" font-weight="bold" fill="#000000">
            <tspan x="129" y="254">❷</tspan>
        </text>
        <text id="❷-copy" font-family="Lato-Bold, Lato" font-size="24" font-weight="bold" fill="#000000">
            <tspan x="132" y="87">❷</tspan>
        </text>
        <text id="❸" font-family="Lato-Bold, Lato" font-size="24" font-weight="bold" fill="#000000">
            <tspan x="210" y="254">❸</tspan>
        </text>
        <text id="❸-copy" font-family="Lato-Bold, Lato" font-size="24" font-weight="bold" fill="#000000">
            <tspan x="224" y="87">❸</tspan>
        </text>
        <text id="❹" font-family="Lato-Bold, Lato" font-size="24" font-weight="bold" fill="#000000">
            <tspan x="288" y="254">❹</tspan>
        </text>
        <text id="❹-copy" font-family="Lato-Bold, Lato" font-size="24" font-weight="bold" fill="#000000">
            <tspan x="272" y="87">❹</tspan>
        </text>
        <text id="⊗" font-family="AppleSymbols, Apple Symbols" font-size="46" font-weight="normal" fill="#D0021B">
            <tspan x="76.137207" y="93">⊗</tspan>
        </text>
        <text id="⊗-copy" font-family="AppleSymbols, Apple Symbols" font-size="46" font-weight="normal" fill="#D0021B">
            <tspan x="177.137207" y="93">⊗</tspan>
        </text>
    </g>
</svg>