<?xml version="1.0" encoding="UTF-8"?>
<svg width="223px" height="190px" viewBox="0 0 223 190" version="1.1" xmlns="http://www.w3.org/2000/svg" xmlns:xlink="http://www.w3.org/1999/xlink">
    <!-- Generator: Sketch 51.2 (57519) - http://www.bohemiancoding.com/sketch -->
    <title>keyboardSpacing</title>
    <desc>Created with Sketch.</desc>
    <defs></defs>
    <g id="keyboardSpacing" stroke="none" stroke-width="1" fill="none" fill-rule="evenodd">
        <g id="Oct1-Copy" transform="translate(0.000000, -110.000000)" stroke="#000000">
            <path d="M0,0 L25.9914219,0 L25.9914219,203.473828 L47.1798926,203.473828 L47.1798926,289.050633 C47.1798926,294.57348 42.7027401,299.050633 37.1798926,299.050633 L10,299.050633 C4.4771525,299.050633 -1.10000309e-15,294.57348 -1.77635684e-15,289.050633 L0,0 Z" id="C" fill="#FFFFFF"></path>
            <path d="M60.1472584,-2.84217094e-14 L88.7472315,-2.84217094e-14 L88.7472315,203.473828 L97.5051113,203.473828 L97.5051113,289.050633 C97.5051113,294.57348 93.0279588,299.050633 87.5051113,299.050633 L60.3252187,299.050633 C54.8023712,299.050633 50.3252187,294.57348 50.3252187,289.050633 L50.3252187,203.473828 L60.1472584,203.473828 L60.1472584,-2.84217094e-14 Z" id="D" fill="#FFFFFF"></path>
            <path d="M122.077914,-2.84217094e-14 L147.83033,-2.84217094e-14 L147.83033,203.473828 L147.83033,289.050633 C147.83033,294.57348 143.353178,299.050633 137.83033,299.050633 L110.650437,299.050633 C105.12759,299.050633 100.650437,294.57348 100.650437,289.050633 L100.650437,203.473828 L122.077914,203.473828 L122.077914,-2.84217094e-14 Z" id="E" fill="#FFFFFF"></path>
            <path d="M175.431161,0 L150.975656,0 L150.975656,203.473828 L150.975656,289.050633 C150.975656,294.57348 155.452809,299.050633 160.975656,299.050633 L188.155549,299.050633 C193.678396,299.050633 198.155549,294.57348 198.155549,289.050633 L198.155549,203.473828 L175.431161,203.473828 L175.431161,0 Z" id="F" fill="#FFFFFF"></path>
            <path d="M207.968321,-2.84217094e-14 L232.00346,-2.84217094e-14 L232.00346,203.473828 L247.851702,203.473828 L247.851702,289.050633 C247.851702,294.57348 243.37455,299.050633 237.851702,299.050633 L210.67181,299.050633 C205.148962,299.050633 200.67181,294.57348 200.67181,289.050633 L200.67181,203.473828 L207.968321,203.473828 L207.968321,-2.84217094e-14 Z" id="G" fill="#FFFFFF"></path>
            <path d="M28.8079355,0.5 L28.8079355,197.158228 C28.8079355,199.643509 30.8226542,201.658228 33.3079355,201.658228 L52.2449363,201.658228 C54.7302177,201.658228 56.7449363,199.643509 56.7449363,197.158228 L56.7449363,0.5 L28.8079355,0.5 Z" id="Db" fill="#000000"></path>
            <path d="M91.714459,0.5 L91.714459,197.158228 C91.714459,199.643509 93.7291776,201.658228 96.214459,201.658228 L115.15146,201.658228 C117.636741,201.658228 119.65146,199.643509 119.65146,197.158228 L119.65146,0.5 L91.714459,0.5 Z" id="Eb" fill="#000000"></path>
            <path d="M177.896396,0.5 L177.896396,197.158228 C177.896396,199.643509 179.911115,201.658228 182.396396,201.658228 L201.333397,201.658228 C203.818678,201.658228 205.833397,199.643509 205.833397,197.158228 L205.833397,0.5 L177.896396,0.5 Z" id="Gb" fill="#000000"></path>
        </g>
        <circle id="Oval" stroke="#000000" stroke-width="5" fill="#F8E71C" cx="23.5" cy="146.5" r="12.5"></circle>
        <circle id="Oval-Copy" stroke="#000000" stroke-width="5" fill="#F8E71C" cx="75.5" cy="146.5" r="12.5"></circle>
        <circle id="Oval-Copy-2" stroke="#000000" stroke-width="5" fill="#F8E71C" cx="124.5" cy="146.5" r="12.5"></circle>
        <circle id="Oval-Copy-3" stroke="#000000" stroke-width="5" fill="#F8E71C" cx="174.5" cy="146.5" r="12.5"></circle>
        <g id="Group" transform="translate(26.000000, 46.000000)">
            <rect id="Rectangle" stroke="#979797" fill="#FFFFFF" fill-rule="nonzero" x="104.5" y="46.5" width="39" height="37"></rect>
            <text id="key" font-family="Lato-Bold, Lato" font-size="16" font-weight="bold" fill="#4A90E2">
                <tspan x="5" y="16">key</tspan>
            </text>
            <text id="key-copy" font-family="Lato-Bold, Lato" font-size="16" font-weight="bold" fill="#4A90E2">
                <tspan x="67" y="16">key</tspan>
            </text>
            <text id="no-key" font-family="Lato-ExtraBold, Lato" font-size="16" font-weight="600" fill="#D0021B">
                <tspan x="113.792" y="58">no</tspan>
                <tspan x="110.236" y="77">key</tspan>
            </text>
            <path id="Line" d="M40.0757788,83.8106012 L42.015566,68.2787879 L28.8142004,72.9396834 L40.0757788,83.8106012 Z M0.970992312,84.0497119 C6.56636915,61.3277354 12.6589093,50 18.7226287,50 C23.5903981,50 29.0824788,57.2900308 34.8476426,72.004579 L35.2124424,72.935665 L37.0746144,72.2060655 L36.7098146,71.2749795 C30.6479499,55.8031553 24.7692973,48 18.7226287,48 C11.2525081,48 4.86329566,59.8793321 -0.970992312,83.5714905 L-1.21010302,84.5424828 L0.731881604,85.0207042 L0.970992312,84.0497119 Z" fill="#4A90E2" fill-rule="nonzero"></path>
            <path id="Line-Copy" d="M93.0757788,83.8106012 L95.015566,68.2787879 L81.8142004,72.9396834 L93.0757788,83.8106012 Z M53.9709923,84.0497119 C59.5663692,61.3277354 65.6589093,50 71.7226287,50 C76.5903981,50 82.0824788,57.2900308 87.8476426,72.004579 L88.2124424,72.935665 L90.0746144,72.2060655 L89.7098146,71.2749795 C83.6479499,55.8031553 77.7692973,48 71.7226287,48 C64.2525081,48 57.8632957,59.8793321 52.0290077,83.5714905 L51.789897,84.5424828 L53.7318816,85.0207042 L53.9709923,84.0497119 Z" fill="#4A90E2" fill-rule="nonzero"></path>
            <path id="Line-2" d="M144,100.5 L130,93.5 L130,107.5 L144,100.5 Z M112,101.5 L131,101.5 L132,101.5 L132,99.5 L131,99.5 L112,99.5 L111,99.5 L111,101.5 L112,101.5 Z" fill="#D0021B" fill-rule="nonzero"></path>
        </g>
    </g>
</svg>