<?xml version="1.0" encoding="UTF-8"?>
<svg width="268px" height="80px" viewBox="0 0 268 80" version="1.1" xmlns="http://www.w3.org/2000/svg" xmlns:xlink="http://www.w3.org/1999/xlink">
    <!-- Generator: Sketch 51.2 (57519) - http://www.bohemiancoding.com/sketch -->
    <title>lineSpacing</title>
    <desc>Created with Sketch.</desc>
    <defs></defs>
    <g id="lineSpacing" stroke="none" stroke-width="1" fill="none" fill-rule="evenodd">
        <path d="M19.5,64.5 L250.5,64.5" id="Path" stroke="#000000" stroke-width="5" fill="#F8E71C" opacity="0.3"></path>
        <circle id="Oval" stroke="#000000" stroke-width="5" fill="#F8E71C" cx="15.5" cy="64.5" r="12.5"></circle>
        <circle id="Oval-Copy" stroke="#000000" stroke-width="5" fill="#F8E71C" cx="110.5" cy="64.5" r="12.5"></circle>
        <circle id="Oval-Copy-2" stroke="#000000" stroke-width="5" fill="#F8E71C" cx="205.5" cy="64.5" r="12.5"></circle>
        <circle id="Oval-Copy-3" stroke="#000000" stroke-width="5" fill="#F8E71C" cx="252.5" cy="64.5" r="12.5"></circle>
        <g id="Group" transform="translate(36.000000, -5.000000)" fill="#4A90E2">
            <text id="space" font-family="Lato-ExtraBold, Lato" font-size="20" font-weight="600">
                <tspan x="0" y="20">space</tspan>
            </text>
            <path id="Line" d="M26.5,60.5 L33.5,46.5 L19.5,46.5 L26.5,60.5 Z M25.5,27.5 L25.5,47.5 L25.5,48.5 L27.5,48.5 L27.5,47.5 L27.5,27.5 L27.5,26.5 L25.5,26.5 L25.5,27.5 Z" fill-rule="nonzero"></path>
        </g>
        <g id="Group" transform="translate(131.000000, -5.000000)" fill="#4A90E2">
            <text id="space" font-family="Lato-ExtraBold, Lato" font-size="20" font-weight="600">
                <tspan x="0" y="20">space</tspan>
            </text>
            <path id="Line" d="M26.5,60.5 L33.5,46.5 L19.5,46.5 L26.5,60.5 Z M25.5,27.5 L25.5,47.5 L25.5,48.5 L27.5,48.5 L27.5,47.5 L27.5,27.5 L27.5,26.5 L25.5,26.5 L25.5,27.5 Z" fill-rule="nonzero"></path>
        </g>
        <g id="Group-Copy" transform="translate(213.000000, -5.000000)" fill="#D0021B">
            <text id="no-space" font-family="Lato-ExtraBold, Lato" font-size="12" font-weight="600">
                <tspan x="8.594" y="12">no</tspan>
                <tspan x="0.173" y="27">space</tspan>
            </text>
            <path id="Line" d="M15.5,52 L20,43 L11,43 L15.5,52 Z M15,32.5 L15,43.5 L15,44 L16,44 L16,43.5 L16,32.5 L16,32 L15,32 L15,32.5 Z" fill-rule="nonzero"></path>
        </g>
        <text id="1" font-family="Lato-Bold, Lato" font-size="14" font-weight="bold" fill="#000000">
            <tspan x="11" y="69">1</tspan>
        </text>
        <text id="2" font-family="Lato-Bold, Lato" font-size="14" font-weight="bold" fill="#000000">
            <tspan x="106" y="70">2</tspan>
        </text>
        <text id="3" font-family="Lato-Bold, Lato" font-size="14" font-weight="bold" fill="#000000">
            <tspan x="201" y="70">3</tspan>
        </text>
        <text id="4" font-family="Lato-Bold, Lato" font-size="14" font-weight="bold" fill="#000000">
            <tspan x="248" y="70">4</tspan>
        </text>
    </g>
</svg>