<?xml version="1.0" encoding="UTF-8"?>
<svg width="698px" height="405px" viewBox="0 0 698 405" version="1.1" xmlns="http://www.w3.org/2000/svg" xmlns:xlink="http://www.w3.org/1999/xlink">
    <!-- Generator: Sketch 51.2 (57519) - http://www.bohemiancoding.com/sketch -->
    <title>magic</title>
    <desc>Created with Sketch.</desc>
    <defs></defs>
    <g id="magic" stroke="none" stroke-width="1" fill="none" fill-rule="evenodd">
        <g id="Group" stroke="#000000">
            <g id="good/bad-notes">
                <g id="Oct1-Copy">
                    <g id="good-notes" transform="translate(28.000000, 0.000000)">
                        <path d="M32.1472584,-2.84217094e-14 L60.7472315,-2.84217094e-14 L60.7472315,203.473828 L69.5051113,203.473828 L69.5051113,289.050633 C69.5051113,294.57348 65.0279588,299.050633 59.5051113,299.050633 L32.3252187,299.050633 C26.8023712,299.050633 22.3252187,294.57348 22.3252187,289.050633 L22.3252187,203.473828 L32.1472584,203.473828 L32.1472584,-2.84217094e-14 Z" id="D" fill="#FFFFFF"></path>
                        <path d="M237.495305,-2.84217094e-14 L260.330151,-2.84217094e-14 L260.330151,203.473828 L270.176921,203.473828 L270.176921,289.050633 C270.176921,294.57348 265.699769,299.050633 260.176921,299.050633 L232.997028,299.050633 C227.474181,299.050633 222.997028,294.57348 222.997028,289.050633 L222.997028,203.473828 L237.495305,203.473828 L237.495305,-2.84217094e-14 Z" id="A" fill="#FFFFFF"></path>
                        <path d="M94.0779137,-2.84217094e-14 L119.83033,-2.84217094e-14 L119.83033,203.473828 L119.83033,289.050633 C119.83033,294.57348 115.353178,299.050633 109.83033,299.050633 L82.6504375,299.050633 C77.12759,299.050633 72.6504375,294.57348 72.6504375,289.050633 L72.6504375,203.473828 L94.0779137,203.473828 L94.0779137,-2.84217094e-14 Z" id="E" fill="#FFFFFF"></path>
                        <path d="M294.749723,-2.84217094e-14 L320.50214,-2.84217094e-14 L320.50214,203.473828 L320.50214,289.050633 C320.50214,294.57348 316.024987,299.050633 310.50214,299.050633 L283.322247,299.050633 C277.7994,299.050633 273.322247,294.57348 273.322247,289.050633 L273.322247,203.473828 L294.749723,203.473828 L294.749723,-2.84217094e-14 Z" id="B" fill="#FFFFFF"></path>
                        <path d="M0.807935543,0.5 L0.807935543,197.158228 C0.807935543,199.643509 2.82265417,201.658228 5.30793554,201.658228 L24.2449363,201.658228 C26.7302177,201.658228 28.7449363,199.643509 28.7449363,197.158228 L28.7449363,0.5 L0.807935543,0.5 Z" id="Db" fill="#000000"></path>
                        <path d="M149.896396,0.5 L149.896396,197.158228 C149.896396,199.643509 151.911115,201.658228 154.396396,201.658228 L173.333397,201.658228 C175.818678,201.658228 177.833397,199.643509 177.833397,197.158228 L177.833397,0.5 L149.896396,0.5 Z" id="Gb" fill="#000000"></path>
                        <path d="M206.512267,0.5 L206.512267,197.158228 C206.512267,199.643509 208.526986,201.658228 211.012267,201.658228 L229.949268,201.658228 C232.434549,201.658228 234.449268,199.643509 234.449268,197.158228 L234.449268,0.5 L206.512267,0.5 Z" id="Ab" fill="#000000"></path>
                    </g>
                    <g id="bad-notes" opacity="0.0811941964">
                        <path d="M0,0 L25.9914219,0 L25.9914219,203.473828 L47.1798926,203.473828 L47.1798926,289.050633 C47.1798926,294.57348 42.7027401,299.050633 37.1798926,299.050633 L10,299.050633 C4.4771525,299.050633 -1.10000309e-15,294.57348 -1.77635684e-15,289.050633 L0,0 Z" id="C" fill="#FFFFFF"></path>
                        <path d="M175.431161,0 L150.975656,0 L150.975656,203.473828 L150.975656,289.050633 C150.975656,294.57348 155.452809,299.050633 160.975656,299.050633 L188.155549,299.050633 C193.678396,299.050633 198.155549,294.57348 198.155549,289.050633 L198.155549,203.473828 L175.431161,203.473828 L175.431161,0 Z" id="F" fill="#FFFFFF"></path>
                        <path d="M207.968321,-2.84217094e-14 L232.00346,-2.84217094e-14 L232.00346,203.473828 L247.851702,203.473828 L247.851702,289.050633 C247.851702,294.57348 243.37455,299.050633 237.851702,299.050633 L210.67181,299.050633 C205.148962,299.050633 200.67181,294.57348 200.67181,289.050633 L200.67181,203.473828 L207.968321,203.473828 L207.968321,-2.84217094e-14 Z" id="G" fill="#FFFFFF"></path>
                        <path d="M91.714459,0.5 L91.714459,197.158228 C91.714459,199.643509 93.7291776,201.658228 96.214459,201.658228 L115.15146,201.658228 C117.636741,201.658228 119.65146,199.643509 119.65146,197.158228 L119.65146,0.5 L91.714459,0.5 Z" id="Eb" fill="#000000"></path>
                        <path d="M291.757203,0.5 L291.757203,197.158228 C291.757203,199.643509 293.771922,201.658228 296.257203,201.658228 L315.194204,201.658228 C317.679486,201.658228 319.694204,199.643509 319.694204,197.158228 L319.694204,0.5 L291.757203,0.5 Z" id="Bb" fill="#000000"></path>
                    </g>
                </g>
            </g>
            <g id="good/bad-notes" transform="translate(349.000000, 0.000000)">
                <g id="Oct1-Copy">
                    <g id="good-notes" transform="translate(28.000000, 0.000000)">
                        <path d="M32.1472584,-2.84217094e-14 L60.7472315,-2.84217094e-14 L60.7472315,203.473828 L69.5051113,203.473828 L69.5051113,289.050633 C69.5051113,294.57348 65.0279588,299.050633 59.5051113,299.050633 L32.3252187,299.050633 C26.8023712,299.050633 22.3252187,294.57348 22.3252187,289.050633 L22.3252187,203.473828 L32.1472584,203.473828 L32.1472584,-2.84217094e-14 Z" id="D" fill="#FFFFFF"></path>
                        <path d="M237.495305,-2.84217094e-14 L260.330151,-2.84217094e-14 L260.330151,203.473828 L270.176921,203.473828 L270.176921,289.050633 C270.176921,294.57348 265.699769,299.050633 260.176921,299.050633 L232.997028,299.050633 C227.474181,299.050633 222.997028,294.57348 222.997028,289.050633 L222.997028,203.473828 L237.495305,203.473828 L237.495305,-2.84217094e-14 Z" id="A" fill="#FFFFFF"></path>
                        <path d="M94.0779137,-2.84217094e-14 L119.83033,-2.84217094e-14 L119.83033,203.473828 L119.83033,289.050633 C119.83033,294.57348 115.353178,299.050633 109.83033,299.050633 L82.6504375,299.050633 C77.12759,299.050633 72.6504375,294.57348 72.6504375,289.050633 L72.6504375,203.473828 L94.0779137,203.473828 L94.0779137,-2.84217094e-14 Z" id="E" fill="#FFFFFF"></path>
                        <path d="M294.749723,-2.84217094e-14 L320.50214,-2.84217094e-14 L320.50214,203.473828 L320.50214,289.050633 C320.50214,294.57348 316.024987,299.050633 310.50214,299.050633 L283.322247,299.050633 C277.7994,299.050633 273.322247,294.57348 273.322247,289.050633 L273.322247,203.473828 L294.749723,203.473828 L294.749723,-2.84217094e-14 Z" id="B" fill="#FFFFFF"></path>
                        <path d="M0.807935543,0.5 L0.807935543,197.158228 C0.807935543,199.643509 2.82265417,201.658228 5.30793554,201.658228 L24.2449363,201.658228 C26.7302177,201.658228 28.7449363,199.643509 28.7449363,197.158228 L28.7449363,0.5 L0.807935543,0.5 Z" id="Db" fill="#000000"></path>
                        <path d="M149.896396,0.5 L149.896396,197.158228 C149.896396,199.643509 151.911115,201.658228 154.396396,201.658228 L173.333397,201.658228 C175.818678,201.658228 177.833397,199.643509 177.833397,197.158228 L177.833397,0.5 L149.896396,0.5 Z" id="Gb" fill="#000000"></path>
                        <path d="M206.512267,0.5 L206.512267,197.158228 C206.512267,199.643509 208.526986,201.658228 211.012267,201.658228 L229.949268,201.658228 C232.434549,201.658228 234.449268,199.643509 234.449268,197.158228 L234.449268,0.5 L206.512267,0.5 Z" id="Ab" fill="#000000"></path>
                    </g>
                    <g id="bad-notes" opacity="0.0811941964">
                        <path d="M0,0 L25.9914219,0 L25.9914219,203.473828 L47.1798926,203.473828 L47.1798926,289.050633 C47.1798926,294.57348 42.7027401,299.050633 37.1798926,299.050633 L10,299.050633 C4.4771525,299.050633 -1.10000309e-15,294.57348 -1.77635684e-15,289.050633 L0,0 Z" id="C" fill="#FFFFFF"></path>
                        <path d="M175.431161,0 L150.975656,0 L150.975656,203.473828 L150.975656,289.050633 C150.975656,294.57348 155.452809,299.050633 160.975656,299.050633 L188.155549,299.050633 C193.678396,299.050633 198.155549,294.57348 198.155549,289.050633 L198.155549,203.473828 L175.431161,203.473828 L175.431161,0 Z" id="F" fill="#FFFFFF"></path>
                        <path d="M207.968321,-2.84217094e-14 L232.00346,-2.84217094e-14 L232.00346,203.473828 L247.851702,203.473828 L247.851702,289.050633 C247.851702,294.57348 243.37455,299.050633 237.851702,299.050633 L210.67181,299.050633 C205.148962,299.050633 200.67181,294.57348 200.67181,289.050633 L200.67181,203.473828 L207.968321,203.473828 L207.968321,-2.84217094e-14 Z" id="G" fill="#FFFFFF"></path>
                        <path d="M91.714459,0.5 L91.714459,197.158228 C91.714459,199.643509 93.7291776,201.658228 96.214459,201.658228 L115.15146,201.658228 C117.636741,201.658228 119.65146,199.643509 119.65146,197.158228 L119.65146,0.5 L91.714459,0.5 Z" id="Eb" fill="#000000"></path>
                        <path d="M291.757203,0.5 L291.757203,197.158228 C291.757203,199.643509 293.771922,201.658228 296.257203,201.658228 L315.194204,201.658228 C317.679486,201.658228 319.694204,199.643509 319.694204,197.158228 L319.694204,0.5 L291.757203,0.5 Z" id="Bb" fill="#000000"></path>
                    </g>
                </g>
            </g>
        </g>
        <g id="Group-2" transform="translate(235.000000, 308.000000)" fill="#4A90E2">
            <text id="magic!" font-family="Lato-ExtraBold, Lato" font-size="43" font-weight="600">
                <tspan x="0" y="62">magic!</tspan>
            </text>
            <text id="🤩" font-family="AppleColorEmoji, Apple Color Emoji" font-size="74" font-weight="normal">
                <tspan x="154" y="74">🤩</tspan>
            </text>
        </g>
    </g>
</svg>