<?xml version="1.0" encoding="UTF-8"?>
<svg width="305px" height="150px" viewBox="0 0 305 150" version="1.1" xmlns="http://www.w3.org/2000/svg" xmlns:xlink="http://www.w3.org/1999/xlink">
    <!-- Generator: Sketch 51.3 (57544) - http://www.bohemiancoding.com/sketch -->
    <title>Truck</title>
    <desc>Created with Sketch.</desc>
    <defs></defs>
    <g id="Truck" stroke="none" stroke-width="1" fill="none" fill-rule="evenodd">
        <g id="TRUCK" opacity="0.3" transform="translate(22.000000, 17.000000)">
            <path d="M165.386696,0 C165.386696,0 178.539594,0.0175034034 187.348271,0.0175034034 C196.15241,0.0175034034 199.267092,7.71399994 199.267092,7.71399994 L207.286323,29.0556497 C243.991031,32.6488484 249.648728,45.8839219 249.648728,45.8839219 L249.689561,63.1547801 C255.617213,70.2686634 259.419258,79.6304837 260,90 L245.89659,90 C244.687467,76.4623677 234.295362,65.8453033 221.70052,65.8453033 C209.10341,65.8453033 198.713573,76.4623677 197.50445,90 L182.759048,90 C183.276271,80.6981913 186.506649,72.2115411 191.549576,65.4202206 L165.386696,65.4202206 L165.386696,0 Z M173.333333,29.4557275 L198.833804,29.4557275 L192.048651,11.4047176 C191.65166,10.6520712 190.356333,8.77920707 187.348271,8.77920707 C183.033539,8.77920707 177.679824,8.77670658 173.333333,8.77170561 L173.333333,29.4557275 Z M0,58.2513266 L0,82.0034451 L5.4852895,82.0584558 C8.00788748,75.6347067 12.7377587,70.5112105 18.6223083,67.8531937 C20.584581,66.9680216 25.4369525,65.4127191 30.0148327,65.4127191 L158.930478,65.4127191 L158.930478,58.2513266 L0,58.2513266 Z" id="Fill-347" fill="#7785FF"></path>
            <path d="M222.822131,110 C212.798587,110 204.641997,100.804574 204.641997,89.4987225 C204.641997,78.1979809 212.798587,69 222.822131,69 C232.845675,69 241,78.1979809 241,89.4987225 C241,100.804574 232.845675,110 222.822131,110 Z M222.822131,101.049854 C228.468305,101.049854 233.060918,95.8683243 233.060918,89.4987225 C233.060918,83.1342307 228.468305,77.9527014 222.822131,77.9527014 C217.175958,77.9527014 212.581078,83.1342307 212.581078,89.4987225 C212.581078,95.8683243 217.175958,101.049854 222.822131,101.049854 Z M29.1778688,110 C19.1543251,110 11,100.804574 11,89.4987225 C11,78.1979809 19.1543251,69 29.1778688,69 C39.2059441,69 47.3602691,78.1979809 47.3602691,89.4987225 C47.3602691,100.804574 39.2059441,110 29.1778688,110 Z M29.1778688,101.049854 C34.8240422,101.049854 39.416656,95.8683243 39.416656,89.4987225 C39.416656,83.1342307 34.8240422,77.9527014 29.1778688,77.9527014 C23.5316954,77.9527014 18.936816,83.1342307 18.936816,89.4987225 C18.936816,95.8683243 23.5316954,101.049854 29.1778688,101.049854 Z M83.568735,110 C73.5451913,110 65.3886005,100.804574 65.3886005,89.4987225 C65.3886005,78.1979809 73.5451913,69 83.568735,69 C93.5922788,69 101.746604,78.1979809 101.746604,89.4987225 C101.746604,100.804574 93.5922788,110 83.568735,110 Z M83.568735,101.049854 C89.2149084,101.049854 93.8075222,95.8683243 93.8075222,89.4987225 C93.8075222,83.1342307 89.2149084,77.9527014 83.568735,77.9527014 C77.9225616,77.9527014 73.3276822,83.1342307 73.3276822,89.4987225 C73.3276822,95.8683243 77.9225616,101.049854 83.568735,101.049854 Z M181.264301,69 L100.088097,69 C104.481328,73.5095657 107.442623,79.7590827 108.04757,86.7955381 L177.559849,86.7955381 C177.852127,80.4974762 179.123196,74.4957936 181.264301,69 Z M45.6972309,69 C50.0904613,73.5095657 53.0517569,79.7590827 53.6589698,86.7955381 L59.0876341,86.7955381 C59.694847,79.7590827 62.6538768,73.5095657 67.0539044,69 L45.6972309,69 Z" id="Fill-348" fill="#414141"></path>
        </g>
        <g id="Group-3" transform="translate(20.000000, 109.000000)" fill="#000000" font-family="Lato-Bold, Lato" font-size="24" font-weight="bold">
            <text id="❶">
                <tspan x="0" y="24">❶</tspan>
            </text>
        </g>
        <g id="Group-2" transform="translate(107.000000, 108.000000)" fill="#000000" font-family="Lato-Bold, Lato" font-size="24" font-weight="bold">
            <text id="❷">
                <tspan x="0" y="24">❷</tspan>
            </text>
        </g>
        <g id="Group" transform="translate(198.000000, 7.000000)" fill="#000000" font-family="Lato-Bold, Lato" font-size="24" font-weight="bold">
            <text id="❸">
                <tspan x="0" y="24">❸</tspan>
            </text>
        </g>
        <g id="Group-4" transform="translate(247.000000, 108.000000)" fill="#000000" font-family="Lato-Bold, Lato" font-size="24" font-weight="bold">
            <text id="❹">
                <tspan x="0" y="24">❹</tspan>
            </text>
        </g>
    </g>
</svg>