<?xml version="1.0" encoding="UTF-8"?>
<svg width="241px" height="170px" viewBox="0 0 241 170" version="1.1" xmlns="http://www.w3.org/2000/svg" xmlns:xlink="http://www.w3.org/1999/xlink">
    <!-- Generator: Sketch 51.2 (57519) - http://www.bohemiancoding.com/sketch -->
    <title>truckPic</title>
    <desc>Created with Sketch.</desc>
    <defs></defs>
    <g id="truckPic" stroke="none" stroke-width="1" fill="none" fill-rule="evenodd">
        <g id="TRUCK">
            <path d="M153.300745,0 C153.300745,0 165.49247,0.0268385519 173.657436,0.0268385519 C181.818195,0.0268385519 184.705266,11.8281332 184.705266,11.8281332 L192.138476,44.5519962 C226.160917,50.0615675 231.405167,70.3553469 231.405167,70.3553469 L231.443016,96.8373295 C236.937493,107.745284 240.461697,122.100075 241,138 L227.927224,138 C226.80646,117.242297 217.173778,100.962798 205.499328,100.962798 C193.822776,100.962798 184.192196,117.242297 183.071432,138 L169.403579,138 C169.883005,123.737227 172.877317,110.724363 177.551722,100.311005 L153.300745,100.311005 L153.300745,0 Z M160.666667,45.1654488 L184.303642,45.1654488 L178.014327,17.4872336 C177.646346,16.3331759 176.445678,13.4614508 173.657436,13.4614508 C169.658011,13.4614508 164.695529,13.4576168 160.666667,13.4499486 L160.666667,45.1654488 Z M0,89.3187009 L0,125.738616 L5.08444142,125.822966 C7.4226957,115.973217 11.8069225,108.117189 17.2614473,104.041564 C19.0803232,102.6843 23.5780983,100.299503 27.821441,100.299503 L147.316328,100.299503 L147.316328,89.3187009 L0,89.3187009 Z" id="Fill-347" fill="#7785FF"></path>
            <path d="M206.165713,170 C196.88304,170 189.329327,155.646164 189.329327,137.998006 C189.329327,120.357824 196.88304,106 206.165713,106 C215.448386,106 223,120.357824 223,137.998006 C223,155.646164 215.448386,170 206.165713,170 Z M206.165713,156.02904 C211.39456,156.02904 215.64772,147.940799 215.64772,137.998006 C215.64772,128.063189 211.39456,119.974949 206.165713,119.974949 C200.936865,119.974949 196.681607,128.063189 196.681607,137.998006 C196.681607,147.940799 200.936865,156.02904 206.165713,156.02904 Z M26.8342872,170 C17.5516141,170 10,155.646164 10,137.998006 C10,120.357824 17.5516141,106 26.8342872,106 C36.1211569,106 43.672771,120.357824 43.672771,137.998006 C43.672771,155.646164 36.1211569,170 26.8342872,170 Z M26.8342872,156.02904 C32.0631348,156.02904 36.3162945,147.940799 36.3162945,137.998006 C36.3162945,128.063189 32.0631348,119.974949 26.8342872,119.974949 C21.6054397,119.974949 17.3501818,128.063189 17.3501818,137.998006 C17.3501818,147.940799 21.6054397,156.02904 26.8342872,156.02904 Z M77.204959,170 C67.9222858,170 60.3685735,155.646164 60.3685735,137.998006 C60.3685735,120.357824 67.9222858,106 77.204959,106 C86.4876321,106 94.0392462,120.357824 94.0392462,137.998006 C94.0392462,155.646164 86.4876321,170 77.204959,170 Z M77.204959,156.02904 C82.4338065,156.02904 86.6869662,147.940799 86.6869662,137.998006 C86.6869662,128.063189 82.4338065,119.974949 77.204959,119.974949 C71.9761114,119.974949 67.7208535,128.063189 67.7208535,137.998006 C67.7208535,147.940799 71.9761114,156.02904 77.204959,156.02904 Z M167.679548,106 L92.5033247,106 C96.5718381,113.039322 99.3142553,122.794666 99.874489,133.778401 L164.248904,133.778401 C164.519579,123.94728 165.696699,114.5788 167.679548,106 Z M42.132653,106 C46.2011664,113.039322 48.9435836,122.794666 49.5059155,133.778401 L54.5333307,133.778401 C55.0956626,122.794666 57.8359816,113.039322 61.9107898,106 L42.132653,106 Z" id="Fill-348" fill="#414141"></path>
        </g>
    </g>
</svg>