<?xml version="1.0" encoding="UTF-8"?>
<svg width="305px" height="150px" viewBox="0 0 305 150" version="1.1" xmlns="http://www.w3.org/2000/svg" xmlns:xlink="http://www.w3.org/1999/xlink">
    <!-- Generator: Sketch 51.2 (57519) - http://www.bohemiancoding.com/sketch -->
    <title>Truck</title>
    <desc>Created with Sketch.</desc>
    <defs></defs>
    <g id="Truck" stroke="none" stroke-width="1" fill="none" fill-rule="evenodd">
        <circle id="Oval" stroke="#000000" stroke-width="5" fill="#F8E71C" cx="34.5" cy="115.5" r="12.5"></circle>
        <circle id="Oval-Copy" stroke="#000000" stroke-width="5" fill="#F8E71C" cx="119.5" cy="115.5" r="12.5"></circle>
        <circle id="Oval-Copy-2" stroke="#000000" stroke-width="5" fill="#F8E71C" cx="214.5" cy="35.5" r="12.5"></circle>
        <circle id="Oval-Copy-3" stroke="#000000" stroke-width="5" fill="#F8E71C" cx="261.5" cy="115.5" r="12.5"></circle>
        <g id="TRUCK" opacity="0.3" transform="translate(19.000000, 16.000000)">
            <path d="M168.567209,0 C168.567209,0 181.973048,0.0176978857 190.951122,0.0176978857 C199.924572,0.0176978857 203.099152,7.79971105 203.099152,7.79971105 L211.272598,29.3784903 C248.683166,33.0116134 254.449665,46.3937432 254.449665,46.3937432 L254.491284,63.8564999 C260.532928,71.0494263 264.40809,80.5152669 265,91 L250.625371,91 C249.392995,77.3119495 238.801042,66.5769177 225.963992,66.5769177 C213.124629,66.5769177 202.534988,77.3119495 201.302612,91 L186.273645,91 C186.800815,81.5948379 190.093315,73.0138916 195.233222,66.1471119 L168.567209,66.1471119 L168.567209,0 Z M176.666667,29.7830134 L202.657531,29.7830134 L195.741894,11.5314367 C195.337268,10.7704276 194.017031,8.87675381 190.951122,8.87675381 C186.553415,8.87675381 181.096744,8.87422554 176.666667,8.86916901 L176.666667,29.7830134 Z M0,58.8985636 L0,82.9145945 L5.59077583,82.9702164 C8.16188532,76.4750924 12.9827156,71.2946684 18.9804296,68.6071181 C20.9804383,67.7121107 25.9261247,66.1395271 30.592041,66.1395271 L161.986834,66.1395271 L161.986834,58.8985636 L0,58.8985636 Z" id="Fill-347" fill="#7785FF"></path>
            <path d="M226.505994,112 C216.308128,112 208.009683,102.580295 208.009683,90.9986913 C208.009683,79.4223219 216.308128,70 226.505994,70 C236.703861,70 245,79.4223219 245,90.9986913 C245,102.580295 236.703861,112 226.505994,112 Z M226.505994,102.831557 C232.250362,102.831557 236.922847,97.5236493 236.922847,90.9986913 C236.922847,84.478968 232.250362,79.17106 226.505994,79.17106 C220.761627,79.17106 216.086836,84.478968 216.086836,90.9986913 C216.086836,97.5236493 220.761627,102.831557 226.505994,102.831557 Z M29.4940057,112 C19.2961394,112 11,102.580295 11,90.9986913 C11,79.4223219 19.2961394,70 29.4940057,70 C39.6964822,70 47.9926216,79.4223219 47.9926216,90.9986913 C47.9926216,102.580295 39.6964822,112 29.4940057,112 Z M29.4940057,102.831557 C35.2383734,102.831557 39.9108587,97.5236493 39.9108587,90.9986913 C39.9108587,84.478968 35.2383734,79.17106 29.4940057,79.17106 C23.749638,79.17106 19.0748476,84.478968 19.0748476,90.9986913 C19.0748476,97.5236493 23.749638,102.831557 29.4940057,102.831557 Z M84.8308,112 C74.6329337,112 66.3344892,102.580295 66.3344892,90.9986913 C66.3344892,79.4223219 74.6329337,70 84.8308,70 C95.0286663,70 103.324806,79.4223219 103.324806,90.9986913 C103.324806,102.580295 95.0286663,112 84.8308,112 Z M84.8308,102.831557 C90.5751677,102.831557 95.247653,97.5236493 95.247653,90.9986913 C95.247653,84.478968 90.5751677,79.17106 84.8308,79.17106 C79.0864323,79.17106 74.4116419,84.478968 74.4116419,90.9986913 C74.4116419,97.5236493 79.0864323,102.831557 84.8308,102.831557 Z M184.225419,70 L101.637455,70 C106.10709,74.6195551 109.119886,81.0214993 109.735354,88.2295756 L180.456543,88.2295756 C180.753903,81.7779024 182.047078,75.6298374 184.225419,70 Z M46.300661,70 C50.7702954,74.6195551 53.7830918,81.0214993 54.4008649,88.2295756 L59.9239408,88.2295756 C60.5417139,81.0214993 63.5522051,74.6195551 68.0287549,70 L46.300661,70 Z" id="Fill-348" fill="#414141"></path>
        </g>
    </g>
</svg>