<?xml version="1.0" encoding="UTF-8"?>
<svg width="460px" height="301px" viewBox="0 0 460 301" version="1.1" xmlns="http://www.w3.org/2000/svg" xmlns:xlink="http://www.w3.org/1999/xlink">
    <!-- Generator: Sketch 51.2 (57519) - http://www.bohemiancoding.com/sketch -->
    <title>whiteNotes</title>
    <desc>Created with Sketch.</desc>
    <defs></defs>
    <g id="whiteNotes" stroke="none" stroke-width="1" fill="none" fill-rule="evenodd">
        <g id="Group" transform="translate(6.000000, 0.000000)">
            <g id="Oct1-Copy">
                <path d="M51,0 L76.9914219,0 L76.9914219,203.473828 L98.1798926,203.473828 L98.1798926,289.050633 C98.1798926,294.57348 93.7027401,299.050633 88.1798926,299.050633 L61,299.050633 C55.4771525,299.050633 51,294.57348 51,289.050633 L51,0 Z" id="C" stroke="#000000" fill="#FFFFFF"></path>
                <path d="M111.147258,-2.84217094e-14 L139.747232,-2.84217094e-14 L139.747232,203.473828 L148.505111,203.473828 L148.505111,289.050633 C148.505111,294.57348 144.027959,299.050633 138.505111,299.050633 L111.325219,299.050633 C105.802371,299.050633 101.325219,294.57348 101.325219,289.050633 L101.325219,203.473828 L111.147258,203.473828 L111.147258,-2.84217094e-14 Z" id="D" stroke="#000000" fill="#FFFFFF"></path>
                <path d="M173.077914,-2.84217094e-14 L198.83033,-2.84217094e-14 L198.83033,203.473828 L198.83033,289.050633 C198.83033,294.57348 194.353178,299.050633 188.83033,299.050633 L161.650437,299.050633 C156.12759,299.050633 151.650437,294.57348 151.650437,289.050633 L151.650437,203.473828 L173.077914,203.473828 L173.077914,-2.84217094e-14 Z" id="E" stroke="#000000" fill="#FFFFFF"></path>
                <path d="M373.427476,-2.84217094e-14 L399.179893,-2.84217094e-14 L399.179893,203.473828 L399.179893,289.050633 C399.179893,294.57348 394.70274,299.050633 389.179893,299.050633 L362,299.050633 C356.477153,299.050633 352,294.57348 352,289.050633 L352,203.473828 L373.427476,203.473828 L373.427476,-2.84217094e-14 Z" id="B" stroke="#000000" fill="#FFFFFF"></path>
                <path d="M22.2475837,-2.84217094e-14 L48,-2.84217094e-14 L48,203.473828 L48,289.050633 C48,294.57348 43.5228475,299.050633 38,299.050633 L10.8201074,299.050633 C5.29725993,299.050633 0.820107428,294.57348 0.820107428,289.050633 L0.820107428,203.473828 L22.2475837,203.473828 L22.2475837,-2.84217094e-14 Z" id="B-Copy" stroke="#000000" fill="#FFFFFF"></path>
                <path d="M226.431161,0 L201.975656,0 L201.975656,203.473828 L201.975656,289.050633 C201.975656,294.57348 206.452809,299.050633 211.975656,299.050633 L239.155549,299.050633 C244.678396,299.050633 249.155549,294.57348 249.155549,289.050633 L249.155549,203.473828 L226.431161,203.473828 L226.431161,0 Z" id="F" stroke="#000000" fill="#FFFFFF"></path>
                <path d="M258.968321,-2.84217094e-14 L283.00346,-2.84217094e-14 L283.00346,203.473828 L298.851702,203.473828 L298.851702,289.050633 C298.851702,294.57348 294.37455,299.050633 288.851702,299.050633 L261.67181,299.050633 C256.148962,299.050633 251.67181,294.57348 251.67181,289.050633 L251.67181,203.473828 L258.968321,203.473828 L258.968321,-2.84217094e-14 Z" id="G" stroke="#000000" fill="#FFFFFF"></path>
                <path d="M316.495305,-2.84217094e-14 L339.330151,-2.84217094e-14 L339.330151,203.473828 L349.176921,203.473828 L349.176921,289.050633 C349.176921,294.57348 344.699769,299.050633 339.176921,299.050633 L311.997028,299.050633 C306.474181,299.050633 301.997028,294.57348 301.997028,289.050633 L301.997028,203.473828 L316.495305,203.473828 L316.495305,-2.84217094e-14 Z" id="A" stroke="#000000" fill="#FFFFFF"></path>
                <path d="M79.3079355,0 L108.244936,0 L108.244936,197.158228 C108.244936,199.919652 106.00636,202.158228 103.244936,202.158228 L84.3079355,202.158228 C81.5465118,202.158228 79.3079355,199.919652 79.3079355,197.158228 L79.3079355,0 Z" id="Db" fill-opacity="0.05" fill="#000000"></path>
                <path d="M142.214459,0 L171.15146,0 L171.15146,197.158228 C171.15146,199.919652 168.912883,202.158228 166.15146,202.158228 L147.214459,202.158228 C144.453035,202.158228 142.214459,199.919652 142.214459,197.158228 L142.214459,0 Z" id="Eb" fill-opacity="0.05" fill="#000000"></path>
                <path d="M228.396396,0 L257.333397,0 L257.333397,197.158228 C257.333397,199.919652 255.094821,202.158228 252.333397,202.158228 L233.396396,202.158228 C230.634972,202.158228 228.396396,199.919652 228.396396,197.158228 L228.396396,0 Z" id="Gb" fill-opacity="0.05" fill="#000000"></path>
                <path d="M285.012267,0 L313.949268,0 L313.949268,197.158228 C313.949268,199.919652 311.710692,202.158228 308.949268,202.158228 L290.012267,202.158228 C287.250843,202.158228 285.012267,199.919652 285.012267,197.158228 L285.012267,0 Z" id="Ab" fill-opacity="0.05" fill="#000000"></path>
                <path d="M342.257203,0 L371.194204,0 L371.194204,197.158228 C371.194204,199.919652 368.955628,202.158228 366.194204,202.158228 L347.257203,202.158228 C344.49578,202.158228 342.257203,199.919652 342.257203,197.158228 L342.257203,0 Z" id="Bb" fill-opacity="0.05" fill="#000000"></path>
            </g>
            <g id="Oct2-Copy" transform="translate(402.000000, 0.000000)">
                <path d="M0,0 L26.0285525,0 L26.0285525,203.439377 L47.2472924,203.439377 L47.2472924,289 C47.2472924,294.522847 42.7701399,299 37.2472924,299 L10,299 C4.4771525,299 2.45271059e-15,294.522847 1.77635684e-15,289 L0,0 Z" id="C" stroke="#000000" fill="#FFFFFF"></path>
                <path d="M59.2331831,-2.84217094e-14 L87.8740133,-2.84217094e-14 L87.8740133,203.439377 L96.6444043,203.439377 L96.6444043,289 C96.6444043,294.522847 92.1672518,299 86.6444043,299 L59.3971119,299 C53.8742644,299 49.3971119,294.522847 49.3971119,289 L49.3971119,203.439377 L59.2331831,203.439377 L59.2331831,-2.84217094e-14 Z" id="D" fill-opacity="0" fill="#FFFFFF"></path>
                <path d="M27.3483755,0 L56.3267148,0 L56.3267148,192.124 C56.3267148,197.646847 51.8495623,202.124 46.3267148,202.124 L37.3483755,202.124 C31.825528,202.124 27.3483755,197.646847 27.3483755,192.124 L27.3483755,0 Z" id="Db" fill-opacity="0.05" fill="#000000"></path>
            </g>
        </g>
    </g>
</svg>