<?xml version="1.0" encoding="UTF-8"?>
<svg width="794px" height="479px" viewBox="0 0 794 479" version="1.1" xmlns="http://www.w3.org/2000/svg" xmlns:xlink="http://www.w3.org/1999/xlink">
    <!-- Generator: Sketch 51.2 (57519) - http://www.bohemiancoding.com/sketch -->
    <title>wrongNotes</title>
    <desc>Created with Sketch.</desc>
    <defs></defs>
    <g id="wrongNotes" stroke="none" stroke-width="1" fill="none" fill-rule="evenodd">
        <g id="Oct1-Copy" transform="translate(0.000000, 75.000000)" stroke="#000000">
            <path d="M0,0 L25.9914219,0 L25.9914219,203.473828 L47.1798926,203.473828 L47.1798926,289.050633 C47.1798926,294.57348 42.7027401,299.050633 37.1798926,299.050633 L10,299.050633 C4.4771525,299.050633 -1.10000309e-15,294.57348 -1.77635684e-15,289.050633 L0,0 Z" id="C" fill="#FFFFFF"></path>
            <path d="M60.1472584,-2.84217094e-14 L88.7472315,-2.84217094e-14 L88.7472315,203.473828 L97.5051113,203.473828 L97.5051113,289.050633 C97.5051113,294.57348 93.0279588,299.050633 87.5051113,299.050633 L60.3252187,299.050633 C54.8023712,299.050633 50.3252187,294.57348 50.3252187,289.050633 L50.3252187,203.473828 L60.1472584,203.473828 L60.1472584,-2.84217094e-14 Z" id="D" fill="#FFFFFF"></path>
            <path d="M122.077914,-2.84217094e-14 L147.83033,-2.84217094e-14 L147.83033,203.473828 L147.83033,289.050633 C147.83033,294.57348 143.353178,299.050633 137.83033,299.050633 L110.650437,299.050633 C105.12759,299.050633 100.650437,294.57348 100.650437,289.050633 L100.650437,203.473828 L122.077914,203.473828 L122.077914,-2.84217094e-14 Z" id="E" fill="#FFFFFF"></path>
            <path d="M322.749723,-2.84217094e-14 L348.50214,-2.84217094e-14 L348.50214,203.473828 L348.50214,289.050633 C348.50214,294.57348 344.024987,299.050633 338.50214,299.050633 L311.322247,299.050633 C305.7994,299.050633 301.322247,294.57348 301.322247,289.050633 L301.322247,203.473828 L322.749723,203.473828 L322.749723,-2.84217094e-14 Z" id="B" fill="#FFFFFF"></path>
            <path d="M175.431161,0 L150.975656,0 L150.975656,203.473828 L150.975656,289.050633 C150.975656,294.57348 155.452809,299.050633 160.975656,299.050633 L188.155549,299.050633 C193.678396,299.050633 198.155549,294.57348 198.155549,289.050633 L198.155549,203.473828 L175.431161,203.473828 L175.431161,0 Z" id="F" fill="#FFFFFF"></path>
            <path d="M207.968321,-2.84217094e-14 L232.00346,-2.84217094e-14 L232.00346,203.473828 L247.851702,203.473828 L247.851702,289.050633 C247.851702,294.57348 243.37455,299.050633 237.851702,299.050633 L210.67181,299.050633 C205.148962,299.050633 200.67181,294.57348 200.67181,289.050633 L200.67181,203.473828 L207.968321,203.473828 L207.968321,-2.84217094e-14 Z" id="G" fill="#FFFFFF"></path>
            <path d="M265.495305,-2.84217094e-14 L288.330151,-2.84217094e-14 L288.330151,203.473828 L298.176921,203.473828 L298.176921,289.050633 C298.176921,294.57348 293.699769,299.050633 288.176921,299.050633 L260.997028,299.050633 C255.474181,299.050633 250.997028,294.57348 250.997028,289.050633 L250.997028,203.473828 L265.495305,203.473828 L265.495305,-2.84217094e-14 Z" id="A" fill="#FFFFFF"></path>
            <path d="M28.8079355,0.5 L28.8079355,197.158228 C28.8079355,199.643509 30.8226542,201.658228 33.3079355,201.658228 L52.2449363,201.658228 C54.7302177,201.658228 56.7449363,199.643509 56.7449363,197.158228 L56.7449363,0.5 L28.8079355,0.5 Z" id="Db" fill="#000000"></path>
            <path d="M91.714459,0.5 L91.714459,197.158228 C91.714459,199.643509 93.7291776,201.658228 96.214459,201.658228 L115.15146,201.658228 C117.636741,201.658228 119.65146,199.643509 119.65146,197.158228 L119.65146,0.5 L91.714459,0.5 Z" id="Eb" fill="#000000"></path>
            <path d="M177.896396,0.5 L177.896396,197.158228 C177.896396,199.643509 179.911115,201.658228 182.396396,201.658228 L201.333397,201.658228 C203.818678,201.658228 205.833397,199.643509 205.833397,197.158228 L205.833397,0.5 L177.896396,0.5 Z" id="Gb" fill="#000000"></path>
            <path d="M234.512267,0.5 L234.512267,197.158228 C234.512267,199.643509 236.526986,201.658228 239.012267,201.658228 L257.949268,201.658228 C260.434549,201.658228 262.449268,199.643509 262.449268,197.158228 L262.449268,0.5 L234.512267,0.5 Z" id="Ab" fill="#000000"></path>
            <path d="M291.757203,0.5 L291.757203,197.158228 C291.757203,199.643509 293.771922,201.658228 296.257203,201.658228 L315.194204,201.658228 C317.679486,201.658228 319.694204,199.643509 319.694204,197.158228 L319.694204,0.5 L291.757203,0.5 Z" id="Bb" fill="#000000"></path>
        </g>
        <g id="Oct2-Copy" transform="translate(350.000000, 75.000000)" stroke="#000000">
            <path d="M0,0 L26.0285525,0 L26.0285525,203.439377 L47.2472924,203.439377 L47.2472924,289 C47.2472924,294.522847 42.7701399,299 37.2472924,299 L10,299 C4.4771525,299 2.45271059e-15,294.522847 1.77635684e-15,289 L0,0 Z" id="C" fill="#FFFFFF"></path>
            <path d="M60.2331831,-2.84217094e-14 L88.8740133,-2.84217094e-14 L88.8740133,203.439377 L97.6444043,203.439377 L97.6444043,289 C97.6444043,294.522847 93.1672518,299 87.6444043,299 L60.3971119,299 C54.8742644,299 50.3971119,294.522847 50.3971119,289 L50.3971119,203.439377 L60.2331831,203.439377 L60.2331831,-2.84217094e-14 Z" id="D" fill="#FFFFFF"></path>
            <path d="M122.252311,-2.84217094e-14 L148.041516,-2.84217094e-14 L148.041516,203.439377 L148.041516,289 C148.041516,294.522847 143.564364,299 138.041516,299 L110.794224,299 C105.271376,299 100.794224,294.522847 100.794224,289 L100.794224,203.439377 L122.252311,203.439377 L122.252311,-2.84217094e-14 Z" id="E" fill="#FFFFFF"></path>
            <path d="M323.210795,-2.84217094e-14 L349,-2.84217094e-14 L349,203.439377 L349,289 C349,294.522847 344.522847,299 339,299 L311.752708,299 C306.22986,299 301.752708,294.522847 301.752708,289 L301.752708,203.439377 L323.210795,203.439377 L323.210795,-2.84217094e-14 Z" id="B" fill="#FFFFFF"></path>
            <path d="M175.681777,0 L151.191336,0 L151.191336,203.439377 L151.191336,289 C151.191336,294.522847 155.668488,299 161.191336,299 L188.438628,299 C193.961476,299 198.438628,294.522847 198.438628,289 L198.438628,203.439377 L175.681777,203.439377 L175.681777,0 Z" id="F" fill="#FFFFFF"></path>
            <path d="M208.265418,-2.84217094e-14 L232.334894,-2.84217094e-14 L232.334894,203.439377 L248.205776,203.439377 L248.205776,289 C248.205776,294.522847 243.728624,299 238.205776,299 L210.958484,299 C205.435636,299 200.958484,294.522847 200.958484,289 L200.958484,203.439377 L208.265418,203.439377 L208.265418,-2.84217094e-14 Z" id="G" fill="#FFFFFF"></path>
            <path d="M265.874584,-2.84217094e-14 L288.742051,-2.84217094e-14 L288.742051,203.439377 L298.602888,203.439377 L298.602888,289 C298.602888,294.522847 294.125736,299 288.602888,299 L261.355596,299 C255.832748,299 251.355596,294.522847 251.355596,289 L251.355596,203.439377 L265.874584,203.439377 L265.874584,-2.84217094e-14 Z" id="A" fill="#FFFFFF"></path>
            <path d="M28.8483755,0.5 L28.8483755,192.124 C28.8483755,197.370705 33.1016703,201.624 38.3483755,201.624 L47.3267148,201.624 C52.5734199,201.624 56.8267148,197.370705 56.8267148,192.124 L56.8267148,0.5 L28.8483755,0.5 Z" id="Db" fill="#000000"></path>
            <path d="M91.8447653,0.5 L91.8447653,192.124 C91.8447653,197.370705 96.0980602,201.624 101.344765,201.624 L110.323105,201.624 C115.56981,201.624 119.823105,197.370705 119.823105,192.124 L119.823105,0.5 L91.8447653,0.5 Z" id="Eb" fill="#000000"></path>
            <path d="M178.149819,0.5 L178.149819,192.124 C178.149819,197.370705 182.403114,201.624 187.649819,201.624 L196.628159,201.624 C201.874864,201.624 206.128159,197.370705 206.128159,192.124 L206.128159,0.5 L178.149819,0.5 Z" id="Gb" fill="#000000"></path>
            <path d="M234.84657,0.5 L234.84657,192.124 C234.84657,197.370705 239.099865,201.624 244.34657,201.624 L253.32491,201.624 C258.571615,201.624 262.82491,197.370705 262.82491,192.124 L262.82491,0.5 L234.84657,0.5 Z" id="Ab" fill="#000000"></path>
            <path d="M292.173285,0.5 L292.173285,192.124 C292.173285,197.370705 296.42658,201.624 301.673285,201.624 L310.651625,201.624 C315.89833,201.624 320.151625,197.370705 320.151625,192.124 L320.151625,0.5 L292.173285,0.5 Z" id="Bb" fill="#000000"></path>
        </g>
        <text id="?" transform="translate(113.500000, 175.500000) rotate(-24.000000) translate(-113.500000, -175.500000) " font-family="Lato-ExtraBold, Lato" font-size="74" font-weight="600" fill="#BD10E0">
            <tspan x="96" y="204">?</tspan>
        </text>
        <text id="?-copy-3" transform="translate(45.500000, 312.500000) rotate(-24.000000) translate(-45.500000, -312.500000) " font-family="Lato-ExtraBold, Lato" font-size="74" font-weight="600" fill="#B8E986">
            <tspan x="28" y="341">?</tspan>
        </text>
        <text id="?-copy" transform="translate(377.500000, 334.500000) rotate(21.000000) translate(-377.500000, -334.500000) " font-family="Lato-ExtraBold, Lato" font-size="74" font-weight="600" fill="#BD10E0">
            <tspan x="360" y="363">?</tspan>
        </text>
        <text id="?-copy-4" transform="translate(253.500000, 238.500000) rotate(21.000000) translate(-253.500000, -238.500000) " font-family="Lato-ExtraBold, Lato" font-size="74" font-weight="600" fill="#B8E986">
            <tspan x="236" y="267">?</tspan>
        </text>
        <text id="?-copy-2" font-family="Lato-ExtraBold, Lato" font-size="74" font-weight="600" fill="#BD10E0">
            <tspan x="564" y="209">?</tspan>
        </text>
        <text id="?-copy-6" font-family="Lato-ExtraBold, Lato" font-size="74" font-weight="600" fill="#B8E986">
            <tspan x="664" y="354">?</tspan>
        </text>
        <text id="?-copy-5" font-family="Lato-ExtraBold, Lato" font-size="74" font-weight="600" fill="#B8E986">
            <tspan x="440" y="218">?</tspan>
        </text>
        <text id="nope" font-family="Lato-ExtraBold, Lato" font-size="43" font-weight="600" fill="#4A90E2">
            <tspan x="301" y="437">nope</tspan>
        </text>
        <text id="wrong-notes-copy" font-family="Lato-ExtraBold, Lato" font-size="43" font-weight="600" fill="#4A90E2">
            <tspan x="229" y="42">wrong notes</tspan>
        </text>
        <text id="ketchup" transform="translate(754.438651, 126.594731) rotate(55.000000) translate(-754.438651, -126.594731) " font-family="Lato-ExtraBold, Lato" font-size="25" font-weight="600" fill="#4A90E2">
            <tspan x="708.438651" y="136.594731">ketchup</tspan>
        </text>
        <path id="Line-3" d="M117.5,283.5 L131.901251,318.679596 L154.284427,293.086757 L117.5,283.5 Z M270.974986,413.741808 L142.65761,301.51704 L140.399418,299.542054 L136.449446,304.058437 L138.707637,306.033423 L267.025014,418.258192 L269.283206,420.233178 L273.233178,415.716794 L270.974986,413.741808 Z" fill="#9013FE" fill-rule="nonzero"></path>
        <path id="Line-3-Copy" d="M298,272 L293.877568,309.788961 L325.757709,297.971322 L298,272 Z M343.812954,386.957267 L311.50328,299.796287 L310.460547,296.983333 L304.83464,299.068799 L305.877373,301.881752 L338.187046,389.042733 L339.229779,391.855686 L344.855686,389.770221 L343.812954,386.957267 Z" fill="#9013FE" fill-rule="nonzero"></path>
        <path id="Line-3-Copy-3" d="M114,78 L151.827352,81.7538593 L139.699499,49.9904342 L114,78 Z M222.929895,33.1973448 L141.654132,64.2299089 L138.851477,65.3000136 L140.991687,70.9053239 L143.794342,69.8352192 L225.070105,38.8026552 L227.87276,37.7325505 L225.73255,32.1272401 L222.929895,33.1973448 Z" fill="#9013FE" fill-rule="nonzero"></path>
        <path id="Line-3-Copy-4" d="M365,165 L376.922775,128.905022 L343.277683,133.804793 L365,165 Z M347.031315,62.4323327 L357.60168,135.015505 L358.034013,137.98419 L363.971382,137.119524 L363.53905,134.15084 L352.968685,61.5676673 L352.536352,58.5989827 L346.598983,59.4636481 L347.031315,62.4323327 Z" fill="#9013FE" fill-rule="nonzero"></path>
        <path id="Line-3-Copy-2" d="M578,309 L540.241942,313.396486 L558.862354,341.844338 L578,309 Z M414.642978,419.510105 L553.854763,328.389663 L556.364867,326.746686 L553.078912,321.726477 L550.568808,323.369454 L411.357022,414.489895 L408.846918,416.132873 L412.132873,421.153082 L414.642978,419.510105 Z" fill="#9013FE" fill-rule="nonzero"></path>
        <path id="Line-3-Copy-2" d="M692,210 L726.543733,194.133983 L700.033426,172.845403 L692,210 Z M742.660855,142.121596 L708.909669,184.151375 L707.031265,186.490519 L711.709555,190.247328 L713.587959,187.908183 L747.339145,145.878404 L749.217549,143.539259 L744.539259,139.782451 L742.660855,142.121596 Z" fill="#9013FE" fill-rule="nonzero"></path>
        <path id="Line-3-Copy-2" d="M591,77 L562.513898,51.8297403 L553.772131,84.686726 L591,77 Z M481.228668,50.8991458 L560.277753,71.9305537 L563.176898,72.7018861 L564.719563,66.9035945 L561.820417,66.1322621 L482.771332,45.1008542 L479.872187,44.3295218 L478.329522,50.1278134 L481.228668,50.8991458 Z" fill="#9013FE" fill-rule="nonzero"></path>
        <ellipse id="Oval-2" fill="#D0021B" fill-rule="nonzero" cx="686.5" cy="232.5" rx="9.5" ry="18.5"></ellipse>
        <ellipse id="Oval-2-Copy" fill-opacity="0.59" fill="#D0021B" fill-rule="nonzero" transform="translate(690.000000, 242.000000) rotate(14.000000) translate(-690.000000, -242.000000) " cx="690" cy="242" rx="8" ry="17"></ellipse>
        <text id="🤯" font-family="AppleColorEmoji, Apple Color Emoji" font-size="74" font-weight="normal" fill="#4A90E2">
            <tspan x="525" y="456">🤯</tspan>
        </text>
    </g>
</svg>